<?xml version="1.0" encoding="utf-8"?>
<!-- Generator: Adobe Illustrator 15.0.0, SVG Export Plug-In  -->
<!DOCTYPE svg PUBLIC "-//W3C//DTD SVG 1.1//EN" "http://www.w3.org/Graphics/SVG/1.1/DTD/svg11.dtd" [
	<!ENTITY ns_flows "http://ns.adobe.com/Flows/1.0/">
]>
<svg version="1.1"
	 xmlns="http://www.w3.org/2000/svg" xmlns:xlink="http://www.w3.org/1999/xlink" xmlns:a="http://ns.adobe.com/AdobeSVGViewerExtensions/3.0/"
	 x="0px" y="0px" width="1107px" height="169px" viewBox="-7.162 -8.923 1107 169" enable-background="new -7.162 -8.923 1107 169"
	 xml:space="preserve">
<defs>
</defs>
<path d="M23.042,19.153h21.53V0h16.129l6.985,7.417v53.717H51.988l-7.417-6.985V41.979h-21.53v19.154H7.417L0,54.148V0h16.057
	l6.985,7.417V19.153z M58.901,1.8H46.372v19.154H14.257V1.8H1.8v50.548h12.457V33.195h32.115v19.153h12.529V1.8z M50.404,29.234
	h-40.18v19.082H5.833V5.833h4.392v19.082h40.18V5.833h4.464v42.483h-4.464V29.234z"/>
<path d="M120.244,7.417l37.443,53.717h-19.154l-7.272-6.985l-2.952-4.176H99.867c-2.376,3.384-5.688,7.921-7.921,11.161H72.72
	l-7.633-6.985L103.683,0h9.433L120.244,7.417z M104.619,1.8L68.616,52.348h15.266l7.92-11.161h32.547l7.849,11.161h15.265
	L112.18,1.8H104.619z M134.357,48.316l-7.776-11.161H89.786c-2.664,3.672-5.185,7.488-7.849,11.161h-5.761
	c10.081-14.185,20.378-28.227,30.387-42.483h3.457l29.738,42.483H134.357z M123.628,32.691l-15.193-21.53l-15.553,21.53H123.628z
	 M115.852,28.802h-15.266l7.705-10.801L115.852,28.802z"/>
<path d="M155.231,54.148V0h11.521l30.891,28.298V0h15.914l6.984,7.417v53.717h-11.233l-31.178-28.586v28.586h-15.481L155.231,54.148
	z M211.756,1.8h-12.313v30.603L166.104,1.8h-9.073v50.548h12.313V21.674l33.411,30.674h9V1.8z M165.312,12.673v35.643h-4.249V5.833
	h3.672l38.667,35.643V5.833h4.32v42.483h-3.6L165.312,12.673z"/>
<path d="M226.943,54.148V0h11.521l30.891,28.298V0h15.913l6.984,7.417v53.717h-11.232l-31.179-28.586v28.586H234.36L226.943,54.148z
	 M283.469,1.8h-12.313v30.603L237.816,1.8h-9.072v50.548h12.313V21.674l33.411,30.674h9.001V1.8z M237.024,12.673v35.643h-4.248
	V5.833h3.672l38.668,35.643V5.833h4.32v42.483h-3.601L237.024,12.673z"/>
<path d="M345.39,7.417l37.443,53.717h-19.154l-7.272-6.985l-2.952-4.176h-28.442c-2.376,3.384-5.688,7.921-7.921,11.161h-19.226
	l-7.633-6.985L328.828,0h9.433L345.39,7.417z M329.764,1.8l-36.003,50.548h15.266l7.921-11.161h32.546l7.85,11.161h15.265
	L337.324,1.8H329.764z M359.503,48.316l-7.777-11.161h-36.795c-2.664,3.672-5.185,7.488-7.849,11.161h-5.761
	c10.081-14.185,20.378-28.227,30.387-42.483h3.456l29.739,42.483H359.503z M348.773,32.691l-15.193-21.53l-15.553,21.53H348.773z
	 M340.997,28.802h-15.266l7.705-10.801L340.997,28.802z"/>
<path d="M402.914,19.153h21.53V0h16.13l6.984,7.417v53.717h-15.697l-7.417-6.985V41.979h-21.53v19.154h-15.625l-7.417-6.985V0
	h16.058l6.984,7.417V19.153z M438.773,1.8h-12.529v19.154H394.13V1.8h-12.457v50.548h12.457V33.195h32.114v19.153h12.529V1.8z
	 M430.277,29.234h-40.18v19.082h-4.393V5.833h4.393v19.082h40.18V5.833h4.464v42.483h-4.464V29.234z"/>
<path d="M491.039,54.148V0h11.521l30.891,28.298V0h15.913l6.984,7.417v53.717h-11.232l-31.179-28.586v28.586h-15.481L491.039,54.148
	z M547.564,1.8h-12.313v30.603L501.912,1.8h-9.072v50.548h12.313V21.674l33.411,30.674h9.001V1.8z M501.12,12.673v35.643h-4.248
	V5.833h3.672l38.668,35.643V5.833h4.32v42.483h-3.601L501.12,12.673z"/>
<path d="M590.691,0h7.921c11.089,0,19.514,1.8,29.738,13.825c4.32,4.32,7.417,11.809,7.417,20.45
	c0,19.37-12.386,26.858-29.955,26.858h-7.921c-9.721,0-18.722-2.016-24.122-7.345c-10.873-9.577-13.393-16.706-13.393-26.714
	C560.377,7.561,572.978,0,590.691,0z M590.691,52.348h7.921c16.633,0,28.37-7.056,28.37-25.274S615.245,1.8,598.612,1.8h-7.921
	c-16.634,0-28.515,7.057-28.515,25.274S574.058,52.348,590.691,52.348z M590.691,5.833h7.921c13.969,0,24.41,5.76,24.41,21.242
	s-10.441,21.242-24.41,21.242h-7.921c-14.041,0-24.482-5.688-24.482-21.242S576.65,5.833,590.691,5.833z M618.485,27.074
	c0-12.385-8.712-16.85-19.873-16.85h-7.921c-11.233,0-19.946,4.464-19.946,16.85c0,12.457,8.713,16.85,19.946,16.85h7.921
	C609.845,43.924,618.485,39.459,618.485,27.074z M590.691,39.891c-8.568,0-15.913-3.096-15.913-12.817
	c0-9.649,7.416-12.817,15.913-12.817h7.921c8.496,0,15.841,3.168,15.841,12.817s-7.272,12.817-15.841,12.817H590.691z
	 M612.653,27.074c0-1.152-0.145-2.232-0.432-3.168c-1.944-0.576-4.177-0.864-6.409-0.864h-7.921
	c-7.632,0-14.329,2.808-14.329,11.233c0,1.08,0.072,2.016,0.288,2.88c2.017,0.648,4.393,0.936,6.841,0.936h7.921
	C606.173,38.091,612.653,35.355,612.653,27.074z"/>
<path d="M639.865,54.148V0h40.827c7.489,0,13.466,1.44,22.178,11.665c2.809,2.808,4.465,7.776,4.465,13.177
	c0,6.337-2.88,11.377-7.993,14.401c5.977,6.841,13.178,15.266,19.01,21.89h-20.737l-7.272-6.985l-10.514-12.169h-17.065v19.154
	h-15.481L639.865,54.148z M680.692,1.8h-39.027v50.548h12.313V33.195h20.594l16.562,19.153h16.562l-18.146-20.81
	c6.048-2.664,9-7.272,9-13.897C698.55,6.696,691.277,1.8,680.692,1.8z M682.637,29.594c5.328,6.337,10.873,12.457,16.273,18.722
	h-5.832l-16.634-19.082h-26.427v19.082h-4.464V5.833h35.139c7.921,0,13.825,3.384,13.825,11.809c0,5.256-2.448,8.568-7.272,10.513
	h-0.072C685.877,28.875,684.077,29.234,682.637,29.594z M680.62,24.914c4.608,0,9.505-2.016,9.505-7.272
	c0-5.473-4.608-7.417-9.433-7.417h-30.675v14.689H680.62z M680.692,14.257c2.232,0,5.4,0.576,5.4,3.384
	c0,2.664-3.456,3.312-5.473,3.312h-26.642v-6.696H680.692z"/>
<path d="M718.489,0h35.787c11.017,0,20.018,1.296,30.458,13.393c4.32,4.32,6.841,12.241,6.841,20.882
	c0,19.441-12.529,26.858-30.099,26.858h-35.571l-7.416-6.985V0z M754.276,52.348c16.633,0,28.514-6.984,28.514-25.274
	S770.909,1.8,754.276,1.8h-33.987v50.548H754.276z M754.276,5.833c13.969,0,24.554,5.688,24.554,21.242
	s-10.585,21.242-24.554,21.242h-30.027V5.833H754.276z M754.276,43.924c11.232,0,20.018-4.393,20.018-16.85
	s-8.785-16.85-20.018-16.85h-25.635v33.699H754.276z M754.276,14.257c8.568,0,16.129,3.024,16.129,12.817
	c0,9.865-7.488,12.817-16.129,12.817H732.53V14.257H754.276z M741.314,38.091h12.962c7.632,0,14.329-2.521,14.329-11.017
	c0-1.152-0.145-2.232-0.36-3.168c-2.088-0.576-4.393-0.864-6.769-0.864h-20.162V38.091z"/>
<path d="M794.449,27.074C794.449,7.561,806.906,0,824.619,0h7.849c10.514,0,19.586,1.224,27.65,11.017
	c5.761,5.688,6.841,7.489,7.849,8.785l-2.16,1.512l5.257,5.257v7.705c0,19.729-13.97,26.858-31.395,26.858h-7.849
	c-9.721,0-18.722-2.376-24.051-7.705C796.969,44.211,794.449,37.371,794.449,27.074z M832.468,1.8h-7.849
	c-16.633,0-28.37,7.057-28.37,25.274s11.737,25.274,28.37,25.274h7.849c16.562,0,29.811-6.696,29.811-25.274v-6.121h-32.906v12.241
	h18.722c-3.097,5.256-10.009,6.696-15.626,6.696h-7.849c-8.568,0-15.913-3.096-15.913-12.817c0-9.649,7.417-12.817,15.913-12.817
	h7.849c5.617,0,11.089,1.656,15.05,5.832l11.017-7.849C851.766,3.456,842.837,1.8,832.468,1.8z M832.468,10.225h-7.849
	c-11.161,0-19.873,4.464-19.873,16.85s8.641,16.85,19.873,16.85h7.849c10.081,0,18.506-4.177,20.811-14.689h-19.874v-4.32h24.914
	v2.16c0,15.914-11.881,21.242-25.851,21.242h-7.849c-13.969,0-24.481-5.76-24.481-21.242S810.65,5.833,824.619,5.833h7.849
	c7.057,0,14.329,0.648,19.946,5.4l-4.681,3.312C843.413,11.305,837.797,10.225,832.468,10.225z M827.571,23.474
	c-5.76,0.864-10.08,4.032-10.08,10.801c0,1.08,0.071,2.016,0.287,2.88c2.017,0.648,4.393,0.936,6.841,0.936h6.48l-3.528-3.097
	V23.474z"/>
<path d="M879.984,54.148V0h40.827c7.489,0,13.466,1.44,22.178,11.665c2.809,2.808,4.465,7.776,4.465,13.177
	c0,6.337-2.88,11.377-7.993,14.401c5.977,6.841,13.178,15.266,19.01,21.89h-20.737l-7.272-6.985l-10.514-12.169h-17.065v19.154
	H887.4L879.984,54.148z M920.812,1.8h-39.027v50.548h12.313V33.195h20.594l16.562,19.153h16.562l-18.146-20.81
	c6.048-2.664,9-7.272,9-13.897C938.669,6.696,931.396,1.8,920.812,1.8z M922.756,29.594c5.328,6.337,10.873,12.457,16.273,18.722
	h-5.832l-16.634-19.082h-26.427v19.082h-4.464V5.833h35.139c7.921,0,13.825,3.384,13.825,11.809c0,5.256-2.448,8.568-7.272,10.513
	h-0.072C925.996,28.875,924.196,29.234,922.756,29.594z M920.739,24.914c4.608,0,9.505-2.016,9.505-7.272
	c0-5.473-4.608-7.417-9.433-7.417h-30.675v14.689H920.739z M920.812,14.257c2.232,0,5.4,0.576,5.4,3.384
	c0,2.664-3.456,3.312-5.473,3.312h-26.642v-6.696H920.812z"/>
<path d="M958.032,54.148V0h60.197l6.984,7.417v15.625h-11.017l3.528,3.528v11.521l7.561,7.417v15.625h-59.838L958.032,54.148z
	 M1016.429,14.257V1.8h-56.597v50.548h56.669V39.891h-44.212v-6.696h36.651V20.954h-36.651v-6.696H1016.429z M1004.98,24.914v4.32
	h-36.651v14.689h44.14v4.392h-48.604V5.833h48.532v4.392h-44.067v14.689H1004.98z"/>
<path d="M1028.304,54.148V0h11.521l30.891,28.298V0h15.913l6.984,7.417v53.717h-11.232l-31.179-28.586v28.586h-15.481
	L1028.304,54.148z M1084.829,1.8h-12.313v30.603L1039.177,1.8h-9.072v50.548h12.313V21.674l33.411,30.674h9.001V1.8z
	 M1038.385,12.673v35.643h-4.248V5.833h3.672l38.668,35.643V5.833h4.32v42.483h-3.601L1038.385,12.673z"/>
<polygon points="524.625,86.635 503.412,100.423 22.319,86.635 503.412,72.846 "/>
<path fill="#FFFFFF" d="M501.599,96.528l-0.193-0.007L131.412,86.56l370.276-10.24l17.677,10.335L501.599,96.528z M171.968,86.611
	l329.134,7.904l14.187-7.901l-14.196-8.281L171.968,86.611z"/>
<rect x="534.412" y="71.635" transform="matrix(0.7071 -0.7071 0.7071 0.7071 99.6591 413.8678)" width="30" height="30"/>
<rect x="540.2" y="77.423" transform="matrix(0.7071 -0.7071 0.7071 0.7071 99.6591 413.8678)" fill="none" stroke="#FFFFFF" stroke-width="2" stroke-miterlimit="10" width="18.423" height="18.423"/>
<polygon points="575.319,86.635 596.532,100.423 1077.625,86.635 596.532,72.846 "/>
<path fill="#FFFFFF" d="M580.579,86.654l17.677-10.335l370.276,10.24l-369.993,9.962l-0.193,0.007L580.579,86.654z M598.854,78.333
	l-14.196,8.281l14.186,7.901l329.134-7.904L598.854,78.333z"/>
<path d="M185.216,125.521v6.996h25.52v6.644h-25.52v10.516h-7.744v-30.8h36.74v6.644H185.216z"/>
<path d="M256.364,134.276c0,2.229-0.426,4.334-1.276,6.314c-0.851,1.98-2.068,3.718-3.652,5.214s-3.505,2.684-5.764,3.564
	c-2.259,0.88-4.796,1.32-7.612,1.32c-2.816,0-5.354-0.44-7.612-1.32c-2.259-0.88-4.188-2.068-5.786-3.564
	c-1.599-1.496-2.823-3.234-3.674-5.214c-0.851-1.98-1.276-4.084-1.276-6.314v-15.4h7.744v15.4c0,1.32,0.212,2.574,0.638,3.762
	c0.425,1.188,1.07,2.237,1.936,3.146c0.865,0.91,1.965,1.628,3.3,2.156c1.334,0.528,2.911,0.792,4.73,0.792s3.388-0.264,4.708-0.792
	c1.32-0.528,2.413-1.247,3.278-2.156c0.865-0.909,1.51-1.958,1.936-3.146c0.425-1.188,0.638-2.442,0.638-3.762v-15.4h7.744V134.276z
	"/>
<path d="M262.744,149.676v-30.8h7.744v24.156h27.324v6.644H262.744z"/>
<path d="M303.75,149.676v-30.8h7.744v24.156h27.324v6.644H303.75z"/>
<path d="M403.455,139.732c0,1.525-0.411,2.963-1.232,4.312c-0.821,1.35-2.083,2.53-3.784,3.542c-1.701,1.012-3.828,1.804-6.38,2.376
	c-2.552,0.572-5.573,0.858-9.063,0.858c-1.79,0-3.623-0.147-5.5-0.44c-1.614-0.235-3.389-0.602-5.324-1.1
	c-1.937-0.499-3.813-1.217-5.632-2.156l2.684-6.16c1.613,0.821,3.234,1.459,4.862,1.914c1.628,0.455,3.102,0.785,4.422,0.99
	c1.555,0.235,3.051,0.367,4.488,0.396c4.399,0,7.678-0.396,9.834-1.188c2.155-0.792,3.233-1.833,3.233-3.124
	c0-0.821-0.337-1.422-1.012-1.804c-0.675-0.381-1.716-0.601-3.124-0.66c-0.323-0.029-0.932-0.066-1.826-0.11
	s-1.987-0.095-3.277-0.154c-1.292-0.058-2.729-0.117-4.313-0.176c-1.584-0.059-3.227-0.132-4.928-0.22
	c-1.702-0.088-3.264-0.322-4.687-0.704s-2.654-0.931-3.695-1.65c-1.042-0.718-1.855-1.598-2.442-2.64
	c-0.587-1.041-0.88-2.266-0.88-3.674c0-1.408,0.462-2.735,1.386-3.982c0.924-1.247,2.244-2.332,3.96-3.256
	c1.716-0.924,3.799-1.65,6.248-2.178c2.449-0.528,5.185-0.792,8.206-0.792c1.789,0,3.608,0.132,5.456,0.396
	c1.584,0.235,3.351,0.572,5.302,1.012s3.851,1.085,5.698,1.936l-2.332,6.072c-0.909-0.381-1.936-0.748-3.08-1.1
	c-1.144-0.352-2.34-0.66-3.586-0.924c-1.247-0.264-2.508-0.469-3.784-0.616c-1.275-0.146-2.501-0.22-3.674-0.22
	c-1.76,0-3.396,0.081-4.906,0.242s-2.823,0.403-3.938,0.726c-1.115,0.323-1.987,0.719-2.618,1.188
	c-0.631,0.47-0.946,0.998-0.946,1.584c0,0.763,0.323,1.335,0.969,1.716c0.645,0.381,1.598,0.602,2.859,0.66
	c1.408,0.059,3.389,0.147,5.94,0.264c2.552,0.118,5.572,0.25,9.063,0.396c1.761,0.088,3.337,0.323,4.73,0.704
	c1.393,0.381,2.581,0.924,3.563,1.628s1.738,1.57,2.267,2.596C403.19,137.239,403.455,138.412,403.455,139.732z"/>
<path d="M428.973,125.521v24.156h-7.7v-24.156h-13.86v-6.644h35.421v6.644H428.973z"/>
<path d="M482.742,149.676l-3.564-6.16h-21.691l-3.564,6.16h-8.228l17.688-30.8h9.9l17.688,30.8H482.742z M468.353,124.64
	l-7.04,12.232h14.08L468.353,124.64z"/>
<path d="M534.177,141.58c-0.764,1.32-1.746,2.53-2.948,3.63c-1.203,1.1-2.611,2.061-4.224,2.882
	c-1.614,0.822-3.418,1.459-5.412,1.914c-1.995,0.455-4.181,0.682-6.557,0.682c-3.373,0-6.387-0.44-9.042-1.32
	c-2.654-0.88-4.898-2.068-6.731-3.564c-1.834-1.496-3.234-3.234-4.202-5.214s-1.452-4.084-1.452-6.314
	c0-2.229,0.484-4.334,1.452-6.314s2.368-3.718,4.202-5.214c1.833-1.496,4.077-2.684,6.731-3.564c2.655-0.88,5.669-1.32,9.042-1.32
	c2.288,0,4.407,0.213,6.358,0.638c1.95,0.425,3.718,1.027,5.302,1.804c1.584,0.778,2.978,1.687,4.181,2.728
	c1.202,1.042,2.199,2.178,2.991,3.41l-6.951,3.52c-0.44-0.733-1.034-1.422-1.782-2.068c-0.748-0.645-1.644-1.203-2.685-1.672
	c-1.041-0.469-2.215-0.843-3.52-1.122c-1.306-0.278-2.706-0.418-4.202-0.418c-2.171,0-4.07,0.257-5.698,0.77
	c-1.628,0.514-2.978,1.21-4.048,2.09c-1.071,0.88-1.877,1.899-2.42,3.058c-0.543,1.159-0.813,2.384-0.813,3.674
	c0,1.261,0.271,2.472,0.813,3.63c0.543,1.159,1.349,2.178,2.42,3.058c1.07,0.88,2.42,1.584,4.048,2.112
	c1.628,0.528,3.527,0.792,5.698,0.792c1.584,0,3.051-0.154,4.4-0.462c1.349-0.308,2.552-0.726,3.607-1.254
	c1.057-0.528,1.965-1.144,2.729-1.848c0.762-0.704,1.334-1.452,1.716-2.244L534.177,141.58z"/>
<path d="M569.728,149.676l-13.992-14.256l-8.536,6.424v7.832h-7.744v-30.8h7.744v14.696l19.624-14.696h11.045l-16.588,12.408
	l18.039,18.392H569.728z"/>
<path d="M647.124,134.276c0,2.112-0.434,4.107-1.299,5.984c-0.865,1.877-2.127,3.513-3.783,4.906
	c-1.658,1.394-3.689,2.493-6.094,3.3c-2.406,0.807-5.164,1.21-8.273,1.21H606.38v-30.8h21.295c3.109,0,5.867,0.403,8.273,1.21
	c2.404,0.807,4.436,1.907,6.094,3.3c1.656,1.394,2.918,3.029,3.783,4.906C646.69,130.17,647.124,132.164,647.124,134.276z
	 M638.983,134.276c0-1.232-0.227-2.398-0.682-3.498s-1.16-2.053-2.111-2.86c-0.955-0.807-2.15-1.445-3.586-1.914
	c-1.439-0.469-3.141-0.704-5.105-0.704h-13.375v17.952h13.375c1.965,0,3.666-0.234,5.105-0.704c1.436-0.469,2.631-1.107,3.586-1.914
	c0.951-0.807,1.656-1.76,2.111-2.86S638.983,135.508,638.983,134.276z"/>
<path d="M652.403,149.676v-30.8h37.092v6.644h-29.348v5.544h25.828v5.984h-25.828v5.984h30.492v6.644H652.403z"/>
<path d="M732.396,139.732c0,1.525-0.412,2.963-1.232,4.312c-0.822,1.35-2.084,2.53-3.785,3.542
	c-1.701,1.012-3.828,1.804-6.379,2.376c-2.553,0.572-5.574,0.858-9.064,0.858c-1.789,0-3.623-0.147-5.5-0.44
	c-1.613-0.235-3.389-0.602-5.324-1.1s-3.813-1.217-5.631-2.156l2.684-6.16c1.613,0.821,3.234,1.459,4.861,1.914
	c1.629,0.455,3.102,0.785,4.422,0.99c1.555,0.235,3.051,0.367,4.488,0.396c4.4,0,7.678-0.396,9.834-1.188s3.234-1.833,3.234-3.124
	c0-0.821-0.338-1.422-1.012-1.804c-0.676-0.381-1.717-0.601-3.125-0.66c-0.322-0.029-0.932-0.066-1.826-0.11
	s-1.986-0.095-3.277-0.154c-1.291-0.058-2.729-0.117-4.313-0.176c-1.584-0.059-3.227-0.132-4.928-0.22
	c-1.701-0.088-3.264-0.322-4.686-0.704c-1.424-0.381-2.654-0.931-3.695-1.65c-1.043-0.718-1.855-1.598-2.443-2.64
	c-0.586-1.041-0.879-2.266-0.879-3.674c0-1.408,0.461-2.735,1.385-3.982c0.924-1.247,2.244-2.332,3.961-3.256
	c1.715-0.924,3.799-1.65,6.248-2.178c2.449-0.528,5.184-0.792,8.205-0.792c1.789,0,3.609,0.132,5.457,0.396
	c1.584,0.235,3.35,0.572,5.301,1.012s3.852,1.085,5.699,1.936l-2.332,6.072c-0.91-0.381-1.936-0.748-3.08-1.1
	c-1.145-0.352-2.34-0.66-3.586-0.924c-1.248-0.264-2.508-0.469-3.785-0.616c-1.275-0.146-2.5-0.22-3.674-0.22
	c-1.76,0-3.395,0.081-4.906,0.242c-1.51,0.161-2.822,0.403-3.938,0.726c-1.115,0.323-1.986,0.719-2.617,1.188
	c-0.631,0.47-0.947,0.998-0.947,1.584c0,0.763,0.324,1.335,0.969,1.716c0.645,0.381,1.598,0.602,2.859,0.66
	c1.408,0.059,3.389,0.147,5.941,0.264c2.551,0.118,5.572,0.25,9.063,0.396c1.762,0.088,3.338,0.323,4.73,0.704
	c1.393,0.381,2.582,0.924,3.564,1.628s1.738,1.57,2.266,2.596C732.13,137.239,732.396,138.412,732.396,139.732z"/>
<path d="M737.673,149.676v-30.8h7.744v30.8H737.673z"/>
<path d="M793.774,134.276c0,2.229-0.484,4.334-1.453,6.314c-0.967,1.98-2.369,3.718-4.201,5.214
	c-1.834,1.496-4.078,2.684-6.732,3.564s-5.67,1.32-9.043,1.32s-6.387-0.44-9.041-1.32s-4.898-2.068-6.732-3.564
	s-3.234-3.234-4.201-5.214c-0.969-1.98-1.453-4.084-1.453-6.314c0-2.229,0.484-4.334,1.453-6.314
	c0.967-1.98,2.367-3.718,4.201-5.214c1.834-1.496,4.078-2.684,6.732-3.564c2.654-0.88,5.668-1.32,9.041-1.32
	c2.26,0,4.342,0.213,6.248,0.638c1.908,0.425,3.645,1.005,5.215,1.738c1.568,0.733,2.955,1.606,4.158,2.618
	c1.203,1.012,2.215,2.12,3.035,3.322l-6.818,3.476c-0.939-1.466-2.393-2.691-4.357-3.674c-1.965-0.982-4.459-1.474-7.48-1.474
	c-2.229,0-4.188,0.264-5.873,0.792c-1.688,0.528-3.102,1.24-4.246,2.134c-1.145,0.896-2.002,1.929-2.574,3.102
	c-0.572,1.174-0.857,2.42-0.857,3.74c0,1.32,0.285,2.567,0.857,3.74c0.572,1.174,1.43,2.208,2.574,3.102
	c1.145,0.895,2.559,1.606,4.246,2.134c1.686,0.528,3.645,0.792,5.873,0.792c3.314,0,6.035-0.564,8.162-1.694
	c2.127-1.129,3.631-2.559,4.512-4.29H769.31v-5.984h24.289c0.057,0.352,0.102,0.711,0.131,1.078
	C793.759,133.521,793.774,133.896,793.774,134.276z"/>
<path d="M829.28,149.676l-22.264-21.516v21.516h-7.744v-30.8h7.744l22.264,21.516v-21.516h7.744v30.8H829.28z"/>
<path d="M844.065,149.676v-30.8h37.092v6.644H851.81v5.544h25.828v5.984H851.81v5.984h30.492v6.644H844.065z"/>
<path d="M925.993,128.996c0,1.35-0.176,2.538-0.527,3.564c-0.354,1.027-0.814,1.914-1.387,2.662s-1.219,1.372-1.936,1.87
	c-0.721,0.499-1.445,0.895-2.178,1.188l5.367,11.396h-8.271l-4.928-10.516h-16.148v10.516h-7.744v-30.8h27.676
	c0.82,0,1.811,0.147,2.971,0.44c1.158,0.293,2.266,0.814,3.32,1.562c1.057,0.748,1.951,1.775,2.686,3.08
	C925.626,125.264,925.993,126.943,925.993,128.996z M918.249,128.996c0-0.733-0.133-1.327-0.396-1.782
	c-0.264-0.455-0.586-0.807-0.967-1.056c-0.383-0.249-0.771-0.418-1.166-0.506c-0.396-0.088-0.713-0.132-0.947-0.132h-18.787v6.996
	h18.787c0.176,0,0.455-0.051,0.836-0.154c0.381-0.103,0.77-0.286,1.166-0.55c0.396-0.264,0.74-0.623,1.035-1.078
	C918.103,130.28,918.249,129.7,918.249,128.996z"/>
</svg>
