<?xml version="1.0" standalone="no"?>
<!DOCTYPE svg PUBLIC "-//W3C//DTD SVG 1.1//EN" "http://www.w3.org/Graphics/SVG/1.1/DTD/svg11.dtd" >
<svg xmlns="http://www.w3.org/2000/svg">
<metadata></metadata>
<defs>
<font id="porter_sans_blockblock" horiz-adv-x="2652" >
<font-face units-per-em="2048" ascent="1536" descent="-512" />
<missing-glyph horiz-adv-x="1230" />
<glyph horiz-adv-x="0" />
<glyph unicode="&#xd;" horiz-adv-x="1024" />
<glyph horiz-adv-x="0" />
<glyph horiz-adv-x="0" />
<glyph unicode=" "  horiz-adv-x="1230" />
<glyph unicode="&#x09;" horiz-adv-x="1230" />
<glyph unicode="&#xa0;" horiz-adv-x="1230" />
<glyph unicode="!" horiz-adv-x="755" d="M-66 -53v1540h455l199 -211v-1528h-443zM-14 -2h352v1438h-352v-1438zM98 113v123h127v-123h-127zM98 387v934h123q0 -229 2 -467t2 -467h-127z" />
<glyph unicode="&#x22;" horiz-adv-x="1222" d="M31 1200v324h897l198 -211v-326q0 -4 -11 -43t-26.5 -86t-28.5 -88t-16 -49h-296l-107 106l-35 -106h-297l-211 199q0 4 -4 20t-9 38.5t-10 47.5t-12 43q-6 23 -12 46.5t-10 41.5q-6 23 -10 43zM82 1202q0 -2 8 -35.5t19.5 -74.5t20.5 -77l11 -44h228q2 6 13 41 t23.5 73.5t22.5 71.5t10 35v281h-356v-271zM195 1212v150h131v-145q0 -4 -5.5 -21.5t-12.5 -40t-14 -44t-9 -30.5h-56q-2 8 -8 27.5t-12 41t-10 39t-4 23.5zM520 1202q0 -2 8.5 -35.5t19.5 -74.5t20.5 -77t11.5 -44h227q2 6 13 41t23.5 73.5t23 71.5t10.5 35v281h-357v-271z M633 1212v150h131v-145q0 -4 -5 -22.5t-12.5 -42.5t-14.5 -44.5t-9 -26.5h-55q-2 8 -7.5 28.5t-11.5 42.5t-11 40t-5 20z" />
<glyph unicode="#" horiz-adv-x="2371" d="M6 281v452h115v420h381q16 47 30.5 87t30.5 87l55 160h480l166 -184l10 24l55 160h479l197 -211l-61 -178l157 -156v-440h-112v-420h-394q-27 -78 -58.5 -168t-55.5 -166h-465l-185 184q-16 -47 -31.5 -95t-29.5 -89h-465l-213 199l66 192zM57 332h219l-112 -334h368 l115 334h340l-113 -334h369l115 334h381v350h-260l24 70h348v350h-227l113 334h-371q-29 -84 -57.5 -166t-55.5 -168h-340l113 334h-371q-29 -84 -57.5 -166t-54.5 -168h-371v-350h246l-19 -70h-342v-350zM172 446v121h305l103 297h-295v123h336q29 86 58.5 168t59.5 166 h131l-114 -334h575q29 86 58.5 168t60.5 166h131l-115 -334h271v-123h-312q-27 -76 -54.5 -148.5t-51.5 -148.5h307v-121h-346l-115 -333h-135l115 333h-576l-114 -333h-136l115 333h-262zM610 567h576l104 297h-577zM772 682l23 70h333q-4 -18 -11 -36t-13 -34h-332z" />
<glyph unicode="$" horiz-adv-x="2242" d="M8 401l305 209l-57 58q-78 55 -127 136t-49 195q0 115 57.5 198t145.5 140.5t192.5 90t200.5 47.5v161h448l199 -219q197 -84 346 -272l119 -119q90 -90 168 -215l-279 -166l152 -151q51 -51 80.5 -117t29.5 -148q0 -117 -60 -200.5t-151.5 -139t-200 -87t-204.5 -44.5 v-129h-436l-162 162q-199 61 -350 213q-82 74 -139.5 130t-99.5 101.5t-71.5 85t-56.5 80.5zM78 389q113 -176 278.5 -272.5t370.5 -112.5v-125h346v125q90 8 197.5 33.5t201 77t156 129.5t62.5 190q0 74 -29 134.5t-78 106.5t-112.5 79.5t-132 58.5t-137 40t-128.5 26v194 q96 -27 173 -87t132 -140l310 184q-106 172 -260 273.5t-355 123.5v158h-346v-158q-90 -8 -194.5 -34.5t-193.5 -76.5t-148.5 -128t-59.5 -189q0 -113 59.5 -189.5t148.5 -126.5t193.5 -77.5t194.5 -40.5v-209q-113 16 -201 80t-151 156zM238 360l106 76q45 -55 101.5 -93 t121 -61.5t134 -34.5t137.5 -14v431q-45 6 -105.5 16t-127 27.5t-131 44t-116 61.5t-83 81t-31.5 105q0 92 67.5 152.5t161.5 96.5t195.5 52.5t169.5 20.5v149h120v-149q80 -4 161 -19.5t155 -44t138.5 -74.5t115.5 -114l-115 -76q-41 51 -93 88t-111.5 61.5t-123 38 t-127.5 21.5v-426q45 -6 108.5 -16t132.5 -28.5t135.5 -45.5t120.5 -62.5t87 -82.5t33 -107q0 -61 -34 -108t-87 -82t-120.5 -59.5t-136.5 -39t-131 -22.5t-108 -10v-119h-120v119q-82 2 -166 16t-163 43t-148.5 75t-122.5 113zM373 999q0 -55 57 -94t135 -64.5t155 -39 t118 -19.5v418q-43 -4 -121 -12t-155 -29.5t-133 -60t-56 -99.5zM485 999q0 23 32 38.5t74 24.5t81 13t55 6v-168q-12 2 -52 9.5t-82 18.5t-75 26.5t-33 31.5zM958 233q29 2 76 6.5t101.5 12.5t109.5 22.5t100.5 36t73 52t27.5 71.5q0 39 -28.5 68.5t-74 53.5t-100.5 40 t-109.5 28.5t-101.5 19.5t-74 11v-422zM1073 354v168q14 -2 57.5 -9t88.5 -17.5t79.5 -26t34.5 -35.5q0 -23 -34.5 -37t-79.5 -23t-88.5 -13.5t-57.5 -6.5z" />
<glyph unicode="%" horiz-adv-x="2258" d="M-154 -53l576 569q-217 104 -327.5 250.5t-110.5 316.5q0 106 31.5 183t88 126.5t137.5 72t179 22.5q80 0 141.5 -11.5t120.5 -45t124.5 -97t156.5 -166.5q14 -16 26 -32.5t23 -36.5l395 389h649l191 -211l-568 -559q29 0 72 -26.5t92 -71t97.5 -102.5t87 -121.5 t63.5 -129t25 -123.5q0 -106 -31 -181t-86 -123t-134 -70.5t-175 -22.5q-84 0 -175.5 35t-176.5 90t-152.5 122.5t-100.5 135.5l-387 -381h-632zM-31 -2h506l1458 1438h-506zM35 1083q0 -98 28.5 -163.5t81 -106.5t125 -58.5t160.5 -17.5q86 0 155.5 19.5t120 60.5t78 107.5 t27.5 158.5q0 96 -27.5 164t-79 110t-124 60.5t-160.5 18.5q-174 0 -279.5 -83.5t-105.5 -269.5zM150 1083q0 68 21.5 114t58 73.5t88 39t112.5 11.5q117 0 191.5 -54.5t74.5 -183.5q0 -68 -20.5 -112.5t-57 -71.5t-88 -38t-110.5 -11t-108.5 12t-85.5 40t-56 71.5 t-20 109.5zM244 113l1229 1208h186l-1229 -1208h-186zM250 1083q0 -43 14.5 -70.5t39 -43t57 -21.5t69.5 -6q72 0 120 31t48 110q0 84 -52 114t-126 30q-72 0 -121 -32t-49 -112zM360 1083q0 23 27 27t43 4t35.5 -5t19.5 -26q0 -10 -7 -16t-18 -8t-22.5 -2h-17.5 q-14 0 -37 3t-23 23zM1092 348q0 -98 28.5 -164.5t79.5 -108.5t124 -60.5t161 -18.5q86 0 156.5 19.5t120.5 62.5t77 109.5t27 160.5q0 96 -29 163t-80 107.5t-122.5 58t-159.5 17.5q-86 0 -157 -19.5t-121 -60.5t-77.5 -106.5t-27.5 -159.5zM1204 348q0 68 21.5 113 t59.5 71.5t89 38t111 11.5q117 0 192.5 -52.5t75.5 -181.5q0 -68 -21.5 -114t-58.5 -73.5t-88 -38.5t-110 -11t-108.5 12t-85.5 41t-56.5 73.5t-20.5 110.5zM1305 348q0 -86 52 -115.5t128 -29.5q74 0 122 32.5t48 112.5q0 43 -14.5 69.5t-39 42t-57.5 21.5t-69 6 q-72 0 -121 -29.5t-49 -109.5zM1419 348q0 20 25.5 22.5t40.5 2.5q12 0 33.5 -3t21.5 -22q0 -25 -23.5 -29t-41.5 -4q-16 0 -36 5.5t-20 27.5z" />
<glyph unicode="&#x26;" horiz-adv-x="2582" d="M33 354q0 61 34.5 117.5t88 107t115 92.5t116.5 72l-12 15q-39 31 -76 68.5t-66.5 80.5t-47 90t-17.5 99q0 90 32.5 155.5t88 111.5t127 74.5t147.5 45t152 21.5t139 5q72 0 158 -8t174 -32.5t171 -67.5t146 -111q82 -82 128 -139t68.5 -101t28 -80t5.5 -73 q0 -53 -18.5 -102.5t-48.5 -94.5t-68.5 -86t-81.5 -73q14 2 48.5 19.5t78 41t89.5 49t80 45.5l834 -948h-768l-182 107q-150 -47 -314.5 -80t-322.5 -33q-72 0 -173.5 3t-208 18.5t-203.5 50t-161 98.5q-92 82 -147 143.5t-85 111.5t-39 95t-9 92zM84 354q0 -86 40 -146.5 t106.5 -100t149.5 -63.5t168 -35t166 -14t140 -3q158 0 325 34.5t316 82.5l191 -111h600l-416 266q39 12 77 30.5t70 43.5l-237 280q-129 -78 -264 -141l-357 223q51 29 108.5 71t104.5 94.5t79 111.5t32 125q0 76 -31 132t-82 96t-116.5 64.5t-136 39t-139.5 19.5t-124 5 q-59 0 -129 -5t-140.5 -19.5t-136 -39t-116.5 -64.5t-82 -98t-31 -136q0 -59 24.5 -111.5t63.5 -96.5t86 -81t92 -68q-47 -25 -114.5 -65.5t-132 -92t-109.5 -109t-45 -118.5zM197 354q0 29 32.5 65t82.5 73.5t111.5 74.5t119 70t105.5 57.5t71 36.5q-37 23 -102.5 65 t-128 92t-109.5 104.5t-47 103.5q0 53 28.5 92t74.5 66.5t103.5 45t116 27.5t110.5 13t89 3q55 0 143 -7t170 -31.5t141.5 -72.5t59.5 -130q0 -59 -53 -119.5t-126 -113t-149.5 -93.5t-124.5 -61l605 -348q66 25 128 57.5t126 64.5l88 -110q-59 -25 -117.5 -47.5 t-118.5 -42.5l293 -176h-201l-207 118q-74 -25 -156.5 -47t-167.5 -40.5t-170 -29t-163 -10.5q-39 0 -103.5 1t-137 9.5t-147.5 23t-134.5 43t-97 70.5t-37.5 103zM352 354q0 -37 31 -61.5t80 -39.5t107.5 -23.5t114.5 -12.5t101 -4h68q53 0 125 10t145.5 26.5t143 37 t118.5 41.5q-141 86 -285.5 166.5t-285.5 167.5q-18 -10 -59 -30t-93.5 -46.5t-106.5 -57t-100 -62.5t-75 -60.5t-29 -51.5zM467 1096q0 -41 42 -89.5t98.5 -94.5t114.5 -82.5t91 -55.5q25 14 66 33.5t88 44.5t95 52.5t86 58t62.5 62.5t24.5 65q0 41 -29.5 71.5t-82 51 t-123 30.5t-148.5 10q-31 0 -95.5 -7t-129 -24.5t-112.5 -48t-48 -77.5zM492 354q0 12 45 39t101 55.5t108.5 53t64.5 30.5q78 -45 157 -93t160 -85q-70 -27 -135 -34t-139 -7q-33 0 -78 1t-92 3t-91 7.5t-75 13.5q-4 2 -15 5t-11 11zM594 1090q0 18 30.5 30.5t72.5 20.5 t85 12t70 4q20 0 63 -3t87.5 -11t77 -20.5t32.5 -32.5q0 -14 -34 -41t-80 -57.5t-93 -58.5t-76 -44q-14 8 -52 35.5t-79 58.5t-72.5 60.5t-31.5 46.5z" />
<glyph unicode="'" horiz-adv-x="825" d="M-68 1200v324h459l199 -211v-326q0 -4 -11.5 -43t-26.5 -86t-28.5 -88t-15.5 -49h-297l-211 199q0 4 -4 20t-9 38.5t-10.5 47.5t-11.5 43q-6 23 -12 46.5t-10 41.5q-6 23 -11 43zM-16 1202q0 -2 8 -35.5t19.5 -74.5t20.5 -77l11 -44h227q2 6 13.5 41t23.5 73.5t22.5 71.5 t10.5 35v281h-356v-271zM96 1212v150h131v-145q0 -4 -5 -22.5t-12 -41.5t-14.5 -43t-9.5 -29h-55q-2 10 -8 28.5t-12.5 39t-10.5 38t-4 25.5z" />
<glyph unicode="(" horiz-adv-x="1124" d="M-55 717q0 141 44 284.5t127 268.5t204.5 219t275.5 135l201 -213l254 -389q-98 -23 -180.5 -73t-142.5 -119.5t-93 -151.5t-33 -166q0 -123 61.5 -206t188.5 -105l199 -199l-254 -389q-53 14 -104.5 36.5t-110 62.5t-128 100.5t-157.5 150.5q-86 70 -151.5 157 t-109.5 185t-67.5 204t-23.5 208zM-4 717q0 -133 39 -268.5t112.5 -252t180 -203.5t243.5 -124l201 307q-92 20 -169 72.5t-133 126.5t-87 162t-31 180t31 180t87 162t133 126t169 72l-201 308q-137 -37 -243.5 -124t-180 -204t-112.5 -252t-39 -268zM109 717 q0 115 26.5 224.5t78.5 202.5t132 169t189 123l81 -115q-92 -35 -161.5 -98.5t-117.5 -144.5t-72.5 -174t-24.5 -187t24.5 -187.5t72.5 -174.5t117.5 -144.5t161.5 -97.5l-81 -115q-109 47 -189 123t-132 169t-78.5 202.5t-26.5 224.5z" />
<glyph unicode=")" horiz-adv-x="1124" d="M-90 211q100 23 183 73t143.5 118.5t94.5 149.5t34 165q0 51 -24 102t-59.5 93t-76.5 72t-78 38l-217 201l262 401q129 -35 234.5 -106.5t187.5 -169.5l145 -146q68 -68 121 -150.5t89 -171.5t54.5 -182.5t18.5 -185.5q0 -139 -43 -282.5t-125 -266.5t-202 -216 t-271 -134l-209 197zM-4 176l201 -307q137 37 243.5 124t180 203.5t112.5 252t39 268.5t-39 268t-112.5 252t-180 204t-243.5 124l-201 -308q92 -20 169 -72t133 -126t87 -162t31 -180t-31 -180t-87 -162t-133 -126t-169 -73zM152 113q92 35 161.5 98t117.5 144t72.5 174.5 t24.5 187.5t-24.5 187t-72.5 174t-117.5 144.5t-161.5 98.5l81 115q106 -47 187.5 -123t133.5 -169t78.5 -202.5t26.5 -224.5t-26.5 -224.5t-78.5 -202.5t-133 -169t-188 -123z" />
<glyph unicode="*" horiz-adv-x="1087" d="M-66 1130l3 121l159 299l84 52h330l88 -64l199 -207l149 -280l4 -131q-12 -25 -39.5 -74t-61.5 -100.5t-71 -95.5t-67 -58h-326l-250 231l-41 35zM-14 1147l151 -258l60 -47h297q25 12 56.5 52t61 88t55 93t38.5 70l-9 100l-137 258l-65 47h-297l-64 -39l-145 -270z M139 1288l29 49l141 -96v201h70v-207l141 102l29 -49l-148 -98l144 -90l-31 -47l-135 104v-207h-70v209l-137 -104l-29 47l142 88z" />
<glyph unicode="+" horiz-adv-x="1779" d="M-31 492v450h449v447h450l199 -211v-236h246l198 -211v-438h-444v-447h-438l-211 199v248h-238zM20 543h449v-447h348v447h445v348h-445v446h-348v-446h-449v-348zM135 655v123h447v445h123v-445h442v-123h-442v-444h-123v444h-447z" />
<glyph unicode="," horiz-adv-x="708" d="M-172 -324q66 160 91.5 320t4.5 342h465l199 -211v-363l-164 -286h-381zM-94 -272h287l145 254v305h-356q8 -66 7 -138.5t-11.5 -146.5t-29 -144.5t-42.5 -129.5zM53 -158q33 70 43 162t0 168h129v-160l-98 -170h-74z" />
<glyph unicode="-" horiz-adv-x="1804" d="M-31 492v450h1344l198 -211v-438h-1331zM20 543h1242v348h-1242v-348zM135 655v123h1012v-123h-1012z" />
<glyph unicode="." horiz-adv-x="808" d="M-66 -96v444h455l199 -211v-432h-443zM-14 -45h352v342h-352v-342zM98 68v116h127v-116h-127z" />
<glyph unicode="/" horiz-adv-x="1652" d="M-250 -53l1258 1540h585l193 -211l-1247 -1528h-572zM-143 -2h456l1174 1438h-457zM98 113q248 305 494 605t493 603h160q-248 -305 -493.5 -605t-493.5 -603h-160z" />
<glyph unicode="0" horiz-adv-x="2224" d="M16 717q0 209 63.5 355.5t177.5 238.5t272.5 134t347.5 42q246 0 434 -55.5t334 -192.5q100 -98 162.5 -189.5t98.5 -179.5t49 -176t13 -182q0 -207 -63.5 -352.5t-176 -236.5t-270.5 -133t-344 -42q-109 0 -210 10.5t-202.5 45t-206 102t-219.5 182.5 q-121 90 -190.5 249t-69.5 380zM68 717q0 -205 63.5 -343t176 -221t266 -119t335.5 -36q178 0 326.5 40t256 126t167 222t59.5 331q0 205 -63.5 343t-176 221t-267 119t-334.5 36q-178 0 -327 -40t-256.5 -126t-166.5 -222t-59 -331zM182 717q0 176 56.5 292.5t155 185.5 t230.5 97.5t285 28.5q150 0 277 -33t220 -104.5t145.5 -186t52.5 -280.5q0 -176 -56.5 -293t-155 -185.5t-230.5 -97t-285 -28.5q-150 0 -277 32.5t-220 104.5t-145.5 186.5t-52.5 280.5zM311 717q0 -141 47.5 -234.5t128 -147.5t190 -75.5t232.5 -21.5q119 0 222.5 25.5 t180.5 81.5t120 147.5t43 224.5q0 141 -47.5 233t-129 147.5t-190.5 77t-231 21.5q-119 0 -222.5 -25.5t-179.5 -82t-120 -148.5t-44 -223zM426 717q0 111 40 182.5t107.5 111.5t154.5 55t181 15q90 0 172 -18.5t143.5 -61.5t98.5 -112.5t37 -171.5q0 -113 -40 -183.5 t-107.5 -110.5t-154.5 -55.5t-181 -15.5q-92 0 -174 18.5t-143.5 61.5t-97.5 112.5t-36 172.5zM676 512q0 -23 1 -43t5 -39q86 -27 195 -27q84 0 161.5 12.5t138 47.5t96.5 96.5t36 157.5q0 49 -13 90q-84 25 -182 24q-86 0 -165 -13t-139 -49t-97 -97.5t-37 -159.5z" />
<glyph unicode="1" horiz-adv-x="1003" d="M-90 838v495l338 154h289l198 -211v-1528h-438l-211 199v731zM-39 915l176 76v-993h348v1438h-225l-299 -136v-385zM72 1087v142l207 92h94v-1208h-123v1052z" />
<glyph unicode="2" horiz-adv-x="2019" d="M-10 1042q72 106 165 192.5t199.5 147t222 92t234.5 31.5q88 0 182 -13t183.5 -43t167 -75t135.5 -108q86 -86 140 -156t85 -129t42 -112.5t11 -106.5q0 -111 -34.5 -208t-94.5 -183l180 -178v-445h-1601l-211 199v428q68 4 165 22.5t205.5 47t220 69.5t209 92t172 111.5 t111.5 132.5q-12 2 -23.5 2h-19.5q-139 0 -251.5 -68.5t-204.5 -201.5l-377 258zM47 -2h1512v354h-459q86 47 160.5 110.5t129 142.5t86 169t31.5 193q0 141 -65.5 235t-166.5 149.5t-225 79t-239 23.5q-113 0 -220.5 -27.5t-204.5 -79t-181 -125t-146 -165.5l303 -209 q86 125 202 189.5t267 64.5q33 0 88.5 -4t107.5 -19.5t91 -43t39 -77.5q0 -94 -61.5 -176t-158.5 -150.5t-220 -121.5t-246 -92t-235.5 -61.5t-188.5 -28.5v-330zM160 113v112q88 14 203.5 44t239.5 74t244 104.5t214 137.5t152.5 170t58.5 203q0 86 -48 136.5t-119 78 t-151 36t-143 8.5q-135 0 -261 -54.5t-212 -158.5l-119 79q61 74 135 124t156 79t171 41t181 12q84 0 177.5 -20.5t172 -64.5t130 -115.5t51.5 -171.5q0 -150 -75 -263.5t-188.5 -201.5t-246.5 -151.5t-250 -112.5h813v-125h-1286z" />
<glyph unicode="3" horiz-adv-x="2105" d="M-10 1032q145 225 360 348t459 123q90 0 185.5 -12t186.5 -41t171 -75t139 -113q86 -86 140.5 -154t84 -125t40.5 -109.5t11 -103.5q0 -61 -26.5 -117.5t-67.5 -101.5l8 -6q57 -57 96.5 -132t39.5 -153q0 -137 -63.5 -236.5t-163 -164t-220.5 -96t-235 -31.5 q-115 0 -219.5 12t-202 43t-185.5 83t-168 132q-80 74 -137 129t-99 101.5t-74 86t-58 82.5l385 250l168 -178q59 -43 124.5 -66.5t137.5 -23.5l-127 115v204q-29 -25 -53.5 -56.5t-46.5 -65.5l-375 249zM61 1047l301 -201q88 135 208 195.5t278 60.5q27 0 80 -4t105 -18.5 t91 -39t39 -65.5q0 -35 -58 -51.5t-134 -22.5t-145.5 -6h-94.5v-346q16 0 58 1t95.5 0t111 -4t105.5 -12.5t78.5 -25.5t30.5 -43q0 -51 -50 -79t-116.5 -40t-134 -13t-100.5 -1q-137 0 -253 68.5t-191 181.5l-302 -195q80 -123 174.5 -202t202 -124t230.5 -62t260 -17 q106 0 220 28.5t206 88t151.5 150.5t59.5 216q0 41 -16.5 82t-43 78t-60.5 65.5t-69 46.5q29 12 54.5 39t44 60.5t30 69.5t11.5 69q0 94 -32 166.5t-85 126t-124 88.5t-149.5 56.5t-160.5 30.5t-158 9q-229 0 -426 -106.5t-322 -298.5zM219 1075q61 82 136 134.5t159 81 t176 38.5t189 10q80 0 172 -20.5t170.5 -64.5t130 -112.5t51.5 -166.5q0 -55 -28.5 -98t-71.5 -74t-95.5 -48.5t-99.5 -19.5q53 -6 114.5 -24.5t112.5 -52t85 -82t34 -111.5q0 -123 -66.5 -196.5t-165 -112.5t-211 -50.5t-202.5 -11.5q-84 0 -167 15.5t-159.5 48t-143.5 83 t-118 117.5l113 72q57 -72 119.5 -114t133 -63.5t147.5 -27.5t161 -6q55 0 129 11.5t140.5 39t112.5 75.5t46 120q0 49 -26.5 83t-68.5 56.5t-94.5 33.5t-105.5 16t-102 6.5t-82 1.5v120q47 0 119.5 4.5t142.5 24.5t119 58t49 106q0 78 -51.5 125t-125 72.5t-153.5 33.5 t-135 8q-135 0 -261 -53t-214 -160q-29 18 -57.5 38t-57.5 36z" />
<glyph unicode="4" horiz-adv-x="2060" d="M-12 264v346l1059 877h323l199 -211v-590l178 -178v-442h-178v-318h-443l-211 199v119h-716zM39 315h928v-317h352v317h178v353h-178v768h-254l-1026 -848v-273zM154 430v107q242 197 478 391t476 393h100v-764h174v-127h-174v-317h-129v317h-925zM338 557h741v608 q-186 -154 -369.5 -305t-371.5 -303zM657 668q78 63 155 128.5t155 131.5v-260h-310z" />
<glyph unicode="5" horiz-adv-x="2125" d="M-33 369l158 100l-119 106l197 912h1310l199 -211v-424h-203q88 -88 144.5 -158.5t88.5 -135t43 -126t11 -131.5q0 -131 -66.5 -236.5t-169 -180t-225.5 -114.5t-237 -40q-115 0 -220.5 8t-202.5 33.5t-187.5 74.5t-170.5 129q-80 74 -135 128.5t-94 99.5t-66.5 84 t-54.5 82zM41 352q80 -125 172 -198.5t198.5 -112.5t226.5 -50t255 -11q106 0 222 36.5t211 105t157.5 166t62.5 218.5q0 166 -55 269.5t-151.5 160.5t-225.5 77.5t-276 20.5q-86 0 -173 -12t-169 -41q8 31 13 60.5t13 60.5h940v334h-1216l-176 -815l288 -37 q35 41 96.5 64.5t130 34.5t136 14t117.5 3q53 0 115.5 -4t114.5 -24.5t87 -60.5t35 -109q0 -61 -49 -95t-116 -50.5t-136.5 -20.5t-110.5 -4q-137 0 -246.5 48t-187.5 167zM184 336l113 74q45 -57 99.5 -94t115.5 -58.5t128.5 -31t137.5 -9.5q68 0 158 10.5t172 40t139.5 86 t57.5 148.5q0 104 -40 165.5t-106.5 94.5t-150.5 43t-170 10q-55 0 -126 -3t-143.5 -14.5t-139.5 -34t-112 -61.5l-110 17l131 602h1010v-104h-914q-27 -98 -49.5 -194.5t-36.5 -195.5q47 29 109.5 46.5t129 27.5t132 14.5t119.5 4.5q115 0 222 -14.5t190 -58.5t133.5 -125 t50.5 -216q0 -98 -53.5 -174t-133.5 -129t-175 -81t-179 -28h-121q-84 0 -166 11.5t-158.5 39t-143 74.5t-120.5 117zM668 391q47 -8 110 -8q29 0 75 2t95 8t94 19.5t70 36.5q-18 2 -36 2h-34q-35 0 -82 -2.5t-97 -8.5t-101 -17t-94 -32z" />
<glyph unicode="6" horiz-adv-x="2121" d="M27 653q0 203 64.5 360.5t182 267.5t282.5 167t364 57q104 0 205.5 -13t199.5 -47t193.5 -89.5t189.5 -141.5l197 -204l-246 -209l96 -96q66 -66 102.5 -164.5t36.5 -239.5q0 -131 -66.5 -236.5t-169 -179t-225 -113.5t-237.5 -40q-111 0 -225.5 10t-220 35.5t-198.5 71 t-163 114.5q-111 96 -180.5 179t-110.5 164t-56 165t-15 182zM78 653q0 -137 37 -241.5t100.5 -178t150.5 -123t188 -78t213 -39.5t224 -11q106 0 222 36.5t211.5 104t158 165t62.5 218.5q0 168 -57.5 272.5t-156 161.5t-227.5 77.5t-270 20.5q-49 0 -102.5 -5t-105.5 -17 t-101.5 -32.5t-87.5 -51.5q76 86 172 136t213 50q123 0 240.5 -19.5t219.5 -94.5l250 213q-154 139 -332 188t-380 49q-188 0 -343 -54t-265.5 -156.5t-172 -251t-61.5 -339.5zM190 653q0 164 53.5 292t149.5 216t230.5 134t296.5 46q72 0 142.5 -4t140 -16t135 -38 t124.5 -69l-92 -75q-37 29 -94 47t-120.5 28.5t-126 13.5t-107.5 3q-113 0 -215.5 -35t-182.5 -101.5t-130 -159.5t-58 -210q55 47 129 85t153.5 63.5t160.5 39t155 13.5q117 0 224.5 -15.5t190.5 -59.5t132 -127t49 -218q0 -98 -52.5 -174t-132 -129t-175 -81t-179.5 -28 h-121q-131 0 -253.5 33t-217 101.5t-152 174t-57.5 250.5zM330 553q0 -106 68.5 -172t167 -101.5t206 -48t184.5 -12.5q61 0 138 16.5t147 50t117 88t47 130.5q0 104 -41 165.5t-107.5 93.5t-150.5 42t-170 10q-31 0 -87 -7t-124 -21.5t-137.5 -37t-127 -51t-94 -65.5 t-36.5 -80zM440 547q37 49 97.5 79.5t130 47t140.5 21.5t128 5q53 0 115.5 -4t116 -23.5t88 -59.5t34.5 -109q0 -49 -39 -82t-92 -53.5t-109.5 -28.5t-93.5 -8h-86q-47 0 -119.5 10t-140 35.5t-118 66.5t-52.5 103zM778 389q51 -6 92 -6h86q23 0 58 3t70.5 11.5t69.5 20.5 t56 31q-18 2 -35.5 2h-33.5q-39 0 -85 -2.5t-94.5 -9.5t-95.5 -19t-88 -31z" />
<glyph unicode="7" horiz-adv-x="2052" d="M31 1030v457h1589l199 -211v-336q-123 -102 -233.5 -235.5t-194.5 -288t-133.5 -324.5t-49.5 -344h-446l-211 199q0 248 54 467t159 417h-522zM82 1081h907q-178 -233 -282.5 -510.5t-104.5 -572.5h348q4 160 55.5 323.5t135.5 317.5t194.5 289t233.5 237v271h-1487v-355 zM193 1196v125h1265v-104q-109 -98 -213 -228.5t-190 -276t-143.5 -299t-69.5 -300.5h-125q8 152 54 298t118 284.5t163 264t189 236.5h-1048z" />
<glyph unicode="8" horiz-adv-x="2072" d="M-2 451q0 88 39 160.5t104 129.5q-45 47 -70.5 108.5t-25.5 127.5q0 139 64.5 239.5t166 164t223.5 93t238 29.5q94 0 203 -5t223.5 -39t232 -108.5t232.5 -213.5q57 -57 98 -156.5t41 -208.5q0 -66 -25.5 -127t-72.5 -108l31 -29q53 -53 84 -118.5t31 -143.5 q0 -137 -63.5 -234.5t-164 -160t-221.5 -91t-233 -28.5h-242q-72 0 -150.5 10t-154.5 32.5t-144.5 58.5t-119.5 87q-98 88 -161 157.5t-99.5 132t-50 120t-13.5 121.5zM49 451q0 -125 59.5 -214.5t152.5 -145.5t206 -82.5t219 -26.5h242q106 0 219 26.5t206 82.5 t152.5 145.5t59.5 214.5q0 92 -50.5 166.5t-123.5 123.5q59 39 93 101.5t34 134.5q0 104 -36 180t-96.5 129t-139.5 85t-166 50.5t-176 24.5t-167 6q-109 0 -221.5 -26.5t-206.5 -85t-153.5 -148.5t-59.5 -215q0 -72 34 -134.5t93 -101.5q-72 -49 -123 -123.5t-51 -166.5z M162 451q0 45 31.5 96t78.5 95t101.5 73.5t97.5 29.5q-41 0 -87 19.5t-85 52.5t-63.5 74t-24.5 86q0 98 52 167.5t130 112.5t171 62.5t173 19.5h140q80 0 173 -19.5t170.5 -62.5t130 -112.5t52.5 -167.5q0 -47 -24.5 -89t-62.5 -74t-84 -50.5t-89 -18.5q49 0 103 -27.5 t100.5 -70.5t76 -95t29.5 -101q0 -98 -51 -167t-130 -111t-171 -60.5t-172 -18.5h-242q-80 0 -172 18.5t-171 60.5t-130 110.5t-51 167.5zM291 459q0 -72 46 -119t112.5 -73.5t140.5 -37t129 -10.5h176q55 0 129 10.5t140.5 37t112.5 73.5t46 119q0 68 -49 108.5t-116.5 61 t-140.5 27t-122 6.5h-176q-49 0 -122 -6.5t-140.5 -27t-116.5 -61.5t-49 -108zM342 977q0 -63 47 -102t112.5 -59.5t135.5 -27t115 -6.5h110q45 0 115 6.5t135.5 27t112.5 59t47 102.5q0 84 -57.5 132t-137.5 71.5t-167 28.5t-144 5q-53 0 -127 -10t-139.5 -36.5 t-111.5 -72.5t-46 -118zM406 459q0 33 40.5 51t95 26.5t105.5 10.5t72 2h176q20 0 71.5 -2t105.5 -10.5t95 -26.5t41 -51q0 -41 -37.5 -66.5t-90 -39t-104.5 -17.5t-81 -4h-176q-29 0 -81 4t-104.5 17.5t-90 39t-37.5 66.5zM416 195q2 0 4 -2l-4 6v-4zM455 977 q0 41 37.5 65.5t90 38t103.5 17.5t80 4h82q27 0 79 -4t104 -17.5t90 -38t38 -65.5q0 -29 -40 -45.5t-90 -24.5t-99 -10t-68 -2h-110q-18 0 -67.5 2t-99.5 10t-90 24.5t-40 45.5z" />
<glyph unicode="9" horiz-adv-x="2154" d="M14 221l248 213l-33 35q-94 66 -148 175.5t-54 285.5q0 131 61.5 237.5t160.5 182t226 115.5t256 40q135 0 258 -9t241 -49t233.5 -121t236.5 -224q82 -82 138 -220.5t56 -303.5q0 -201 -64.5 -358t-181 -265.5t-280.5 -165.5t-360 -57q-104 0 -205 13t-198 45t-191.5 87 t-186.5 139q-66 63 -104.5 101.5t-60 59t-32 29.5t-16.5 15zM78 930q0 -168 57.5 -272.5t155.5 -162t227 -78t270 -20.5q49 0 102.5 5.5t106 17.5t101.5 32.5t88 51.5q-76 -86 -172 -136.5t-213 -50.5q-123 0 -241 19.5t-220 95.5l-250 -213q154 -139 332 -188t381 -49 q186 0 341.5 54t266.5 156.5t172.5 251t61.5 338.5q0 137 -37 241.5t-100.5 178.5t-150.5 123t-188.5 78t-213 40t-224.5 11q-106 0 -222 -37t-211 -104.5t-157.5 -164.5t-62.5 -218zM193 930q0 98 52 174t132 129t175 80.5t179 27.5h121q131 0 254 -32.5t217 -101 t151.5 -174t57.5 -251.5q0 -164 -53.5 -292t-149.5 -216t-230 -134t-296 -46q-72 0 -142.5 4t-140 16.5t-135.5 38t-125 68.5l92 76q37 -29 94.5 -47.5t121 -28.5t125 -13t108.5 -3q113 0 215 34.5t182 101.5t130 160t58 210q-55 -47 -128.5 -85t-153.5 -63.5t-161 -39 t-155 -13.5q-117 0 -224 15.5t-190 59.5t-132 127t-49 218zM317 932q0 -104 41 -165.5t107.5 -93.5t150.5 -42t170 -10q31 0 87.5 7t124 21.5t137 37t127 51t94.5 65.5t37 80q0 106 -69 171.5t-167 101.5t-205.5 48.5t-185.5 12.5q-61 0 -138 -16.5t-146.5 -50.5t-117 -88 t-47.5 -130zM432 932q0 49 39 82t92 53t109.5 28.5t93.5 8.5h86q47 0 119.5 -10.5t140.5 -36t117 -66.5t53 -102q-37 -49 -97.5 -80t-130 -47.5t-140.5 -21.5t-128 -5q-53 0 -115.5 4t-115.5 23.5t-88 58.5t-35 111zM717 786h69q39 0 87.5 2.5t96.5 8.5t95 18t86 31 q-27 4 -51.5 6t-42.5 2h-86q-25 0 -58.5 -3t-69.5 -11.5t-70 -21.5t-56 -32z" />
<glyph unicode=":" horiz-adv-x="708" d="M-66 -63v446h455l199 -211v-434h-443zM-66 750v446h455l199 -211v-434h-443zM-14 -12h352v344h-352v-344zM-14 801h352v344h-352v-344zM98 102v117h127v-117h-127zM98 913v117h127v-117h-127z" />
<glyph unicode=";" horiz-adv-x="708" d="M-172 -289q66 160 91.5 319.5t4.5 342.5h465l199 -211v-363l-164 -286h-381zM-94 -238h287l145 254v306h-356q8 -66 7 -138.5t-11.5 -146.5t-29 -144.5t-42.5 -130.5zM-72 741v445h459l199 -211v-432h-447zM-20 793h356v342h-356v-342zM53 -125q33 70 43 163t0 169h129 v-160l-98 -172h-74zM94 901v121h129v-121h-129z" />
<glyph unicode="&#x3c;" horiz-adv-x="1355" d="M-68 719l629 768h584l192 -211l-622 -764q96 -123 191 -237.5t194 -233.5l241 -293h-575l-207 199zM-2 719l586 -721h456q-147 180 -295.5 357t-291.5 362l585 719h-454zM143 719l494 602h160l-492 -604q127 -150 248 -300.5t244 -303.5h-160z" />
<glyph unicode="=" horiz-adv-x="1894" d="M-31 213v451h119l-119 106v451h1344l198 -211v-439h-118l118 -118v-439h-1331zM20 264h1242v348h-1242v-348zM20 821h1242v348h-1242v-348zM135 377v123h1012v-123h-1012zM135 934v123h1012v-123h-1012z" />
<glyph unicode="&#x3e;" horiz-adv-x="1355" d="M-162 -53l627 770q-223 274 -379 466.5t-248 303.5h586l203 -211l622 -762l-620 -766h-574zM-55 -2h456l586 721l-586 717h-454q147 -180 291.5 -359.5t291.5 -359.5zM188 113q125 150 246 301t244 303q-125 152 -246 301t-244 303h158l496 -602q-123 -154 -247 -303.5 t-249 -302.5h-158z" />
<glyph unicode="?" horiz-adv-x="2084" d="M-16 1028q59 119 148 208t196.5 148.5t229.5 90t249 30.5q88 0 182 -7t194.5 -41t206 -105.5t214.5 -202.5q57 -57 100 -155.5t43 -202.5q0 -90 -34 -163t-86 -130.5t-115.5 -103.5t-125.5 -85q-41 -25 -77.5 -49t-65.5 -49t-46 -51.5t-17 -53.5v-356h-449l-211 199v362 q0 121 35 205t89 143.5t120.5 99.5t130.5 75q18 10 37.5 19t36.5 19q-117 -18 -214.5 -88.5t-179.5 -181.5l-378 225zM53 1049l305 -183q92 125 211 194.5t275 69.5q29 0 76 -5t92 -19t77.5 -40t32.5 -67q0 -61 -41 -101t-102 -76t-132 -73.5t-132.5 -93t-102.5 -138.5 t-41 -206v-311h359q0 78 -1 155.5t1 155.5q0 57 43 103.5t105.5 88.5t136 87t136 101.5t104.5 130t42 173.5q0 141 -66.5 230.5t-168 139.5t-223 69.5t-232.5 19.5q-109 0 -219.5 -27.5t-211 -80t-184 -127t-139.5 -170.5zM211 1087q57 78 134 130.5t164 85t181 46t187 13.5 q82 0 171 -19.5t163.5 -62.5t122.5 -111.5t48 -167.5q0 -74 -36.5 -131t-94 -105t-125 -90t-129 -88t-107.5 -99.5t-61 -122.5h-137q8 84 53.5 145t106.5 111.5t131 92.5t128 86t97 95t39 121q0 74 -49 118t-117.5 68.5t-144.5 32.5t-129 8q-139 0 -261 -65.5t-208 -171.5z M686 113v120h129v-120h-129z" />
<glyph unicode="@" horiz-adv-x="2580" d="M39 717q0 209 63.5 355.5t177 238.5t271.5 134t346 42h262q115 0 228.5 -16.5t225 -62.5t224.5 -129t225 -214q96 -96 138.5 -243.5t42.5 -321.5q0 -68 -7.5 -138.5t-31 -131t-65.5 -106.5t-111 -65l34 -34q-84 -88 -167 -142.5t-168 -84t-175 -40t-188 -10.5h-262 q-104 0 -204.5 14.5t-192 43t-169.5 70.5t-135 99q-115 98 -186.5 185.5t-110 174.5t-52 179t-13.5 203zM90 717q0 -195 59.5 -331t167 -222t255 -126t325.5 -40h262q94 0 179 8t162 31.5t148.5 68t139.5 115.5l-125 84q27 -8 61 -8q88 0 141.5 37t82 96t37 131t8.5 144 q0 186 -65.5 323t-179.5 228.5t-265.5 135.5t-323.5 44h-262q-178 0 -325.5 -40t-255 -126t-167 -222.5t-59.5 -330.5zM205 717q0 166 52 280.5t144.5 186t219.5 104.5t276 33h262q141 0 271.5 -39t229.5 -115.5t158.5 -192.5t59.5 -272q0 -39 -4 -89t-19.5 -95t-46 -76.5 t-84.5 -31.5q-47 0 -78.5 3t-55 15t-40 38t-30.5 69q-41 -82 -104.5 -126t-139.5 -64.5t-158 -24t-160 -3.5q-100 0 -189 21.5t-155.5 69t-105.5 125t-39 190.5q0 98 27.5 165.5t74.5 113t110.5 71t136.5 37.5t148.5 15t149.5 3q76 0 145.5 -15t127 -50t99.5 -89t64 -132 q6 -20 12.5 -68.5t16.5 -98.5t26.5 -88t45.5 -38q51 0 68.5 39t17.5 80q0 10 -1 22t-3 23v-4q-20 266 -167 391t-409 125h-262q-121 0 -224.5 -32t-181 -94.5t-121.5 -157.5t-44 -224t44 -224.5t121.5 -158t181 -94t224.5 -31.5h262q84 0 167 13.5t157 53.5l112 -59 q-82 -66 -160.5 -85t-179.5 -19h-358q-150 0 -276.5 32.5t-219 104.5t-144.5 186.5t-52 280.5zM600 723q0 -86 26.5 -144.5t74 -92t114 -48t143.5 -14.5h158q133 0 215 83t82 216q0 66 -21.5 122t-60.5 97t-93 63.5t-122 22.5h-158q-72 0 -136 -18.5t-113.5 -56.5t-79 -95 t-29.5 -135zM711 723q0 47 23.5 83t59 60.5t80 36.5t84.5 12h158q86 0 136.5 -54t50.5 -138q0 -78 -54.5 -131t-132.5 -53h-158q-41 0 -85 11t-79.5 33.5t-59 57.5t-23.5 82zM985 590h131q41 0 73 20.5t48 55.5h-74q-49 0 -99 -19.5t-79 -56.5z" />
<glyph unicode="A" horiz-adv-x="2590" d="M-78 -53l1098 1540h268l203 -211l1065 -1528h-545l-207 199l-84 119h-809q-25 -37 -54.5 -78t-59 -83t-58 -82t-53.5 -75h-547zM23 -2h434l225 317h926l223 -317h434l-1003 1438h-215zM238 113q217 305 433 604t431 604h98l846 -1208h-154l-221 317h-1046 q-57 -78 -111.5 -159t-112.5 -158h-163zM713 557h874l-432 612zM932 668l219 307l215 -307h-434z" />
<glyph unicode="B" horiz-adv-x="2281" d="M14 -53v1540h1166q184 0 333.5 -61.5t278.5 -215.5q43 -51 78 -125.5t49 -155.5q7 -42 7 -83q0 -38 -6 -76q-13 -78 -67 -133q53 -20 90 -68.5t61 -105.5t35 -116.5t11 -102.5q0 -133 -42 -226.5t-115.5 -154t-176 -88t-223.5 -27.5h-1268zM66 -2h1222q111 0 205 25.5 t161.5 80t106.5 139.5t39 206q0 102 -56 182t-169 127q25 20 45 48t34.5 58.5t23 62t8.5 58.5q0 117 -37 202t-103.5 140t-160 82t-205.5 27h-1114v-1438zM180 113v1208h1000q84 0 155.5 -18.5t123.5 -59.5t82 -104.5t32 -153.5q0 -49 -21.5 -93t-52.5 -77t-65.5 -52.5 t-59.5 -21.5q55 -4 110.5 -27.5t99.5 -62.5t73 -90t29 -112q0 -92 -31 -157t-85 -105t-127 -57t-155 -17h-1108zM303 238h985q49 0 98.5 11t87 36.5t61.5 65.5t24 98q0 51 -20.5 90t-55.5 64.5t-79 38.5t-91 13h-1010v-417zM303 778h875q49 0 96 11.5t85 36t60.5 64.5 t22.5 95q0 57 -21.5 97t-58.5 66t-84 37t-98 11h-877v-418zM418 352v191h895q20 0 43.5 -5.5t43 -16.5t32 -29.5t12.5 -42.5q0 -31 -15.5 -49.5t-39 -29t-51 -14.5t-50.5 -4h-870zM418 891v190h762q23 0 49 -4t48.5 -15t37 -29.5t14.5 -47.5t-15.5 -46t-39 -28.5t-50 -15.5 t-46.5 -4h-760z" />
<glyph unicode="C" horiz-adv-x="2414" d="M20 717q0 209 63.5 355.5t178.5 238.5t273.5 134t347.5 42h223q117 0 224.5 -9.5t214 -50.5t217 -122.5t237.5 -227.5q20 -23 44.5 -53.5t47.5 -65t45.5 -70.5t40.5 -67l-399 -235l-156 155q-72 47 -149.5 68.5t-161.5 21.5h-224q-82 0 -155.5 -16t-130 -53t-89 -98.5 t-32.5 -151.5q0 -49 8 -82q43 -14 92 -20.5t103 -6.5h223q135 0 255 57.5t212 190.5l409 -241l195 -207q-82 -139 -177 -227.5t-203.5 -138.5t-229.5 -69.5t-256 -19.5h-224q-104 0 -205.5 13.5t-194.5 41t-172 69.5t-136 99q-117 102 -186.5 191.5t-108.5 176.5t-51.5 179 t-12.5 199zM72 717q0 -195 60.5 -331t168 -222t256 -126t326.5 -40h223q129 0 244.5 16.5t217 60.5t187.5 119.5t156 196.5l-326 193q-86 -123 -209 -177.5t-270 -54.5h-223q-92 0 -174 18.5t-143.5 60.5t-98.5 111.5t-37 174.5q0 102 37 171.5t99.5 112.5t144.5 61.5 t172 18.5h223q147 0 270 -54t209 -177l326 192q-70 119 -156 196t-187.5 121t-217 60.5t-244.5 16.5h-223q-178 0 -326.5 -40t-256 -126t-168 -222.5t-60.5 -330.5zM186 717q0 166 52.5 280.5t145.5 187t221 104.5t278 32h223q90 0 181 -8t175 -33t158 -73t131 -128 l-131 -82q-98 111 -234.5 155t-279.5 44h-223q-121 0 -224.5 -25.5t-179.5 -82t-120 -148.5t-44 -223q0 -133 44 -224.5t120 -148.5t179.5 -81.5t224.5 -24.5h223q143 0 279.5 44t234.5 154l131 -82q-57 -80 -131 -128t-158 -72.5t-175 -32.5t-181 -8h-223q-150 0 -278 31.5 t-221 104.5t-145.5 187.5t-52.5 280.5z" />
<glyph unicode="D" horiz-adv-x="2377" d="M18 -53v1540h1018q117 0 225.5 -11.5t214 -50.5t211 -114.5t216.5 -204.5q92 -92 143 -251t51 -343q0 -207 -63.5 -352.5t-177 -236.5t-271.5 -133t-344 -42h-1012zM70 -2h966q178 0 326.5 39t256 125t168 223t60.5 332t-60.5 332t-168 223t-256 125t-326.5 39h-966 v-1438zM182 113v1208h854q150 0 277 -32t221 -104.5t147.5 -187t53.5 -280.5t-53.5 -280.5t-147.5 -187.5t-221 -104.5t-277 -31.5h-854zM307 238h729q119 0 223.5 24.5t181.5 81.5t121 148.5t44 224.5t-44 224t-121 148.5t-181.5 82t-223.5 24.5h-729v-958zM418 352v729 h618q92 0 175 -17t145.5 -60t100.5 -113t38 -174t-37 -175t-100.5 -113t-146.5 -59.5t-175 -17.5h-618zM668 403h368q82 0 156 15.5t130 51.5t89 96.5t33 150.5q0 45 -10 90q-87 24 -185 24h-8h-573v-428z" />
<glyph unicode="E" horiz-adv-x="2189" d="M2 -53v1540h1712l199 -211v-445h-314l101 -100v-328l215 -210v-445h-1702zM53 -2h1612v354h-1257v191h1042v348h-1042v190h1255v355h-1610v-1438zM168 113v1208h1380v-125h-1253v-418h1042v-123h-1042v-417h1255v-125h-1382z" />
<glyph unicode="F" horiz-adv-x="2164" d="M2 -53v1540h1712l199 -211v-445h-314l101 -100v-438h-1043v-545h-444zM53 -2h355v545h1042v348h-1042v190h1255v355h-1610v-1438zM168 113v1208h1380v-125h-1253v-418h1042v-123h-1042v-542h-127z" />
<glyph unicode="G" horiz-adv-x="2557" d="M27 717q0 209 63.5 355.5t177 238.5t271 134t346.5 42h223q113 0 217.5 -10.5t202.5 -42t189 -94t177 -166.5q61 -61 100.5 -102.5t63 -70t36.5 -46t24 -31.5l-62 -43l150 -150v-219q0 -211 -70 -356.5t-190.5 -236.5t-283.5 -131t-349 -40h-223q-209 0 -389 52t-295 167 q-115 98 -189 186.5t-116 177.5t-58 182t-16 204zM78 717q0 -195 59.5 -331t167 -222t255 -126t325.5 -40h223q176 0 330.5 38t269.5 123t181.5 222t66.5 336v174h-936v-348h532q-33 -55 -84 -92t-111.5 -58.5t-125 -31t-123.5 -9.5h-223q-92 0 -174 18.5t-143.5 60.5 t-98.5 111.5t-37 174.5q0 102 37 171.5t99.5 112.5t144.5 61.5t172 18.5h223q121 0 231.5 -37.5t196.5 -128.5l313 224q-72 94 -155.5 151.5t-177 90t-195.5 44t-213 11.5h-223q-178 0 -325.5 -40t-255 -126t-167 -222.5t-59.5 -330.5zM188 717q0 166 53.5 280.5t146.5 186 t220 104.5t277 33h223q76 0 151.5 -5t147.5 -21.5t140.5 -46t127.5 -81.5l-133 -94q-92 70 -205.5 96.5t-228.5 26.5h-223q-119 0 -222.5 -25.5t-179 -82t-120 -148.5t-44.5 -223q0 -133 43.5 -224.5t120 -147.5t179 -81.5t223.5 -25.5h223q106 0 203.5 23.5t175.5 73.5 t133 129t80 191h-565v123h708v-61q0 -170 -59.5 -286t-159.5 -186.5t-233.5 -101t-282.5 -30.5h-223q-150 0 -277 32.5t-220 104.5t-146.5 186.5t-53.5 280.5zM682 512q0 -49 8 -82q43 -14 92 -20.5t103 -6.5h184l-100 89v327q-61 -10 -113.5 -31.5t-91.5 -58.5t-60.5 -91 t-21.5 -126z" />
<glyph unicode="H" horiz-adv-x="2183" d="M4 -53v1540h457l198 -211v-334h613v545h459l198 -211v-1528h-446l-211 199v346h-613v-545h-444zM55 -2h355v545h913v-545h356v1438h-356v-545h-913v545h-355v-1438zM170 113v1208h125v-543h1143v543h127v-1208h-127v542h-1143v-542h-125z" />
<glyph unicode="I" horiz-adv-x="964" d="M-12 -53v1540h450l199 -211v-1528h-438zM39 -2h348v1438h-348v-1438zM152 113v1208h122v-1208h-122z" />
<glyph unicode="J" horiz-adv-x="2215" d="M-66 412l404 239q14 -23 33 -45q16 -20 37.5 -44.5t50.5 -47.5q74 -57 165 -84t183 -27q88 0 173 10.5t151.5 42t107.5 94t41 167.5v770h457l198 -211v-764q0 -207 -62.5 -352.5t-176 -236.5t-270 -133t-343.5 -42q-115 0 -222 7t-206.5 32t-190.5 71t-171 126 q-86 78 -142.5 137t-95.5 108.5t-66.5 92.5t-54.5 90zM4 391q76 -135 170 -213t204.5 -118t235.5 -51t265 -11q178 0 325.5 40t255 126t167 222t59.5 331v719h-355v-719q0 -123 -45 -194.5t-118.5 -109.5t-168 -49.5t-192.5 -11.5q-147 0 -271 54.5t-210 177.5zM160 354 l135 82q55 -68 122.5 -106.5t143.5 -59t156 -26.5t162 -6q119 0 222 25.5t180 81.5t120 147.5t43 224.5v604h131v-604q0 -186 -61.5 -304t-166 -184.5t-244.5 -91t-296 -24.5q-90 0 -181 8t-175 32.5t-159 72.5t-132 128z" />
<glyph unicode="K" horiz-adv-x="2402" d="M8 -53v1540h455l199 -211v-100q70 35 136 68.5t138 70.5t152.5 79t179.5 93h694l258 -268l-1264 -658l181 -94q98 -51 203.5 -106.5t212 -110.5t212 -110.5t201.5 -104.5l479 -285l-970 -2l-813 418v-418h-443zM59 -2h353v446l870 -446l637 2q-344 178 -682 357.5 t-682 359.5l1382 719h-655q-217 -115 -434 -224.5t-436 -222.5v447h-353v-1438zM172 113v1208h125v-520l1018 520h209l-1196 -604q297 -154 590.5 -302.5t590.5 -301.5h-194l-1018 518v-518h-125z" />
<glyph unicode="L" horiz-adv-x="2091" d="M-2 -53v1540h453l198 -211v-873h957l198 -210v-445h-1595zM49 -2h1505v354h-1155v1084h-350v-1438zM162 113v1208h123v-1083h1157v-125h-1280z" />
<glyph unicode="M" horiz-adv-x="2496" d="M25 -53v1540h356l203 -211l444 -666l594 877h358l199 -211v-1528h-442l-211 199v76l-185 -275h-270l-207 199l-186 278v-477h-442zM76 -2h352v690l461 -690h225l463 692v-692h352v1438h-282l-648 -959l-643 959h-280v-1438zM188 113v1208h107l706 -1049 q174 266 351.5 526.5t357.5 522.5h107v-1208h-127v950l-637 -950h-101l-637 948v-948h-127z" />
<glyph unicode="N" horiz-adv-x="2162" d="M-2 -53v1540h328l878 -805v805h453l198 -211v-1528h-319l-887 813v-813h-440zM49 -2h350v872l951 -872h256v1438h-351v-871l-948 871h-258v-1438zM164 113v1208h104l1100 -1014v1014h123v-1208h-102l-1104 1013v-1013h-121z" />
<glyph unicode="O" horiz-adv-x="2392" d="M33 717q0 209 63.5 355.5t178 238.5t273.5 134t347 42h225q119 0 224.5 -13.5t208 -55.5t204 -118.5t209.5 -205.5q92 -92 151.5 -244t59.5 -338q0 -207 -62.5 -352.5t-176 -236.5t-270.5 -133t-343 -42h-225q-209 0 -389.5 47t-296.5 162q-117 102 -190.5 193.5 t-115.5 181.5t-58.5 184.5t-16.5 200.5zM84 717q0 -195 60.5 -331t168 -222t256 -126t326.5 -40h225q178 0 325.5 40t255 126t167 222t59.5 331t-59.5 331t-167 222t-255 126t-325.5 40h-225q-178 0 -326.5 -40t-256 -126t-168 -222t-60.5 -331zM199 717q0 166 52 280.5 t145 187t221 104.5t278 32h225q150 0 277 -33t220 -104.5t145.5 -186t52.5 -280.5t-52.5 -280.5t-145.5 -186.5t-220 -104.5t-277 -32.5h-225q-150 0 -278 31.5t-221 104.5t-145 187.5t-52 280.5zM328 717q0 -133 44 -224.5t119.5 -148.5t179 -81.5t224.5 -24.5h225 q119 0 222.5 25.5t180 81.5t120 147.5t43.5 224.5q0 131 -44.5 223t-120 148.5t-179 82t-222.5 25.5h-225q-121 0 -224.5 -25.5t-179 -82t-119.5 -148.5t-44 -223zM442 717q0 102 37 171.5t99.5 112.5t144.5 61.5t172 18.5h225q90 0 172 -18.5t143.5 -61.5t98.5 -112.5 t37 -171.5t-36 -172t-97.5 -113t-143.5 -61.5t-174 -18.5h-225q-92 0 -174 18.5t-143.5 60.5t-98.5 111.5t-37 174.5zM692 512q0 -49 8 -82q43 -14 92.5 -20.5t102.5 -6.5h225q80 0 153 15.5t128 52.5t87 97.5t32 148.5q0 49 -13 90q-81 24 -174 24h-8h-225q-82 0 -156 -16 t-130 -53t-89 -98.5t-33 -151.5z" />
<glyph unicode="P" horiz-adv-x="2146" d="M4 -53v1540h1165q80 0 157 -11.5t156 -47t163 -101t176 -174.5q59 -59 81.5 -157.5t22.5 -215.5q0 -166 -76.5 -274.5t-226.5 -173.5q-41 -14 -97.5 -23.5t-124 -15.5t-142 -8t-150.5 -2h-219.5t-229.5 2v-537h-444zM55 -2h355v545q49 0 127.5 -2t171 -5.5t192.5 -3.5 t193.5 4.5t173.5 14.5t133 29v2q135 57 204.5 155t69.5 248q0 117 -36.5 202t-103.5 140t-160 82t-206 27h-1114v-1438zM170 113v1208h999q84 0 156 -19.5t124 -59.5t82 -104.5t30 -152.5q0 -113 -52.5 -185.5t-154.5 -113.5v-2q-47 -16 -131 -24.5t-187.5 -11.5t-216 -3 t-215 3t-184.5 5t-125 2v-542h-125zM295 778h872q49 0 97.5 11.5t85 36t59.5 64.5t23 95q0 57 -21.5 97t-57.5 66t-84 37t-100 11h-874v-418zM410 891v190h759q25 0 50.5 -4t47 -14t36 -28.5t14.5 -49.5q0 -29 -15.5 -47t-38 -28.5t-49 -14.5t-47.5 -4h-757z" />
<glyph unicode="Q" horiz-adv-x="2600" d="M35 717q0 209 63.5 355.5t178 238.5t273.5 134t347 42q145 0 287.5 -5t281 -41t271.5 -117t258 -234q86 -86 134 -232.5t48 -345.5q0 -72 -16.5 -141.5t-40.5 -137.5l485 -284l209 -199h-795l-207 111q-109 -51 -238.5 -82t-248.5 -31q-133 0 -265 4t-254 24.5 t-227.5 63.5t-181.5 119q-111 94 -181.5 180t-110 175t-55 187.5t-15.5 215.5zM86 717q0 -170 40 -290t111.5 -200t169 -125t212 -68.5t242.5 -29.5t259 -6q119 0 249 32.5t237 86.5l219 -117h590l-588 346q47 86 73.5 179t26.5 192q0 170 -40 289.5t-110.5 199.5t-167 126 t-211 68.5t-242.5 29t-259 6.5q-178 0 -326.5 -40t-256 -126t-168 -222t-60.5 -331zM201 717q0 166 52 280.5t145.5 187t221.5 104.5t277 32h223q150 0 277 -33t220 -104.5t146.5 -186t53.5 -280.5q0 -113 -46.5 -216.5t-107.5 -195.5l356 -192h-172l-243 133 q-104 -59 -234.5 -96t-249.5 -37h-223q-150 0 -277.5 31.5t-221 104.5t-145.5 187.5t-52 280.5zM330 717q0 -133 44 -224.5t120.5 -147.5t180 -81.5t222.5 -25.5h223q29 0 74 6t93 16t92 21.5t73 21.5l-358 193l190 -2l258 -140q68 72 106 167t38 196q0 131 -43.5 223 t-120 148.5t-180 82t-222.5 25.5h-223q-119 0 -222.5 -25.5t-180 -83t-120.5 -148.5t-44 -222zM442 717q0 104 37 174t99.5 111.5t144.5 60t174 18.5h223q90 0 172 -18.5t144.5 -61.5t99.5 -112.5t37 -171.5q0 -59 -15.5 -114.5t-44.5 -106.5l-204 110h-594l430 -254h-248 q-92 0 -174 18.5t-144.5 60.5t-99.5 111.5t-37 174.5zM721 657h600l172 -92q29 76 29 152q0 47 -13 90q-83 24 -176 24h-8h-223q-127 0 -230.5 -38.5t-150.5 -135.5z" />
<glyph unicode="R" horiz-adv-x="2365" d="M25 -53v1540h1161q80 0 153.5 -11.5t148.5 -46t155.5 -100t173.5 -174.5q59 -59 93 -158.5t34 -216.5q0 -135 -58.5 -239.5t-169.5 -169.5q63 -74 133 -154t139.5 -161t138 -159.5t130.5 -148.5h-590l-207 199l-299 346h-485v-545h-440zM76 -2h350v545h586l471 -545h471 l-516 592q256 112 256 395q0 117 -37 202t-104.5 140t-161 82t-205.5 27h-1110v-1438zM186 113v1208h1000q84 0 156.5 -18.5t125 -59.5t82 -104.5t29.5 -153.5q0 -113 -51 -185.5t-156 -113.5h-2q-29 -16 -63.5 -24.5t-65.5 -16.5q115 -135 230.5 -266t232.5 -266h-166 l-473 542h-752v-542h-127zM313 778h871q49 0 97 11.5t87 36t62.5 64.5t23.5 95q0 57 -22.5 98t-60.5 66t-86 36t-99 11h-873v-418zM426 891v190h760q25 0 51.5 -4t49 -14t37.5 -28.5t15 -49.5q0 -29 -16 -47t-39.5 -28.5t-51.5 -14.5t-48 -4h-758z" />
<glyph unicode="S" horiz-adv-x="2342" d="M8 373l371 229l-98 100q-72 53 -113 126t-41 171q0 94 40 167t105.5 126.5t149.5 91t172 60t174 33t156 10.5q121 0 243.5 -7t240.5 -38t226.5 -94.5t202.5 -178.5q63 -63 100 -105t58.5 -70.5t32 -46t20.5 -32.5l-262 -176q10 -10 23.5 -17t38 -27.5t64.5 -58.5 t107 -108q49 -51 78 -131t29 -168q0 -92 -45 -163.5t-117 -125t-164 -90t-186 -59t-183.5 -33t-154.5 -10.5h-246t-244.5 20.5t-232.5 67.5t-207 144q-80 74 -134 130t-92 102t-63.5 85t-48.5 76zM82 356q82 -133 194.5 -205.5t243.5 -106.5t271.5 -40t279.5 -6q61 0 145 9 t174.5 29.5t177.5 54.5t155.5 82t110.5 112.5t42 148.5q0 100 -44 171t-114.5 119t-162 77.5t-187.5 46t-188.5 25t-163.5 14.5q-25 2 -94.5 9t-143 20.5t-131 34t-57.5 48.5q0 33 53 49.5t122 24.5t133.5 9t86.5 1q66 0 133.5 -5t132 -21.5t123 -47t107.5 -79.5l299 200 q-78 106 -176.5 167t-209 91.5t-230.5 39t-240 8.5q-63 0 -144.5 -9.5t-164.5 -30t-161.5 -53t-140 -82t-98.5 -114t-37 -148.5q0 -96 47 -165.5t125 -118.5t176.5 -80t199.5 -50.5t196.5 -30.5t167.5 -19q20 -2 80.5 -8.5t126 -17.5t116.5 -29t51 -46q0 -23 -32.5 -38 t-84 -24.5t-112.5 -13.5t-119.5 -6t-104.5 -2h-65q-78 0 -153.5 7.5t-147.5 29t-135.5 60t-114.5 104.5zM252 313l123 80q66 -63 145.5 -96t165.5 -46t176 -14t174 -1q31 0 83 2t112.5 9t122 20.5t112 36t82 54t31.5 76.5t-34 79t-87 58.5t-119.5 42t-132 26.5t-122 13 t-91.5 4h2q-49 2 -120.5 10.5t-149.5 25t-155.5 42t-139 62.5t-100.5 87t-39 115q0 72 38 123.5t98 87t136 57t154 34t148.5 16.5t119.5 4q80 0 163 -7t163 -25.5t155.5 -50.5t139.5 -81l-109 -78q-59 41 -124.5 64.5t-135.5 36t-141.5 15.5t-139.5 3q-47 0 -127.5 -6 t-159.5 -25.5t-136.5 -59.5t-57.5 -108q0 -66 55.5 -105.5t145.5 -63t205.5 -37t236.5 -27.5t236.5 -33.5t206 -55.5t145.5 -94.5t55 -148.5q0 -63 -37.5 -112.5t-99 -85t-138.5 -59t-154 -38t-146.5 -20.5t-114.5 -6h-153q-84 0 -176.5 6t-180.5 27.5t-168 60.5t-141 106z " />
<glyph unicode="T" horiz-adv-x="2228" d="M14 1030v457h1825l199 -211v-445h-688v-1083h-439l-211 199v884h-475zM66 1081h686v-1083h348v1083h688v355h-1722v-355zM178 1196v125h1497v-125h-688v-1083h-123v1083h-686z" />
<glyph unicode="U" horiz-adv-x="2488" d="M27 717v770h460l199 -211v-764q0 -23 1 -43t5 -39q86 -27 195 -27h225q80 0 152.5 15.5t128 52.5t88 96.5t32.5 149.5v770h459l199 -211v-764q0 -207 -63.5 -352.5t-176 -236.5t-270.5 -133t-344 -42h-225q-104 0 -201.5 10.5t-185 34t-161 62.5t-130.5 96 q-117 100 -192 191t-118 183.5t-60 187.5t-17 204zM78 717q0 -195 59.5 -331t167 -222t256 -126t326.5 -40h225q178 0 326.5 40t256 126t167 222t59.5 331v719h-356v-719q0 -104 -37 -174t-98.5 -112t-143.5 -60.5t-174 -18.5h-225q-92 0 -174 18.5t-143.5 61.5t-97.5 112.5 t-36 172.5v719h-358v-719zM190 717v604h132v-604q0 -133 43 -224.5t119.5 -147.5t179 -81.5t223.5 -25.5h225q119 0 222.5 25.5t180 81.5t120.5 147.5t44 224.5v604h129v-604q0 -166 -53 -280.5t-146 -187.5t-220 -104.5t-277 -31.5h-225q-150 0 -278 31.5t-221 104.5 t-145.5 187.5t-52.5 280.5z" />
<glyph unicode="V" horiz-adv-x="2568" d="M-119 1487h602l162 -211l490 -694q63 88 127.5 181t139.5 200.5t163 235.5l198 288h557l195 -211l-1065 -1528h-264l-207 199zM-18 1436l1024 -1438h215l1003 1438h-434q-170 -246 -338 -490t-342 -487l-694 977h-434zM197 1321h163l754 -1057q186 264 369.5 527.5 t367.5 529.5h154l-846 -1208h-98q-217 305 -432 604t-432 604z" />
<glyph unicode="W" horiz-adv-x="2899" d="M-33 1487h494l201 -211l161 -393q66 152 131.5 301t130.5 303h318l201 -211l165 -393l25 57q12 29 27.5 62.5t25.5 62.5q45 104 90 214t86 208h496l195 -211l-631 -1528h-316l-208 199l-177 409q-66 -154 -131 -306t-127 -302h-311l-209 199zM43 1436l594 -1438h254 q86 209 173 412.5t177 410.5l352 -823h256l594 1438h-387q-84 -205 -169 -407t-171 -406l-348 813h-250l-350 -818l-340 818h-385zM211 1321h143l414 -999q102 254 210.5 500.5t213.5 498.5h100l424 -997q104 250 209 497.5t207 499.5h143q-125 -305 -249.5 -604 t-249.5 -604h-105l-428 999l-432 -999h-100q-123 305 -248 605t-252 603z" />
<glyph unicode="X" horiz-adv-x="2701" d="M-43 1487h702l543 -479l539 479h688l188 -211l-860 -744l694 -585l189 -199h-680l-553 488q-135 -123 -272.5 -245t-272.5 -243h-672l-221 199l887 764zM106 -2h535l561 504l572 -504h538l-852 721l832 717h-533q-137 -127 -276.5 -249t-278.5 -249l-563 498h-535 l842 -713zM414 1321h184l606 -535q147 135 297 267.5t299 267.5h182l-698 -600l717 -608h-184l-615 540l-604 -540h-180l704 608q-178 152 -353 301t-355 299z" />
<glyph unicode="Y" horiz-adv-x="2400" d="M-195 1487h646l526 -524l520 524h643l191 -211l-924 -924v-604h-444l-211 199v604q-111 109 -231 227.5t-242.5 240.5t-243.5 240.5t-230 227.5zM-70 1436l873 -865v-573h354v577l858 861h-495l-541 -545l-549 545h-500zM207 1321h180l594 -584l584 584h178l-701 -698 v-510h-127v508z" />
<glyph unicode="Z" horiz-adv-x="2119" d="M2 -53v340l590 544h-318l-211 199v457h1541l198 -211v-334l-585 -539h450l199 -210v-445h-1653zM53 -2h1563v354h-946l882 815v269h-1437v-355h825l-887 -817v-266zM166 113v102l1059 981h-996v125h1209v-102l-1055 -981h1120v-125h-1337z" />
<glyph unicode="[" horiz-adv-x="976" d="M-88 -180v1794h700l199 -211v-436h-246v-699h47l199 -211v-436h-688zM-37 -129h598v346h-246v1000h246v346h-598v-1692zM78 -16v1466h368v-119h-241v-1229h241v-118h-368z" />
<glyph unicode="\" horiz-adv-x="1808" d="M-250 1487h619l1417 -1739h-635zM-143 1436l1173 -1438h457l-1174 1438h-456zM98 1321h160q250 -303 494.5 -603t492.5 -605h-160q-250 303 -494.5 603t-492.5 605z" />
<glyph unicode="]" horiz-adv-x="1054" d="M-88 -180v448h248v699h-37l-211 198v449h700l199 -211v-1782h-688zM-37 -129h598v1692h-598v-346h248v-1000h-248v-346zM78 -16v118h244v1229h-244v119h368v-1466h-368z" />
<glyph unicode="^" horiz-adv-x="1380" d="M-422 1442l817 549h180l816 -549l186 -199h-690l-195 152q-45 -39 -95 -73t-103 -79h-693zM-256 1493h528q53 43 106.5 83t106.5 81l211 -164h529l-664 446h-151zM121 1606l319 221h90l320 -221h-115l-250 180l-252 -180h-112z" />
<glyph unicode="_" horiz-adv-x="2324" d="M6 88h1761l199 -211v-440h-1749l-211 198v453zM57 37v-350h1659v350h-1659zM170 -76h1434v-125h-1434v125z" />
<glyph unicode="`" horiz-adv-x="995" d="M-270 1925h594l575 -442l188 -199h-563l-571 430zM-117 1874l453 -340h416l-443 340h-426zM111 1800h143l258 -192h-141q-66 47 -130.5 96t-129.5 96z" />
<glyph unicode="a" horiz-adv-x="2590" d="M-78 -53l1098 1540h268l203 -211l1065 -1528h-545l-207 199l-84 119h-809q-25 -37 -54.5 -78t-59 -83t-58 -82t-53.5 -75h-547zM23 -2h434l225 317h926l223 -317h434l-1003 1438h-215zM238 113q217 305 433 604t431 604h98l846 -1208h-154l-221 317h-1046 q-57 -78 -111.5 -159t-112.5 -158h-163zM713 557h874l-432 612zM932 668l219 307l215 -307h-434z" />
<glyph unicode="b" horiz-adv-x="2281" d="M14 -53v1540h1166q184 0 333.5 -61.5t278.5 -215.5q43 -51 78 -125.5t49 -155.5q7 -42 7 -83q0 -38 -6 -76q-13 -78 -67 -133q53 -20 90 -68.5t61 -105.5t35 -116.5t11 -102.5q0 -133 -42 -226.5t-115.5 -154t-176 -88t-223.5 -27.5h-1268zM66 -2h1222q111 0 205 25.5 t161.5 80t106.5 139.5t39 206q0 102 -56 182t-169 127q25 20 45 48t34.5 58.5t23 62t8.5 58.5q0 117 -37 202t-103.5 140t-160 82t-205.5 27h-1114v-1438zM180 113v1208h1000q84 0 155.5 -18.5t123.5 -59.5t82 -104.5t32 -153.5q0 -49 -21.5 -93t-52.5 -77t-65.5 -52.5 t-59.5 -21.5q55 -4 110.5 -27.5t99.5 -62.5t73 -90t29 -112q0 -92 -31 -157t-85 -105t-127 -57t-155 -17h-1108zM303 238h985q49 0 98.5 11t87 36.5t61.5 65.5t24 98q0 51 -20.5 90t-55.5 64.5t-79 38.5t-91 13h-1010v-417zM303 778h875q49 0 96 11.5t85 36t60.5 64.5 t22.5 95q0 57 -21.5 97t-58.5 66t-84 37t-98 11h-877v-418zM418 352v191h895q20 0 43.5 -5.5t43 -16.5t32 -29.5t12.5 -42.5q0 -31 -15.5 -49.5t-39 -29t-51 -14.5t-50.5 -4h-870zM418 891v190h762q23 0 49 -4t48.5 -15t37 -29.5t14.5 -47.5t-15.5 -46t-39 -28.5t-50 -15.5 t-46.5 -4h-760z" />
<glyph unicode="c" horiz-adv-x="2422" d="M20 717q0 209 63.5 355.5t178.5 238.5t273.5 134t347.5 42h223q117 0 224.5 -9.5t214 -50.5t217 -122.5t237.5 -227.5q20 -23 44.5 -53.5t47.5 -65t45.5 -70.5t40.5 -67l-399 -235l-156 155q-72 47 -149.5 68.5t-161.5 21.5h-224q-82 0 -155.5 -16t-130 -53t-89 -98.5 t-32.5 -151.5q0 -49 8 -82q43 -14 92 -20.5t103 -6.5h223q135 0 255 57.5t212 190.5l409 -241l195 -207q-82 -139 -177 -227.5t-203.5 -138.5t-229.5 -69.5t-256 -19.5h-224q-104 0 -205.5 13.5t-194.5 41t-172 69.5t-136 99q-117 102 -186.5 191.5t-108.5 176.5t-51.5 179 t-12.5 199zM72 717q0 -195 60.5 -331t168 -222t256 -126t326.5 -40h223q129 0 244.5 16.5t217 60.5t187.5 119.5t156 196.5l-326 193q-86 -123 -209 -177.5t-270 -54.5h-223q-92 0 -174 18.5t-143.5 60.5t-98.5 111.5t-37 174.5q0 102 37 171.5t99.5 112.5t144.5 61.5 t172 18.5h223q147 0 270 -54t209 -177l326 192q-70 119 -156 196t-187.5 121t-217 60.5t-244.5 16.5h-223q-178 0 -326.5 -40t-256 -126t-168 -222.5t-60.5 -330.5zM186 717q0 166 52.5 280.5t145.5 187t221 104.5t278 32h223q90 0 181 -8t175 -33t158 -73t131 -128 l-131 -82q-98 111 -234.5 155t-279.5 44h-223q-121 0 -224.5 -25.5t-179.5 -82t-120 -148.5t-44 -223q0 -133 44 -224.5t120 -148.5t179.5 -81.5t224.5 -24.5h223q143 0 279.5 44t234.5 154l131 -82q-57 -80 -131 -128t-158 -72.5t-175 -32.5t-181 -8h-223q-150 0 -278 31.5 t-221 104.5t-145.5 187.5t-52.5 280.5z" />
<glyph unicode="d" horiz-adv-x="2377" d="M18 -53v1540h1018q117 0 225.5 -11.5t214 -50.5t211 -114.5t216.5 -204.5q92 -92 143 -251t51 -343q0 -207 -63.5 -352.5t-177 -236.5t-271.5 -133t-344 -42h-1012zM70 -2h966q178 0 326.5 39t256 125t168 223t60.5 332t-60.5 332t-168 223t-256 125t-326.5 39h-966 v-1438zM182 113v1208h854q150 0 277 -32t221 -104.5t147.5 -187t53.5 -280.5t-53.5 -280.5t-147.5 -187.5t-221 -104.5t-277 -31.5h-854zM307 238h729q119 0 223.5 24.5t181.5 81.5t121 148.5t44 224.5t-44 224t-121 148.5t-181.5 82t-223.5 24.5h-729v-958zM418 352v729 h618q92 0 175 -17t145.5 -60t100.5 -113t38 -174t-37 -175t-100.5 -113t-146.5 -59.5t-175 -17.5h-618zM668 403h368q82 0 156 15.5t130 51.5t89 96.5t33 150.5q0 45 -10 90q-87 24 -185 24h-8h-573v-428z" />
<glyph unicode="e" horiz-adv-x="2189" d="M2 -53v1540h1712l199 -211v-445h-314l101 -100v-328l215 -210v-445h-1702zM53 -2h1612v354h-1257v191h1042v348h-1042v190h1255v355h-1610v-1438zM168 113v1208h1380v-125h-1253v-418h1042v-123h-1042v-417h1255v-125h-1382z" />
<glyph unicode="f" horiz-adv-x="2164" d="M2 -53v1540h1712l199 -211v-445h-314l101 -100v-438h-1043v-545h-444zM53 -2h355v545h1042v348h-1042v190h1255v355h-1610v-1438zM168 113v1208h1380v-125h-1253v-418h1042v-123h-1042v-542h-127z" />
<glyph unicode="g" horiz-adv-x="2516" d="M27 717q0 209 63.5 355.5t177 238.5t271 134t346.5 42h223q113 0 217.5 -10.5t202.5 -42t189 -94t177 -166.5q61 -61 100.5 -102.5t63 -70t36.5 -46t24 -31.5l-62 -43l150 -150v-219q0 -211 -70 -356.5t-190.5 -236.5t-283.5 -131t-349 -40h-223q-209 0 -389 52t-295 167 q-115 98 -189 186.5t-116 177.5t-58 182t-16 204zM78 717q0 -195 59.5 -331t167 -222t255 -126t325.5 -40h223q176 0 330.5 38t269.5 123t181.5 222t66.5 336v174h-936v-348h532q-33 -55 -84 -92t-111.5 -58.5t-125 -31t-123.5 -9.5h-223q-92 0 -174 18.5t-143.5 60.5 t-98.5 111.5t-37 174.5q0 102 37 171.5t99.5 112.5t144.5 61.5t172 18.5h223q121 0 231.5 -37.5t196.5 -128.5l313 224q-72 94 -155.5 151.5t-177 90t-195.5 44t-213 11.5h-223q-178 0 -325.5 -40t-255 -126t-167 -222.5t-59.5 -330.5zM188 717q0 166 53.5 280.5t146.5 186 t220 104.5t277 33h223q76 0 151.5 -5t147.5 -21.5t140.5 -46t127.5 -81.5l-133 -94q-92 70 -205.5 96.5t-228.5 26.5h-223q-119 0 -222.5 -25.5t-179 -82t-120 -148.5t-44.5 -223q0 -133 43.5 -224.5t120 -147.5t179 -81.5t223.5 -25.5h223q106 0 203.5 23.5t175.5 73.5 t133 129t80 191h-565v123h708v-61q0 -170 -59.5 -286t-159.5 -186.5t-233.5 -101t-282.5 -30.5h-223q-150 0 -277 32.5t-220 104.5t-146.5 186.5t-53.5 280.5zM682 512q0 -49 8 -82q43 -14 92 -20.5t103 -6.5h184l-100 89v327q-61 -10 -113.5 -31.5t-91.5 -58.5t-60.5 -91 t-21.5 -126z" />
<glyph unicode="h" horiz-adv-x="2187" d="M4 -53v1540h457l198 -211v-334h613v545h459l198 -211v-1528h-446l-211 199v346h-613v-545h-444zM55 -2h355v545h913v-545h356v1438h-356v-545h-913v545h-355v-1438zM170 113v1208h125v-543h1143v543h127v-1208h-127v542h-1143v-542h-125z" />
<glyph unicode="i" horiz-adv-x="964" d="M-12 -53v1540h450l199 -211v-1528h-438zM39 -2h348v1438h-348v-1438zM152 113v1208h122v-1208h-122z" />
<glyph unicode="j" horiz-adv-x="2215" d="M-66 412l404 239q14 -23 33 -45q16 -20 37.5 -44.5t50.5 -47.5q74 -57 165 -84t183 -27q88 0 173 10.5t151.5 42t107.5 94t41 167.5v770h457l198 -211v-764q0 -207 -62.5 -352.5t-176 -236.5t-270 -133t-343.5 -42q-115 0 -222 7t-206.5 32t-190.5 71t-171 126 q-86 78 -142.5 137t-95.5 108.5t-66.5 92.5t-54.5 90zM4 391q76 -135 170 -213t204.5 -118t235.5 -51t265 -11q178 0 325.5 40t255 126t167 222t59.5 331v719h-355v-719q0 -123 -45 -194.5t-118.5 -109.5t-168 -49.5t-192.5 -11.5q-147 0 -271 54.5t-210 177.5zM160 354 l135 82q55 -68 122.5 -106.5t143.5 -59t156 -26.5t162 -6q119 0 222 25.5t180 81.5t120 147.5t43 224.5v604h131v-604q0 -186 -61.5 -304t-166 -184.5t-244.5 -91t-296 -24.5q-90 0 -181 8t-175 32.5t-159 72.5t-132 128z" />
<glyph unicode="k" horiz-adv-x="2402" d="M8 -53v1540h455l199 -211v-100q70 35 136 68.5t138 70.5t152.5 79t179.5 93h694l258 -268l-1264 -658l181 -94q98 -51 203.5 -106.5t212 -110.5t212 -110.5t201.5 -104.5l479 -285l-970 -2l-813 418v-418h-443zM59 -2h353v446l870 -446l637 2q-344 178 -682 357.5 t-682 359.5l1382 719h-655q-217 -115 -434 -224.5t-436 -222.5v447h-353v-1438zM172 113v1208h125v-520l1018 520h209l-1196 -604q297 -154 590.5 -302.5t590.5 -301.5h-194l-1018 518v-518h-125z" />
<glyph unicode="l" horiz-adv-x="2091" d="M-2 -53v1540h453l198 -211v-873h957l198 -210v-445h-1595zM49 -2h1505v354h-1155v1084h-350v-1438zM162 113v1208h123v-1083h1157v-125h-1280z" />
<glyph unicode="m" horiz-adv-x="2496" d="M25 -53v1540h356l203 -211l444 -666l594 877h358l199 -211v-1528h-442l-211 199v76l-185 -275h-270l-207 199l-186 278v-477h-442zM76 -2h352v690l461 -690h225l463 692v-692h352v1438h-282l-648 -959l-643 959h-280v-1438zM188 113v1208h107l706 -1049 q174 266 351.5 526.5t357.5 522.5h107v-1208h-127v950l-637 -950h-101l-637 948v-948h-127z" />
<glyph unicode="n" horiz-adv-x="2162" d="M-2 -53v1540h328l878 -805v805h453l198 -211v-1528h-319l-887 813v-813h-440zM49 -2h350v872l951 -872h256v1438h-351v-871l-948 871h-258v-1438zM164 113v1208h104l1100 -1014v1014h123v-1208h-102l-1104 1013v-1013h-121z" />
<glyph unicode="o" horiz-adv-x="2392" d="M33 717q0 209 63.5 355.5t178 238.5t273.5 134t347 42h225q119 0 224.5 -13.5t208 -55.5t204 -118.5t209.5 -205.5q92 -92 151.5 -244t59.5 -338q0 -207 -62.5 -352.5t-176 -236.5t-270.5 -133t-343 -42h-225q-209 0 -389.5 47t-296.5 162q-117 102 -190.5 193.5 t-115.5 181.5t-58.5 184.5t-16.5 200.5zM84 717q0 -195 60.5 -331t168 -222t256 -126t326.5 -40h225q178 0 325.5 40t255 126t167 222t59.5 331t-59.5 331t-167 222t-255 126t-325.5 40h-225q-178 0 -326.5 -40t-256 -126t-168 -222t-60.5 -331zM199 717q0 166 52 280.5 t145 187t221 104.5t278 32h225q150 0 277 -33t220 -104.5t145.5 -186t52.5 -280.5t-52.5 -280.5t-145.5 -186.5t-220 -104.5t-277 -32.5h-225q-150 0 -278 31.5t-221 104.5t-145 187.5t-52 280.5zM328 717q0 -133 44 -224.5t119.5 -148.5t179 -81.5t224.5 -24.5h225 q119 0 222.5 25.5t180 81.5t120 147.5t43.5 224.5q0 131 -44.5 223t-120 148.5t-179 82t-222.5 25.5h-225q-121 0 -224.5 -25.5t-179 -82t-119.5 -148.5t-44 -223zM442 717q0 102 37 171.5t99.5 112.5t144.5 61.5t172 18.5h225q90 0 172 -18.5t143.5 -61.5t98.5 -112.5 t37 -171.5t-36 -172t-97.5 -113t-143.5 -61.5t-174 -18.5h-225q-92 0 -174 18.5t-143.5 60.5t-98.5 111.5t-37 174.5zM692 512q0 -49 8 -82q43 -14 92.5 -20.5t102.5 -6.5h225q80 0 153 15.5t128 52.5t87 97.5t32 148.5q0 49 -13 90q-81 24 -174 24h-8h-225q-82 0 -156 -16 t-130 -53t-89 -98.5t-33 -151.5z" />
<glyph unicode="p" horiz-adv-x="2152" d="M4 -53v1540h1165q80 0 157 -11.5t156 -47t163 -101t176 -174.5q59 -59 81.5 -157.5t22.5 -215.5q0 -166 -76.5 -274.5t-226.5 -173.5q-41 -14 -97.5 -23.5t-124 -15.5t-142 -8t-150.5 -2h-219.5t-229.5 2v-537h-444zM55 -2h355v545q49 0 127.5 -2t171 -5.5t192.5 -3.5 t193.5 4.5t173.5 14.5t133 29v2q135 57 204.5 155t69.5 248q0 117 -36.5 202t-103.5 140t-160 82t-206 27h-1114v-1438zM170 113v1208h999q84 0 156 -19.5t124 -59.5t82 -104.5t30 -152.5q0 -113 -52.5 -185.5t-154.5 -113.5v-2q-47 -16 -131 -24.5t-187.5 -11.5t-216 -3 t-215 3t-184.5 5t-125 2v-542h-125zM295 778h872q49 0 97.5 11.5t85 36t59.5 64.5t23 95q0 57 -21.5 97t-57.5 66t-84 37t-100 11h-874v-418zM410 891v190h759q25 0 50.5 -4t47 -14t36 -28.5t14.5 -49.5q0 -29 -15.5 -47t-38 -28.5t-49 -14.5t-47.5 -4h-757z" />
<glyph unicode="q" horiz-adv-x="2600" d="M35 717q0 209 63.5 355.5t178 238.5t273.5 134t347 42q145 0 287.5 -5t281 -41t271.5 -117t258 -234q86 -86 134 -232.5t48 -345.5q0 -72 -16.5 -141.5t-40.5 -137.5l485 -284l209 -199h-795l-207 111q-109 -51 -238.5 -82t-248.5 -31q-133 0 -265 4t-254 24.5 t-227.5 63.5t-181.5 119q-111 94 -181.5 180t-110 175t-55 187.5t-15.5 215.5zM86 717q0 -170 40 -290t111.5 -200t169 -125t212 -68.5t242.5 -29.5t259 -6q119 0 249 32.5t237 86.5l219 -117h590l-588 346q47 86 73.5 179t26.5 192q0 170 -40 289.5t-110.5 199.5t-167 126 t-211 68.5t-242.5 29t-259 6.5q-178 0 -326.5 -40t-256 -126t-168 -222t-60.5 -331zM201 717q0 166 52 280.5t145.5 187t221.5 104.5t277 32h223q150 0 277 -33t220 -104.5t146.5 -186t53.5 -280.5q0 -113 -46.5 -216.5t-107.5 -195.5l356 -192h-172l-243 133 q-104 -59 -234.5 -96t-249.5 -37h-223q-150 0 -277.5 31.5t-221 104.5t-145.5 187.5t-52 280.5zM330 717q0 -133 44 -224.5t120.5 -147.5t180 -81.5t222.5 -25.5h223q29 0 74 6t93 16t92 21.5t73 21.5l-358 193l190 -2l258 -140q68 72 106 167t38 196q0 131 -43.5 223 t-120 148.5t-180 82t-222.5 25.5h-223q-119 0 -222.5 -25.5t-180 -83t-120.5 -148.5t-44 -222zM442 717q0 104 37 174t99.5 111.5t144.5 60t174 18.5h223q90 0 172 -18.5t144.5 -61.5t99.5 -112.5t37 -171.5q0 -59 -15.5 -114.5t-44.5 -106.5l-204 110h-594l430 -254h-248 q-92 0 -174 18.5t-144.5 60.5t-99.5 111.5t-37 174.5zM721 657h600l172 -92q29 76 29 152q0 47 -13 90q-83 24 -176 24h-8h-223q-127 0 -230.5 -38.5t-150.5 -135.5z" />
<glyph unicode="r" horiz-adv-x="2365" d="M25 -53v1540h1161q80 0 153.5 -11.5t148.5 -46t155.5 -100t173.5 -174.5q59 -59 93 -158.5t34 -216.5q0 -135 -58.5 -239.5t-169.5 -169.5q63 -74 133 -154t139.5 -161t138 -159.5t130.5 -148.5h-590l-207 199l-299 346h-485v-545h-440zM76 -2h350v545h586l471 -545h471 l-516 592q256 112 256 395q0 117 -37 202t-104.5 140t-161 82t-205.5 27h-1110v-1438zM186 113v1208h1000q84 0 156.5 -18.5t125 -59.5t82 -104.5t29.5 -153.5q0 -113 -51 -185.5t-156 -113.5h-2q-29 -16 -63.5 -24.5t-65.5 -16.5q115 -135 230.5 -266t232.5 -266h-166 l-473 542h-752v-542h-127zM313 778h871q49 0 97 11.5t87 36t62.5 64.5t23.5 95q0 57 -22.5 98t-60.5 66t-86 36t-99 11h-873v-418zM426 891v190h760q25 0 51.5 -4t49 -14t37.5 -28.5t15 -49.5q0 -29 -16 -47t-39.5 -28.5t-51.5 -14.5t-48 -4h-758z" />
<glyph unicode="s" horiz-adv-x="2342" d="M8 373l371 229l-98 100q-72 53 -113 126t-41 171q0 94 40 167t105.5 126.5t149.5 91t172 60t174 33t156 10.5q121 0 243.5 -7t240.5 -38t226.5 -94.5t202.5 -178.5q63 -63 100 -105t58.5 -70.5t32 -46t20.5 -32.5l-262 -176q10 -10 23.5 -17t38 -27.5t64.5 -58.5 t107 -108q49 -51 78 -131t29 -168q0 -92 -45 -163.5t-117 -125t-164 -90t-186 -59t-183.5 -33t-154.5 -10.5h-246t-244.5 20.5t-232.5 67.5t-207 144q-80 74 -134 130t-92 102t-63.5 85t-48.5 76zM82 356q82 -133 194.5 -205.5t243.5 -106.5t271.5 -40t279.5 -6q61 0 145 9 t174.5 29.5t177.5 54.5t155.5 82t110.5 112.5t42 148.5q0 100 -44 171t-114.5 119t-162 77.5t-187.5 46t-188.5 25t-163.5 14.5q-25 2 -94.5 9t-143 20.5t-131 34t-57.5 48.5q0 33 53 49.5t122 24.5t133.5 9t86.5 1q66 0 133.5 -5t132 -21.5t123 -47t107.5 -79.5l299 200 q-78 106 -176.5 167t-209 91.5t-230.5 39t-240 8.5q-63 0 -144.5 -9.5t-164.5 -30t-161.5 -53t-140 -82t-98.5 -114t-37 -148.5q0 -96 47 -165.5t125 -118.5t176.5 -80t199.5 -50.5t196.5 -30.5t167.5 -19q20 -2 80.5 -8.5t126 -17.5t116.5 -29t51 -46q0 -23 -32.5 -38 t-84 -24.5t-112.5 -13.5t-119.5 -6t-104.5 -2h-65q-78 0 -153.5 7.5t-147.5 29t-135.5 60t-114.5 104.5zM252 313l123 80q66 -63 145.5 -96t165.5 -46t176 -14t174 -1q31 0 83 2t112.5 9t122 20.5t112 36t82 54t31.5 76.5t-34 79t-87 58.5t-119.5 42t-132 26.5t-122 13 t-91.5 4h2q-49 2 -120.5 10.5t-149.5 25t-155.5 42t-139 62.5t-100.5 87t-39 115q0 72 38 123.5t98 87t136 57t154 34t148.5 16.5t119.5 4q80 0 163 -7t163 -25.5t155.5 -50.5t139.5 -81l-109 -78q-59 41 -124.5 64.5t-135.5 36t-141.5 15.5t-139.5 3q-47 0 -127.5 -6 t-159.5 -25.5t-136.5 -59.5t-57.5 -108q0 -66 55.5 -105.5t145.5 -63t205.5 -37t236.5 -27.5t236.5 -33.5t206 -55.5t145.5 -94.5t55 -148.5q0 -63 -37.5 -112.5t-99 -85t-138.5 -59t-154 -38t-146.5 -20.5t-114.5 -6h-153q-84 0 -176.5 6t-180.5 27.5t-168 60.5t-141 106z " />
<glyph unicode="t" horiz-adv-x="2228" d="M14 1030v457h1825l199 -211v-445h-688v-1083h-439l-211 199v884h-475zM66 1081h686v-1083h348v1083h688v355h-1722v-355zM178 1196v125h1497v-125h-688v-1083h-123v1083h-686z" />
<glyph unicode="u" horiz-adv-x="2488" d="M27 717v770h460l199 -211v-764q0 -23 1 -43t5 -39q86 -27 195 -27h225q80 0 152.5 15.5t128 52.5t88 96.5t32.5 149.5v770h459l199 -211v-764q0 -207 -63.5 -352.5t-176 -236.5t-270.5 -133t-344 -42h-225q-104 0 -201.5 10.5t-185 34t-161 62.5t-130.5 96 q-117 100 -192 191t-118 183.5t-60 187.5t-17 204zM78 717q0 -195 59.5 -331t167 -222t256 -126t326.5 -40h225q178 0 326.5 40t256 126t167 222t59.5 331v719h-356v-719q0 -104 -37 -174t-98.5 -112t-143.5 -60.5t-174 -18.5h-225q-92 0 -174 18.5t-143.5 61.5t-97.5 112.5 t-36 172.5v719h-358v-719zM190 717v604h132v-604q0 -133 43 -224.5t119.5 -147.5t179 -81.5t223.5 -25.5h225q119 0 222.5 25.5t180 81.5t120.5 147.5t44 224.5v604h129v-604q0 -166 -53 -280.5t-146 -187.5t-220 -104.5t-277 -31.5h-225q-150 0 -278 31.5t-221 104.5 t-145.5 187.5t-52.5 280.5z" />
<glyph unicode="v" horiz-adv-x="2568" d="M-119 1487h602l162 -211l490 -694q63 88 127.5 181t139.5 200.5t163 235.5l198 288h557l195 -211l-1065 -1528h-264l-207 199zM-18 1436l1024 -1438h215l1003 1438h-434q-170 -246 -338 -490t-342 -487l-694 977h-434zM197 1321h163l754 -1057q186 264 369.5 527.5 t367.5 529.5h154l-846 -1208h-98q-217 305 -432 604t-432 604z" />
<glyph unicode="w" horiz-adv-x="2899" d="M-33 1487h494l201 -211l161 -393q66 152 131.5 301t130.5 303h318l201 -211l165 -393l25 57q12 29 27.5 62.5t25.5 62.5q45 104 90 214t86 208h496l195 -211l-631 -1528h-316l-208 199l-177 409q-66 -154 -131 -306t-127 -302h-311l-209 199zM43 1436l594 -1438h254 q86 209 173 412.5t177 410.5l352 -823h256l594 1438h-387q-84 -205 -169 -407t-171 -406l-348 813h-250l-350 -818l-340 818h-385zM211 1321h143l414 -999q102 254 210.5 500.5t213.5 498.5h100l424 -997q104 250 209 497.5t207 499.5h143q-125 -305 -249.5 -604 t-249.5 -604h-105l-428 999l-432 -999h-100q-123 305 -248 605t-252 603z" />
<glyph unicode="x" horiz-adv-x="2701" d="M-43 1487h702l543 -479l539 479h688l188 -211l-860 -744l694 -585l189 -199h-680l-553 488q-135 -123 -272.5 -245t-272.5 -243h-672l-221 199l887 764zM106 -2h535l561 504l572 -504h538l-852 721l832 717h-533q-137 -127 -276.5 -249t-278.5 -249l-563 498h-535 l842 -713zM414 1321h184l606 -535q147 135 297 267.5t299 267.5h182l-698 -600l717 -608h-184l-615 540l-604 -540h-180l704 608q-178 152 -353 301t-355 299z" />
<glyph unicode="y" horiz-adv-x="2400" d="M-195 1487h646l526 -524l520 524h643l191 -211l-924 -924v-604h-444l-211 199v604q-111 109 -231 227.5t-242.5 240.5t-243.5 240.5t-230 227.5zM-70 1436l873 -865v-573h354v577l858 861h-495l-541 -545l-549 545h-500zM207 1321h180l594 -584l584 584h178l-701 -698 v-510h-127v508z" />
<glyph unicode="z" horiz-adv-x="2119" d="M2 -53v340l590 544h-318l-211 199v457h1541l198 -211v-334l-585 -539h450l199 -210v-445h-1653zM53 -2h1563v354h-946l882 815v269h-1437v-355h825l-887 -817v-266zM166 113v102l1059 981h-996v125h1209v-102l-1055 -981h1120v-125h-1337z" />
<glyph unicode="{" horiz-adv-x="1019" d="M-72 569v305q37 10 50.5 28t13.5 38q0 16 -4 38.5t-11 49.5l-4 19q-6 29 -11 60.5t-5 70.5q0 436 444 436h283l199 -211v-436h-49.5t-38.5 2q-20 2 -43 3t-47 1h-64t-29 -2q0 -39 6.5 -74t16.5 -70q10 -41 18.5 -80.5t8.5 -80.5q0 -37 -9.5 -77t-23.5 -75 q14 -37 23.5 -72.5t9.5 -74.5q0 -41 -11 -93h33l199 -211v-436h-277q-111 0 -205 25.5t-149 81.5q-98 86 -156.5 154.5t-89.5 130t-40 120t-9 123.5q0 41 6 74t12 65q4 12 5 23q6 23 10 45.5t8 40.5l-45 45zM-20 600q6 -4 18 -10t23.5 -14.5t19.5 -17.5t8 -17 q0 -59 -20.5 -133t-20.5 -146q0 -193 99.5 -289t293.5 -96h232v346q-18 0 -62.5 -3t-90.5 -2t-82 10.5t-36 35.5q0 39 7.5 77t16.5 77t17.5 76.5t8.5 76.5t-10.5 76t-26.5 72q20 35 28.5 72.5t8.5 78.5q0 39 -8.5 77t-17.5 76t-16.5 76t-7.5 77q0 27 36 36t82 10t90 -2 t63 -3v346h-232q-393 0 -393 -385q0 -59 17.5 -119t17.5 -119q0 -35 -13.5 -63.5t-49.5 -38.5v-238zM92 668v104q57 63 58 158q0 63 -13.5 123.5t-13.5 124.5q0 274 278 274h117v-121h-97t-85 -13t-60.5 -46t-23.5 -96q0 -78 22.5 -154t22.5 -152q0 -41 -16.5 -77.5 t-38.5 -69.5q20 -35 37.5 -73t17.5 -79q0 -78 -22.5 -153.5t-22.5 -153.5q0 -63 23.5 -95t61.5 -45t85 -13h96v-123h-117q-279 0 -278 274q0 66 14.5 127.5t14.5 126.5q0 43 -14.5 82t-45.5 70z" />
<glyph unicode="|" horiz-adv-x="747" d="M-106 -135v1734h444l199 -210v-1723h-433zM-55 -84h342v1632h-342v-1632zM57 31v1403h117v-1403h-117z" />
<glyph unicode="}" horiz-adv-x="1019" d="M-72 -174v448h52.5t39.5 -2q20 -2 43 -3t50 -1h56.5t29.5 -4q0 31 -6.5 60.5t-12.5 60.5l-4 21q-10 41 -18 81.5t-8 83.5q0 39 8 76t22 72q-14 35 -22 75t-8 76q0 25 3 48.5t7 48.5h-21l-211 198v449h283q66 0 125 -7.5t120.5 -37t131 -87t157.5 -157.5q53 -53 81 -148.5 t28 -203.5q0 -41 -6 -71t-12 -58q-6 -29 -11.5 -57.5t-5.5 -51.5v-6l64 -63v-299q-6 -4 -17.5 -9.5t-24 -10.5t-20.5 -8t-8 -1q0 -33 5 -63.5t13 -61.5q8 -41 15.5 -81t7.5 -75q0 -217 -110.5 -323.5t-327.5 -106.5h-277zM-20 -123h231q195 0 294 96.5t99 288.5 q0 72 -20.5 144.5t-20.5 136.5q0 6 8.5 15t20.5 17.5t23.5 14.5t17.5 10v238q-37 10 -50.5 38.5t-13.5 63.5q0 59 17.5 118.5t17.5 119.5q0 385 -393 385h-231v-346q18 0 62 3t90 2t82 -10.5t36 -35.5q0 -39 -8.5 -77t-17.5 -76t-16 -76t-7 -77q0 -41 8 -78.5t29 -72.5 q-16 -35 -26.5 -72t-10.5 -76t7 -76.5t16 -76.5t17.5 -77t8.5 -77q0 -27 -36 -36t-82 -10t-90 2t-62 3v-346zM94 -12v123h96.5t85 13t61 45t23.5 95q0 78 -22.5 154t-22.5 153q0 41 17.5 79t38.5 73q-23 33 -39.5 69.5t-16.5 77.5q0 76 22.5 152t22.5 154q0 63 -23.5 96 t-60 46t-85 13h-97.5v121h117q279 0 278 -274q0 -63 -13 -124t-13 -124q0 -45 13 -85t44 -73v-104q-33 -29 -46 -69t-13 -83q0 -66 14 -127t14 -127q0 -274 -278 -274h-117z" />
<glyph unicode="~" horiz-adv-x="1462" d="M-166 481q37 74 96.5 162t131 165t152.5 129t163 52q76 0 138.5 -32.5t115.5 -67.5q29 -18 49 -30.5t27 -12.5q12 0 22 14t19 31q8 20 14 45h498l194 -211q-37 -72 -95.5 -157t-129 -157.5t-149.5 -121.5t-158 -49q-55 0 -100.5 10t-81 25.5t-62.5 33t-47 33.5 q-8 4 -13.5 8t-9.5 8q-6 4 -8 7q-12 0 -27.5 -30t-25.5 -52h-498zM-78 532h391q10 23 32 52.5t50 29.5q16 0 41 -19.5t63 -43t91 -43t127 -19.5q72 0 140.5 40t129 99.5t109.5 128t80 128.5h-375q-4 -10 -11.5 -25.5t-16.5 -31t-21.5 -26.5t-30.5 -11q-31 0 -67 22.5t-79 50 t-92 51t-106 23.5q-72 0 -140.5 -42t-129 -103.5t-107.5 -132t-78 -128.5zM102 645q23 25 52.5 55.5t64.5 58t75 47t83 19.5q70 0 115 -23.5t79.5 -51t68.5 -50t81 -22.5q43 0 74.5 30.5t54.5 63.5h139q-23 -25 -52.5 -57.5t-63 -60t-70.5 -47t-72 -19.5q-53 0 -95 23.5 t-79 53t-72.5 53t-78.5 23.5q-45 0 -92.5 -31.5t-69.5 -64.5h-142z" />
<glyph unicode="&#xa1;" horiz-adv-x="755" d="M-66 -164v1540h455l199 -211v-1527h-443zM-14 -113h352v1438h-352v-1438zM98 2v913h127q0 -229 -2 -456.5t-2 -456.5h-123zM98 1092v118h127v-118h-127z" />
<glyph unicode="&#xa2;" horiz-adv-x="2420" d="M18 717q0 342 170 528.5t494 227.5v163h453l198 -211v-14q197 -90 350 -276l127 -127q82 -82 152 -193l-389 -215l-160 158q-33 25 -80 45v-205l43 55l389 -241l195 -207q-117 -186 -275.5 -299t-351.5 -144v-133h-440l-164 164q-94 27 -181 66t-147 98 q-117 98 -191.5 189.5t-116.5 182.5t-58.5 185t-16.5 203zM70 717q0 -332 172 -507t491 -204v-127h350v127q197 23 350.5 123t258.5 266l-303 189q-55 -78 -132 -136.5t-174 -76.5v698q92 -23 167 -78t130 -129l314 174q-104 166 -258 267.5t-353 123.5v158h-350v-158 q-319 -29 -491 -204.5t-172 -505.5zM184 717q0 156 50.5 267.5t139.5 183t211 108.5t263 45v149h121v-149q76 -4 154.5 -20.5t151.5 -46t138.5 -73.5t116.5 -104l-117 -71q-84 96 -202.5 138t-241.5 54v-962q123 16 241.5 62t204.5 138l117 -71q-49 -63 -114.5 -108.5 t-139.5 -76t-152.5 -46t-156.5 -21.5v-119h-121v121q-141 8 -263 44t-211 107.5t-139.5 182t-50.5 268.5zM313 717q0 -125 42 -212t114 -143.5t170 -86t209 -39.5v962q-111 -8 -209 -38t-170 -87t-114 -145t-42 -211zM428 717q0 147 83 237t222 121v-710q-305 39 -305 352z " />
<glyph unicode="&#xa3;" horiz-adv-x="2246" d="M12 492v450h193q23 150 84 256.5t156.5 175t221.5 100t275 31.5q100 0 193.5 -19.5t188.5 -67.5t196.5 -131t216.5 -210q59 -59 114.5 -148t98.5 -175l-396 -226v-125h183l198 -210v-445h-1661l-211 199v389q27 -2 46.5 7t33.5 26zM63 543h179q0 -25 -5.5 -69t-19.5 -87 t-38.5 -73.5t-63.5 -30.5v-285h1571v354h-1123q10 47 19.5 95.5t13.5 95.5h709v348h-693q12 68 45 108.5t78 64t100.5 31t114.5 7.5q76 0 140.5 -23.5t117 -65.5t94 -98.5t72.5 -121.5l312 182q-115 225 -301.5 352t-442.5 127q-145 0 -266 -31.5t-210 -100.5t-145.5 -175.5 t-70.5 -255.5h-187v-348zM178 655v123h180q25 561 592 561q178 0 333 -86t251 -235l-115 -66q-86 141 -209 203t-282 62q-209 0 -318.5 -117t-126.5 -322h707v-123h-705q-2 -41 -6 -101t-15 -122.5t-31.5 -116t-57.5 -77.5h1196v-125h-1344v116q43 6 70 63.5t40 129.5 t17 139.5t4 93.5h-180z" />
<glyph unicode="&#xa5;" horiz-adv-x="2299" d="M-272 1487h641l526 -524l520 524h643l191 -211l-545 -547l61 -59v-742h-440v-180h-444l-181 180h-266l-211 199v754h115zM-150 1436l613 -607h-189v-651h447v-180h354v180h441v651h-187l604 607h-495l-541 -545l-549 545h-498zM123 1321h182l594 -584l584 584h178 l-606 -606h346v-86h-440v-250h440v-86h-440v-180h-127v180h-445v86h445v250h-445v86h348z" />
<glyph unicode="&#xa8;" horiz-adv-x="1159" d="M14 1487v444h459l37 -49v49h461l198 -211v-432h-448l-49 49v-49h-447zM66 1538h356v342h-356v-342zM180 1651v116h129v-116h-129zM561 1538h359v342h-359v-342zM676 1651v116h129v-116h-129z" />
<glyph unicode="&#xa9;" horiz-adv-x="2535" d="M33 717q0 209 63.5 355.5t178 238.5t273.5 134t347 42h225q119 0 227.5 -11.5t213 -51.5t209 -114.5t212.5 -203.5q98 -106 146.5 -257t48.5 -337q0 -207 -62.5 -352.5t-176 -236.5t-270.5 -133t-343 -42h-225q-104 0 -203.5 11.5t-189 36t-165 63.5t-132.5 96 q-117 102 -190 193.5t-115 182.5t-57 185.5t-15 200.5zM84 717q0 -195 60.5 -331t168 -222t256 -126t326.5 -40h225q178 0 325.5 40t255 126t167 222t59.5 331t-59.5 331t-167 222t-255 126t-325.5 40h-225q-178 0 -326.5 -40t-256 -126t-168 -222t-60.5 -331zM199 717 q0 166 52 280.5t145 187t221 104.5t278 32h225q150 0 277 -33t220 -104.5t145.5 -186t52.5 -280.5t-52.5 -280.5t-145.5 -186.5t-220 -104.5t-277 -32.5h-225q-150 0 -278 31.5t-221 104.5t-145 187.5t-52 280.5zM328 717q0 -129 43 -225.5t118.5 -159t180 -93t225.5 -30.5 h225q121 0 224.5 30.5t179 94t119 159t43.5 224.5t-43.5 224t-119 158.5t-179 94.5t-224.5 31h-225q-121 0 -225.5 -31t-180 -93.5t-118.5 -158.5t-43 -225zM551 723q0 94 32.5 155.5t88 97.5t129 49t153.5 13h121q70 0 138.5 -8t132.5 -41l-74 -86q-47 23 -96.5 36 t-100.5 13h-121q-59 0 -112.5 -10t-92 -35.5t-61 -69.5t-22.5 -114q0 -68 22.5 -112t62.5 -69.5t92 -34.5t111 -9h121q53 0 103.5 11t97.5 36l72 -80q-66 -29 -133.5 -42t-139.5 -13h-121q-80 0 -152.5 14t-128 49t-89 96.5t-33.5 153.5z" />
<glyph unicode="&#xab;" horiz-adv-x="1753" d="M-88 717l502 606h1153l192 -211l-495 -598l493 -602h-1136l-207 199zM-20 717l456 -555h451l-455 559l455 551h-451zM125 717l364 444h162l-366 -442l364 -447h-160q-90 115 -181 224.5t-183 220.5zM551 717l455 -555h452l-457 559l457 551h-452zM694 717l369 444h158 l-363 -442l361 -447h-156z" />
<glyph unicode="&#xad;" horiz-adv-x="1804" d="M-31 492v450h1344l198 -211v-438h-1331zM20 543h1242v348h-1242v-348zM135 655v123h1012v-123h-1012z" />
<glyph unicode="&#xae;" horiz-adv-x="2529" d="M33 717q0 209 63.5 355.5t178 238.5t273.5 134t347 42h225q119 0 227.5 -14.5t215 -57.5t211 -122t213.5 -208q92 -92 141 -239.5t49 -333.5q0 -207 -62.5 -352.5t-176 -236.5t-270.5 -133t-343 -42h-225q-209 0 -383 46t-291 161q-117 102 -192.5 193.5t-119.5 182.5 t-62.5 185.5t-18.5 200.5zM84 717q0 -195 60.5 -331t168 -222t256 -126t326.5 -40h225q178 0 325.5 40t255 126t167 222t59.5 331t-59.5 331t-167 222t-255 126t-325.5 40h-225q-178 0 -326.5 -40t-256 -126t-168 -222t-60.5 -331zM199 717q0 166 52 280.5t145 187 t221 104.5t278 32h225q150 0 277 -33t220 -104.5t145.5 -186t52.5 -280.5t-52.5 -280.5t-145.5 -186.5t-220 -104.5t-277 -32.5h-225q-150 0 -278 31.5t-221 104.5t-145 187.5t-52 280.5zM328 717q0 -129 43 -225.5t118.5 -159t180 -93t225.5 -30.5h225q123 0 226.5 31.5 t179.5 94t118 158t42 224.5t-43.5 224t-119 158.5t-179 94.5t-224.5 31h-225q-121 0 -225.5 -31t-180 -93.5t-118.5 -158.5t-43 -225zM713 473v539h477q90 0 140 -49.5t50 -137.5q0 -37 -14 -69.5t-40 -57t-58.5 -39t-69.5 -14.5l188 -172h-126l-170 166h-273v-166h-104z M817 733h373q39 0 69.5 25.5t30.5 66.5t-29.5 68t-70.5 27h-373v-187z" />
<glyph unicode="&#xb0;" horiz-adv-x="931" d="M-88 1257q0 168 90 241t244 73q49 0 93 -7.5t94 -36t111.5 -83.5t145.5 -150q37 -37 60.5 -101.5t23.5 -139.5q0 -84 -22.5 -142.5t-65.5 -94.5t-104.5 -52t-137.5 -16q-82 0 -150.5 15t-109.5 56q-92 80 -145 139.5t-82 108.5t-37 94t-8 96zM-37 1257q0 -141 73 -200.5 t204 -59.5t207.5 57.5t76.5 202.5q0 137 -74.5 200t-203.5 63t-206 -61t-77 -202zM78 1257q0 78 44 115t118 37q76 0 123 -35t47 -117t-44 -115.5t-120 -33.5t-122 32.5t-46 116.5zM145 1255q0 -92 95 -92q47 0 72.5 20.5t25.5 71.5t-25.5 72t-72.5 21q-95 -1 -95 -93z" />
<glyph unicode="&#xb4;" horiz-adv-x="989" d="M-266 1483l577 442h594l187 -211l-572 -430h-563zM-117 1534h416l453 340h-426zM123 1608l258 192h143q-66 -47 -130 -96t-130 -96h-141z" />
<glyph unicode="&#xb7;" horiz-adv-x="657" d="M-106 453v520h454l199 -211v-508h-443zM-55 504h352v418h-352v-418zM57 618v189h127v-189h-127z" />
<glyph unicode="&#xb8;" horiz-adv-x="866" d="M-23 88h408q59 -55 100 -94t81 -78t87 -88t119 -127q78 -78 78 -217q0 -121 -59.5 -186.5t-154.5 -95t-213 -35t-235 -5.5l-211 199v727zM29 37v-625h114.5t127 6.5t123 21.5t105.5 46t73.5 80t27.5 123q0 127 -71.5 189.5t-194.5 62.5v96h-305zM117 -408h69.5t94 7.5 t83 26t35.5 52.5q0 33 -34.5 47.5t-79.5 18.5t-89 1t-65 -3v182h105v-98l57 2q37 0 73.5 -5t67.5 -19.5t50.5 -42t19.5 -72.5q0 -70 -43 -106t-103.5 -52t-127 -18t-113.5 -2v81z" />
<glyph unicode="&#xba;" horiz-adv-x="931" d="M-45 1372q0 168 90 241t244 73q49 0 93 -7.5t94 -36t111.5 -84t145.5 -149.5q37 -37 60.5 -101.5t23.5 -140.5q0 -84 -22.5 -142t-65.5 -94t-104.5 -52.5t-137.5 -16.5q-82 0 -150.5 15.5t-109.5 56.5q-92 80 -145 139.5t-82 108.5t-37 94t-8 96zM6 1372 q0 -141 73 -200.5t204 -59.5t207.5 57.5t76.5 202.5q0 137 -74.5 199.5t-203.5 62.5t-206 -60.5t-77 -201.5zM121 1372q0 78 44 115t118 37q76 0 123 -35t47 -117t-44 -115.5t-120 -33.5t-122 32.5t-46 116.5zM188 1370q0 -92 95 -92q47 0 72.5 20.5t25.5 71.5t-25.5 71.5 t-72.5 20.5q-95 0 -95 -92z" />
<glyph unicode="&#xbb;" horiz-adv-x="1753" d="M-137 1323h1173l678 -811l-495 -600h-1137l-217 199l495 610zM-29 162h453l455 555l-455 555h-453l455 -551zM209 272l362 447l-362 442h158l368 -444l-368 -445h-158zM543 162h450l457 555l-457 555h-450l452 -551zM778 272l367 447l-367 442h162l365 -444l-365 -445 h-162z" />
<glyph unicode="&#xbf;" horiz-adv-x="2084" d="M-121 328q0 86 35 158.5t88 133t116.5 109.5t123.5 86q39 25 75.5 49.5t65.5 49t46 49t17 49.5v362h461l199 -211v-356q0 -119 -35 -202t-88 -141t-118.5 -99t-129.5 -74l-76 -41q117 18 214.5 89t183.5 185l387 -229l196 -209q-63 -111 -155 -198t-200.5 -146 t-226.5 -91t-233 -32q-78 0 -167 8t-176 28.5t-164.5 56.5t-133.5 91q-98 86 -157.5 155t-92 129t-44 117.5t-11.5 123.5zM-70 328q0 -141 66.5 -230.5t168 -139.5t223.5 -69.5t233 -19.5q109 0 219 27.5t210.5 80t184.5 127t139 170.5l-305 183q-92 -125 -211 -194.5 t-274 -69.5q-29 0 -76 5t-92 19t-78 40t-33 67q0 61 41 102t102.5 76t132 72.5t132 93t102.5 137.5t41 207v311h-358q0 -78 1 -155.5t-1 -155.5q0 -59 -43 -104.5t-105.5 -87.5t-136.5 -87t-136.5 -101.5t-104.5 -130t-42 -173.5zM45 322q0 74 37 131t94 105t125 90 t129.5 88t107.5 99.5t60 122.5h137q-8 -84 -53 -145t-106.5 -111.5t-131 -92.5t-128 -86t-97.5 -96t-39 -120q0 -74 49.5 -118t118 -68.5t144 -32.5t129.5 -8q139 0 261 65.5t208 171.5l127 -81q-57 -78 -134 -130.5t-164.5 -85t-181.5 -46t-186 -13.5q-82 0 -171 19.5 t-164 62.5t-123 111.5t-48 167.5zM612 1090v120h129v-120h-129z" />
<glyph unicode="&#xc0;" d="M-78 -53l1098 1540h61l-551 438h621l575 -442l189 -199h-432l1073 -1536h-545l-207 199l-84 119h-809q-25 -37 -54.5 -78t-59 -83t-58 -82t-53.5 -75h-547zM23 -2h434l225 317h926l223 -317h434l-1003 1438h-215zM238 113q217 305 433 604t431 604h98l846 -1208h-154 l-221 317h-1046q-57 -78 -111.5 -159t-112.5 -158h-163zM711 1874l452 -340h416l-442 340h-426zM713 557h874l-432 612zM932 668l219 307l215 -307h-434zM938 1800h143l258 -192h-141q-66 47 -130 96t-130 96z" />
<glyph unicode="&#xc1;" d="M-78 -53l952 1337h-90l-223 199l578 442h594l186 -211l-496 -373l68 -65l1065 -1528h-545l-207 199l-84 119h-809q-25 -37 -54.5 -78t-59 -83t-58 -82t-53.5 -75h-547zM23 -2h434l225 317h926l223 -317h434l-1003 1438h-215zM238 113q217 305 433 604t431 604h98 l846 -1208h-154l-221 317h-1046q-57 -78 -111.5 -159t-112.5 -158h-163zM711 1534h415l453 340h-426zM713 557h874l-432 612zM932 668l219 307l215 -307h-434zM950 1608l258 192h144q-66 -47 -130.5 -96t-129.5 -96h-142z" />
<glyph unicode="&#xc2;" d="M-78 -53l957 1341h-334l-226 199l756 508h180l752 -508l186 -199h-624h-86l1073 -1540h-545l-207 199l-84 119h-809q-25 -37 -54.5 -78t-59 -83t-58 -82t-53.5 -75h-547zM23 -2h434l225 317h926l223 -317h434l-1003 1438h-215zM238 113q217 305 433 604t431 604h98 l846 -1208h-154l-221 317h-1046q-57 -78 -111.5 -159t-112.5 -158h-163zM485 1538h467l213 143l211 -143h467l-602 406h-151zM713 557h874l-432 612zM780 1610l340 235h90q86 -59 170 -117.5t170 -117.5h-114l-271 172l-272 -172h-113zM932 668l219 307l215 -307h-434z" />
<glyph unicode="&#xc3;" d="M-78 -53l967 1358h-217l-215 198q37 74 96 162t131 165t153 129t162 52q76 0 138.5 -32.5t115.5 -67.5q29 -18 46.5 -30.5t33.5 -12.5q10 2 20.5 16t18.5 31q8 20 19 43h491l195 -211q-39 -72 -98.5 -161t-134.5 -164.5t-163 -123t-182 -34.5l1057 -1516h-545l-207 199 l-84 119h-809q-25 -37 -54.5 -78t-59 -83t-58 -82t-53.5 -75h-547zM23 -2h434l225 317h926l223 -317h434l-1003 1438h-215zM238 113q217 305 433 604t431 604h98l846 -1208h-154l-221 317h-1046q-57 -78 -111.5 -159t-112.5 -158h-163zM541 1554h395q10 23 31.5 52.5 t50.5 29.5q16 0 40.5 -19.5t62.5 -43t91.5 -43t126.5 -19.5q72 0 140.5 40t129 99.5t109.5 128t80 128.5h-360h-4q-4 -10 -12.5 -25.5t-20.5 -31t-26.5 -27t-31.5 -11.5q-31 0 -66.5 23t-78.5 50.5t-92 51t-107 23.5q-72 0 -141.5 -42t-129.5 -103.5t-108.5 -132 t-78.5 -128.5zM713 557h874l-432 612zM725 1667q23 25 55.5 55.5t69.5 58t76 47t73 19.5q70 0 115 -23.5t80 -51t68.5 -50t80.5 -22.5q43 0 75 30.5t55 63.5h139q-23 -25 -54.5 -57.5t-68.5 -60t-76 -47t-74 -19.5q-66 0 -110.5 23.5t-82.5 53t-73 53t-78 23.5 q-45 0 -75.5 -31.5t-53.5 -64.5h-141zM932 668l219 307l215 -307h-434z" />
<glyph unicode="&#xc4;" d="M-78 -53l963 1351l-201 189v444h459l37 -49v49h460l199 -211v-432h-360l12 -12l1065 -1528h-545l-207 199l-84 119h-809q-25 -37 -54.5 -78t-59 -83t-58 -82t-53.5 -75h-547zM23 -2h434l225 317h926l223 -317h434l-1003 1438h-215zM238 113q217 305 433 604t431 604h98 l846 -1208h-154l-221 317h-1046q-57 -78 -111.5 -159t-112.5 -158h-163zM713 557h874l-432 612zM735 1538h357v342h-357v-342zM850 1651v116h129v-116h-129zM932 668l219 307l215 -307h-434zM1231 1538h358v342h-358v-342zM1346 1651v116h129v-116h-129z" />
<glyph unicode="&#xc5;" d="M-78 -53l1059 1485l-43 45q-59 35 -91 100.5t-32 167.5q0 168 90 240.5t244 72.5q49 0 92 -4t92 -28.5t109.5 -77t144.5 -146.5q37 -37 63.5 -111.5t26.5 -150.5q0 -121 -45 -188.5t-129 -96.5l1053 -1507h-545l-207 199l-84 119h-809q-25 -37 -54.5 -78t-59 -83t-58 -82 t-53.5 -75h-547zM23 -2h434l225 317h926l223 -317h434l-1003 1438h-215zM238 113q217 305 433 604t431 604h98l846 -1208h-154l-221 317h-1046q-57 -78 -111.5 -159t-112.5 -158h-163zM713 557h874l-432 612zM866 1745q0 -141 73 -200.5t204 -59.5t207.5 57t76.5 203 q0 137 -74.5 199.5t-203.5 62.5t-206 -60.5t-77 -201.5zM932 668l219 307l215 -307h-434zM981 1745q0 78 44 114.5t118 36.5q76 0 123 -34.5t47 -116.5t-44 -116t-120 -34t-122 33t-46 117zM1049 1743q0 -92 94 -92q47 0 72.5 20.5t25.5 71.5t-25.5 71.5t-72.5 20.5 q-94 0 -94 -92z" />
<glyph unicode="&#xc6;" horiz-adv-x="2959" d="M-143 -53l1097 1540h1438l199 -211v-445h-314l101 -100v-328h14l199 -210v-445h-1506l-211 199v119h-36l-220 -318h-544zM-43 -2h432l221 317h316v-317h1415v354h-1063v191h850v348h-850v190h1063v355h-1360zM174 113q215 305 430 604t430 604h1192v-125h-1061v-418h850 v-123h-850v-417h1061v-125h-1188v317h-479q-57 -80 -112.5 -160t-114.5 -157h-158zM645 557h393v549zM862 668l64 92v-92h-64z" />
<glyph unicode="&#xc7;" horiz-adv-x="2502" d="M20 717q0 209 63.5 355.5t178.5 238.5t273.5 134t347.5 42h223q117 0 226.5 -11.5t219 -54.5t223 -127t240.5 -229q43 -43 84 -111.5t78 -132.5l-399 -235l-156 155q-72 47 -149.5 68.5t-161.5 21.5h-224q-82 0 -155.5 -16t-130 -53t-89 -98.5t-32.5 -151.5q0 -49 8 -82 q43 -14 92 -20.5t103 -6.5h223q135 0 255 57.5t212 190.5l409 -241l195 -207q-117 -199 -268.5 -303.5t-333.5 -135.5l4 -4q76 -76 76 -215q0 -121 -58.5 -186.5t-146.5 -95t-189.5 -34.5t-187.5 -5h-80l-211 198v359q-55 12 -110.5 31.5t-106.5 44t-97 54.5t-79 64 q-115 98 -187.5 185.5t-112.5 174.5t-54.5 180t-14.5 202zM72 717q0 -184 54 -317.5t154.5 -221.5t241 -131t312.5 -47v-526h114.5t127 6t122.5 21.5t105.5 46t74 79.5t27.5 123q0 104 -54.5 170t-158.5 80q231 4 414.5 94t304.5 297l-326 193q-86 -123 -209 -177.5 t-270 -54.5h-223q-92 0 -174 18.5t-143.5 60.5t-98.5 111.5t-37 174.5q0 102 37 171.5t99.5 112.5t144.5 61.5t172 18.5h223q147 0 270 -54t209 -177l326 192q-70 119 -156 196t-187.5 121t-217 60.5t-244.5 16.5h-223q-178 0 -326.5 -40t-256 -126t-168 -222.5 t-60.5 -330.5zM186 717q0 166 52.5 280.5t145.5 187t221 104.5t278 32h223q90 0 181 -8t175 -33t158 -73t131 -128q-35 -18 -66.5 -38.5t-64.5 -43.5q-98 111 -234.5 155t-279.5 44h-223q-121 0 -224.5 -25.5t-179.5 -82t-120 -148.5t-44 -223q0 -133 44 -224.5t120 -148.5 t179.5 -81.5t224.5 -24.5h223q143 0 279.5 44t234.5 154l131 -82q-63 -88 -145 -137t-175.5 -71.5t-192.5 -27.5t-198 -5v-226l58 2q37 0 73.5 -5t67.5 -19.5t50.5 -42t19.5 -72.5q0 -70 -43 -105.5t-103.5 -52t-127 -18.5t-113.5 -2v82h71.5t94 7t82 25.5t34.5 53.5 q0 33 -33.5 47t-77.5 17t-89.5 1t-67.5 -2v308q-154 6 -291 31.5t-238.5 92t-161 182t-59.5 300.5z" />
<glyph unicode="&#xc8;" horiz-adv-x="2254" d="M2 -53v1540h786l-557 438h623l569 -438h291l199 -211v-445h-314l101 -100v-328h16l199 -210v-445h-1702zM53 -2h1612v354h-1257v191h1042v348h-1042v190h1255v355h-1610v-1438zM168 113v1208h1380v-125h-1253v-418h1042v-123h-1042v-417h1255v-125h-1382zM414 1874 l452 -340h416l-442 340h-426zM641 1800h143l258 -192h-141q-66 47 -130 96t-130 96z" />
<glyph unicode="&#xc9;" horiz-adv-x="2254" d="M2 -53v1540h301l574 438h593l187 -211l-303 -227h360l199 -211v-445h-314l101 -100v-328h16l199 -210v-445h-1702zM53 -2h1612v354h-1257v191h1042v348h-1042v190h1255v355h-1610v-1438zM168 113v1208h1380v-125h-1253v-418h1042v-123h-1042v-417h1255v-125h-1382z M449 1534h415l453 340h-426zM688 1608l258 192h144q-66 -47 -130.5 -96t-130.5 -96h-141z" />
<glyph unicode="&#xca;" horiz-adv-x="2254" d="M2 -53v1540l782 508h181l751 -508l197 -211v-445h-314l101 -100v-328h16l199 -210v-445h-1702zM53 -2h1612v354h-1257v191h1042v348h-1042v190h1255v355h-1610v-1438zM168 113v1208h1380v-125h-1253v-418h1042v-123h-1042v-417h1255v-125h-1382zM195 1538h467l212 143 l211 -143h467l-602 406h-151zM489 1610l340 235h91q86 -59 170 -117.5t170 -117.5h-115l-271 172l-272 -172h-113z" />
<glyph unicode="&#xcb;" horiz-adv-x="2254" d="M2 -53v1540h401v444h459l37 -49v49h461l199 -211v-233h155l199 -211v-445h-314l101 -100v-328h16l199 -210v-445h-1702zM53 -2h1612v354h-1257v191h1042v348h-1042v190h1255v355h-1610v-1438zM168 113v1208h1380v-125h-1253v-418h1042v-123h-1042v-417h1255v-125h-1382z M455 1538h356v342h-356v-342zM569 1651v116h129v-116h-129zM950 1538h359v342h-359v-342zM1065 1651v116h129v-116h-129z" />
<glyph unicode="&#xcc;" horiz-adv-x="937" d="M-381 1925h594l575 -442l189 -199h-348l8 -8v-1528h-438l-211 199v1540h176zM-227 1874l452 -340h416l-442 340h-426zM0 1800h143l258 -192h-141q-66 47 -130 96t-130 96zM39 -2h348v1438h-348v-1438zM152 113v1208h122v-1208h-122z" />
<glyph unicode="&#xcd;" horiz-adv-x="937" d="M-381 1483l578 442h594l186 -211l-445 -334l105 -104v-1528h-438l-211 199v1337h-146zM-231 1534h415l453 340h-426zM8 1608l258 192h144q-66 -47 -130.5 -96t-129.5 -96h-142zM39 -2h348v1438h-348v-1438zM152 113v1208h122v-1208h-122z" />
<glyph unicode="&#xce;" horiz-adv-x="937" d="M-631 1487l756 508h180l752 -508l186 -199h-606v-12v-1528h-438l-211 199v1341h-394zM-465 1538h467l213 143l211 -143h467l-602 406h-152zM-170 1610l340 235h90q86 -59 170 -117.5t170 -117.5h-115l-270 172l-272 -172h-113zM39 -2h348v1438h-348v-1438zM152 113v1208 h122v-1208h-122z" />
<glyph unicode="&#xcf;" horiz-adv-x="937" d="M-270 1487v444h458l37 -49v49h461l199 -211v-432h-248v-12v-1528h-438l-211 199v1341h-47zM-219 1538h356v342h-356v-342zM-104 1651v116h129v-116h-129zM39 -2h348v1438h-348v-1438zM152 113v1208h122v-1208h-122zM276 1538h359v342h-359v-342zM391 1651v116h129v-116 h-129z" />
<glyph unicode="&#xd0;" horiz-adv-x="2621" d="M-74 492v450h260v545h1020q117 0 227.5 -15.5t218 -58.5t214 -123t217.5 -209q92 -92 137 -237.5t45 -331.5q0 -207 -63.5 -352.5t-176 -236.5t-270.5 -133t-344 -42h-1014l-211 199v346h-49zM-23 543h261v-545h968q178 0 326.5 40t256 126t167 222t59.5 331t-59.5 331 t-167 222t-256 126t-326.5 40h-968v-545h-261v-348zM90 655v123h260v543h856q150 0 278 -32t221 -104.5t145.5 -187t52.5 -280.5t-52.5 -280.5t-145.5 -187.5t-221 -104.5t-278 -31.5h-856v542h-260zM473 238h733q119 0 223.5 24.5t180.5 81.5t120 148.5t44 224.5 q0 131 -44 223t-120 148.5t-180.5 82t-223.5 25.5h-733v-418h629v-123h-629v-417zM588 352v191h626v348h-626v190h618q90 0 172 -18.5t144.5 -61.5t99.5 -112.5t37 -171.5q0 -104 -37 -174t-98.5 -112t-143.5 -60.5t-174 -18.5h-618zM1364 831l100 -100v-274q66 35 105 98 t39 162q0 47 -13 90q-86 25 -184 24h-47z" />
<glyph unicode="&#xd1;" horiz-adv-x="2160" d="M-2 -53v1540h174l-33 16q37 74 96.5 162t131 165t152.5 129t163 52q76 0 138.5 -32.5t115.5 -67.5q29 -18 44 -26.5t32 -8.5q16 -2 27.5 10t19.5 29q8 18 14 43h492l194 -211q-33 -59 -77 -128t-99 -132h74l198 -211v-1528h-319l-887 813v-813h-440zM49 -2h350v872 l951 -872h256v1438h-351v-871l-948 871h-258v-1438zM164 113v1208h104l1100 -1014v1014h123v-1208h-102l-1104 1013v-1013h-121zM223 1554h395q10 23 32 52.5t50 29.5q16 0 41 -19.5t63 -43t91 -43t127 -19.5q72 0 140.5 40t129 99.5t109.5 128t80 128.5h-375 q-4 -10 -13.5 -25.5t-19.5 -31t-22.5 -27t-24.5 -11.5q-31 0 -66.5 23t-78.5 50.5t-92.5 51t-106.5 23.5q-72 0 -141.5 -42t-130 -103.5t-108.5 -132t-79 -128.5zM408 1667q23 25 55.5 55.5t69 58t75.5 47t74 19.5q70 0 115 -23.5t79.5 -51t68.5 -50t81 -22.5q43 0 75 30.5 t54 63.5h139q-23 -25 -54.5 -57.5t-68 -60t-75.5 -47t-74 -19.5q-66 0 -111 23.5t-82.5 53t-72.5 53t-78 23.5q-45 0 -76 -31.5t-53 -64.5h-141zM524 1305l680 -623v580q-102 4 -165.5 38.5t-102.5 63.5q-8 4 -13 8l-10 8q-6 4 -8 6q-12 0 -27.5 -29.5t-25.5 -51.5h-328z " />
<glyph unicode="&#xd2;" horiz-adv-x="2465" d="M33 717q0 209 63.5 355.5t178 238.5t273.5 134t347 42h23l-558 438h627l576 -442q70 -68 119 -111t94 -83t94 -88t119 -122q92 -92 140 -236.5t48 -330.5q0 -207 -62.5 -352.5t-176 -236.5t-270.5 -133t-343 -42h-225q-209 0 -382 48t-290 163q-117 102 -192.5 193.5 t-120.5 181.5t-63.5 183t-18.5 200zM84 717q0 -195 60.5 -331t168 -222t256 -126t326.5 -40h225q178 0 325.5 40t255 126t167 222t59.5 331t-59.5 331t-167 222t-255 126t-325.5 40h-225q-178 0 -326.5 -40t-256 -126t-168 -222t-60.5 -331zM199 717q0 166 52 280.5t145 187 t221 104.5t278 32h225q150 0 277 -33t220 -104.5t145.5 -186t52.5 -280.5t-52.5 -280.5t-145.5 -186.5t-220 -104.5t-277 -32.5h-225q-150 0 -278 31.5t-221 104.5t-145 187.5t-52 280.5zM328 717q0 -133 44 -224.5t119.5 -148.5t179 -81.5t224.5 -24.5h225 q119 0 222.5 25.5t180 81.5t120 147.5t43.5 224.5q0 131 -44.5 223t-120 148.5t-179 82t-222.5 25.5h-225q-121 0 -224.5 -25.5t-179 -82t-119.5 -148.5t-44 -223zM442 717q0 102 37 171.5t99.5 112.5t144.5 61.5t172 18.5h225q90 0 172 -18.5t143.5 -61.5t98.5 -112.5 t37 -171.5t-36 -172t-97.5 -113t-143.5 -61.5t-174 -18.5h-225q-92 0 -174 18.5t-143.5 60.5t-98.5 111.5t-37 174.5zM547 1874l452 -340h416l-442 340h-426zM692 512q0 -49 8 -82q43 -14 92.5 -20.5t102.5 -6.5h225q80 0 153 15.5t128 52.5t87 97.5t32 148.5q0 49 -13 90 q-84 25 -182 24h-225q-82 0 -156 -16t-130 -53t-89 -98.5t-33 -151.5zM774 1800h144l258 -192h-142q-66 47 -130 96t-130 96z" />
<glyph unicode="&#xd3;" horiz-adv-x="2465" d="M33 717q0 143 30.5 258t89 202t141.5 148t187 98l-84 60l578 442h594l186 -211l-342 -256q68 -16 132.5 -36.5t132 -60.5t143 -105.5t166.5 -170.5q92 -92 141 -239.5t49 -333.5q0 -207 -62.5 -352.5t-176 -236.5t-270.5 -133t-343 -42h-225q-104 0 -203.5 11.5t-189 36 t-165 63.5t-132.5 96q-117 102 -190 193.5t-115 182.5t-57 185t-15 201zM84 717q0 -195 60.5 -331t168 -222t256 -126t326.5 -40h225q178 0 325.5 40t255 126t167 222t59.5 331t-59.5 331t-167 222t-255 126t-325.5 40h-225q-178 0 -326.5 -40t-256 -126t-168 -222 t-60.5 -331zM199 717q0 166 52 280.5t145 187t221 104.5t278 32h225q150 0 277 -33t220 -104.5t145.5 -186t52.5 -280.5t-52.5 -280.5t-145.5 -186.5t-220 -104.5t-277 -32.5h-225q-150 0 -278 31.5t-221 104.5t-145 187.5t-52 280.5zM328 717q0 -133 44 -224.5 t119.5 -148.5t179 -81.5t224.5 -24.5h225q119 0 222.5 25.5t180 81.5t120 147.5t43.5 224.5q0 131 -44.5 223t-120 148.5t-179 82t-222.5 25.5h-225q-121 0 -224.5 -25.5t-179 -82t-119.5 -148.5t-44 -223zM442 717q0 102 37 171.5t99.5 112.5t144.5 61.5t172 18.5h225 q90 0 172 -18.5t143.5 -61.5t98.5 -112.5t37 -171.5t-36 -172t-97.5 -113t-143.5 -61.5t-174 -18.5h-225q-92 0 -174 18.5t-143.5 60.5t-98.5 111.5t-37 174.5zM547 1534h416l452 340h-426zM692 512q0 -49 8 -82q43 -14 92.5 -20.5t102.5 -6.5h225q80 0 153 15.5t128 52.5 t87 97.5t32 148.5q0 49 -13 90q-84 25 -182 24h-225q-82 0 -156 -16t-130 -53t-89 -98.5t-33 -151.5zM786 1608l258 192h144q-66 -47 -130.5 -96t-129.5 -96h-142z" />
<glyph unicode="&#xd4;" horiz-adv-x="2465" d="M33 717q0 229 76.5 383.5t214.5 245.5l-164 141l755 508h181l751 -508l187 -199h-271q10 -10 26.5 -23.5t44.5 -39t70 -66.5t103 -106q92 -92 131 -223.5t39 -317.5q0 -207 -62.5 -352.5t-176 -236.5t-270.5 -133t-343 -42h-225q-209 0 -389.5 48t-296.5 163 q-117 102 -190.5 193.5t-115.5 181.5t-58.5 183t-16.5 200zM84 717q0 -195 60.5 -331t168 -222t256 -126t326.5 -40h225q178 0 325.5 40t255 126t167 222t59.5 331t-59.5 331t-167 222t-255 126t-325.5 40h-225q-178 0 -326.5 -40t-256 -126t-168 -222t-60.5 -331zM199 717 q0 166 52 280.5t145 187t221 104.5t278 32h225q150 0 277 -33t220 -104.5t145.5 -186t52.5 -280.5t-52.5 -280.5t-145.5 -186.5t-220 -104.5t-277 -32.5h-225q-150 0 -278 31.5t-221 104.5t-145 187.5t-52 280.5zM326 1538h467l213 143l211 -143h466l-602 406h-151zM328 717 q0 -133 44 -224.5t119.5 -148.5t179 -81.5t224.5 -24.5h225q119 0 222.5 25.5t180 81.5t120 147.5t43.5 224.5q0 131 -44.5 223t-120 148.5t-179 82t-222.5 25.5h-225q-121 0 -224.5 -25.5t-179 -82t-119.5 -148.5t-44 -223zM442 717q0 102 37 171.5t99.5 112.5t144.5 61.5 t172 18.5h225q90 0 172 -18.5t143.5 -61.5t98.5 -112.5t37 -171.5t-36 -172t-97.5 -113t-143.5 -61.5t-174 -18.5h-225q-92 0 -174 18.5t-143.5 60.5t-98.5 111.5t-37 174.5zM621 1610l340 235h90q86 -59 170 -117.5t170 -117.5h-115l-270 172l-273 -172h-112zM692 512 q0 -49 8 -82q43 -14 92.5 -20.5t102.5 -6.5h225q80 0 153 15.5t128 52.5t87 97.5t32 148.5q0 49 -13 90q-84 25 -182 24h-225q-82 0 -156 -16t-130 -53t-89 -98.5t-33 -151.5z" />
<glyph unicode="&#xd5;" horiz-adv-x="2465" d="M33 717q0 260 96 421.5t266 247.5l-131 117q37 74 96.5 162t131 165t152.5 129t163 52q76 0 138.5 -32.5t115.5 -67.5q29 -18 51.5 -32.5t38.5 -14.5l47 94h492l194 -211q-23 -41 -51.5 -88t-63 -94t-73.5 -93.5t-82 -85.5q33 -16 68.5 -35.5t78.5 -53t99.5 -87 t134.5 -137.5q92 -92 137 -233.5t45 -327.5q0 -207 -62.5 -352.5t-176 -236.5t-270.5 -133t-343 -42h-225q-104 0 -201.5 9.5t-185.5 32t-163 60t-132 95.5q-117 102 -191.5 195t-117.5 185.5t-59.5 188.5t-16.5 203zM84 717q0 -195 60.5 -331t168 -222t256 -126t326.5 -40 h225q178 0 325.5 40t255 126t167 222t59.5 331t-59.5 331t-167 222t-255 126t-325.5 40h-225q-178 0 -326.5 -40t-256 -126t-168 -222t-60.5 -331zM199 717q0 166 52 280.5t145 187t221 104.5t278 32h225q150 0 277 -33t220 -104.5t145.5 -186t52.5 -280.5t-52.5 -280.5 t-145.5 -186.5t-220 -104.5t-277 -32.5h-225q-150 0 -278 31.5t-221 104.5t-145 187.5t-52 280.5zM328 717q0 -133 44 -224.5t119.5 -148.5t179 -81.5t224.5 -24.5h225q119 0 222.5 25.5t180 81.5t120 147.5t43.5 224.5q0 131 -44.5 223t-120 148.5t-179 82t-222.5 25.5 h-225q-121 0 -224.5 -25.5t-179 -82t-119.5 -148.5t-44 -223zM348 1554h395q10 23 32 52.5t50 29.5q16 0 41 -19.5t63 -43t91 -43t127 -19.5q72 0 140.5 40t129 99.5t109.5 128t80 128.5h-375q-4 -10 -13.5 -25.5t-19.5 -31t-22.5 -27t-24.5 -11.5q-31 0 -66.5 23 t-78.5 50.5t-92.5 51t-106.5 23.5q-72 0 -141.5 -42t-130 -103.5t-108.5 -132t-79 -128.5zM442 717q0 102 37 171.5t99.5 112.5t144.5 61.5t172 18.5h225q90 0 172 -18.5t143.5 -61.5t98.5 -112.5t37 -171.5t-36 -172t-97.5 -113t-143.5 -61.5t-174 -18.5h-225 q-92 0 -174 18.5t-143.5 60.5t-98.5 111.5t-37 174.5zM532 1667q23 25 56 55.5t69.5 58t75.5 47t74 19.5q70 0 115 -23.5t79.5 -51t68.5 -50t81 -22.5q43 0 74.5 30.5t54.5 63.5h139q-23 -25 -54.5 -57.5t-68 -60t-75.5 -47t-74 -19.5q-66 0 -111 23.5t-83 53t-72.5 53 t-77.5 23.5q-45 0 -76 -31.5t-53 -64.5h-142zM692 512q0 -49 8 -82q43 -14 92.5 -20.5t102.5 -6.5h225q80 0 153 15.5t128 52.5t87 97.5t32 148.5q0 49 -13 90q-84 25 -182 24h-225q-82 0 -156 -16t-130 -53t-89 -98.5t-33 -151.5z" />
<glyph unicode="&#xd6;" horiz-adv-x="2459" d="M33 717q0 156 35.5 277.5t103.5 210.5t163 148.5t214 92.5l-53 41v444h458l37 -49v49h461l199 -211v-352q27 -16 55.5 -33.5t66 -48.5t89 -80t125.5 -129q92 -92 141 -235.5t49 -329.5q0 -207 -62.5 -352.5t-176 -236.5t-270.5 -133t-343 -42h-225q-104 0 -204.5 12.5 t-191 38t-168 65.5t-135.5 97q-117 102 -188.5 193.5t-111.5 180.5t-54 182t-14 200zM84 717q0 -195 60.5 -331t168 -222t256 -126t326.5 -40h225q178 0 325.5 40t255 126t167 222t59.5 331t-59.5 331t-167 222t-255 126t-325.5 40h-225q-178 0 -326.5 -40t-256 -126 t-168 -222t-60.5 -331zM199 717q0 166 52 280.5t145 187t221 104.5t278 32h225q150 0 277 -33t220 -104.5t145.5 -186t52.5 -280.5t-52.5 -280.5t-145.5 -186.5t-220 -104.5t-277 -32.5h-225q-150 0 -278 31.5t-221 104.5t-145 187.5t-52 280.5zM328 717q0 -133 44 -224.5 t119.5 -148.5t179 -81.5t224.5 -24.5h225q119 0 222.5 25.5t180 81.5t120 147.5t43.5 224.5q0 131 -44.5 223t-120 148.5t-179 82t-222.5 25.5h-225q-121 0 -224.5 -25.5t-179 -82t-119.5 -148.5t-44 -223zM442 717q0 102 37 171.5t99.5 112.5t144.5 61.5t172 18.5h225 q90 0 172 -18.5t143.5 -61.5t98.5 -112.5t37 -171.5t-36 -172t-97.5 -113t-143.5 -61.5t-174 -18.5h-225q-92 0 -174 18.5t-143.5 60.5t-98.5 111.5t-37 174.5zM547 1538h356v342h-356v-342zM662 1651v116h129v-116h-129zM692 512q0 -49 8 -82q43 -14 92.5 -20.5t102.5 -6.5 h225q80 0 153 15.5t128 52.5t87 97.5t32 148.5q0 49 -13 90q-84 25 -182 24h-225q-82 0 -156 -16t-130 -53t-89 -98.5t-33 -151.5zM1042 1538h359v342h-359v-342zM1157 1651v116h129v-116h-129z" />
<glyph unicode="&#xd8;" horiz-adv-x="2500" d="M33 717q0 209 63.5 355.5t178 238.5t273.5 134t347 42h225q53 0 106.5 -4t102.5 -10l8 14h592l193 -211l-162 -199l16 -16q109 -111 155 -255t46 -294q0 -207 -62.5 -352.5t-176 -236.5t-270.5 -133t-343 -42h-225q-53 0 -108.5 4t-106.5 10l-11 -14h-575l-217 199 l166 205q-117 111 -166 260t-49 305zM84 717q0 -80 12.5 -159t40 -151.5t72.5 -136t110 -114.5l-129 -158h457l15 18q117 -18 233 -18h225q178 0 325.5 40t255 126t167 222t59.5 331q0 80 -12 158.5t-40 151.5t-73 136.5t-110 114.5l129 158h-457l-14 -19q-115 18 -230 19 h-225q-178 0 -326.5 -40t-256 -126t-168 -222.5t-60.5 -330.5zM199 717q0 166 52 280.5t145 187t221 104.5t278 32h225q152 0 279 -34t219 -106.5t144.5 -187t52.5 -276.5q0 -166 -52.5 -280.5t-145.5 -186.5t-220 -104.5t-277 -32.5h-225q-152 0 -279 32.5t-220 105.5 t-145 187.5t-52 278.5zM328 717q0 -80 13 -141.5t44 -112.5t79 -92t116 -78q180 223 361 443t362 444q-47 4 -91.5 10t-91.5 6h-225q-121 0 -224.5 -25.5t-179 -82t-119.5 -148.5t-44 -223zM442 717q0 102 37 171.5t99.5 112.5t144.5 61.5t172 18.5h178l-518 -635 q-61 49 -87 121t-26 150zM709 254q33 -4 67.5 -10t67.5 -6h276q119 0 222.5 25.5t180 81.5t120 147.5t43.5 224.5q0 156 -59.5 254t-194.5 170zM936 352l518 635q61 -49 89 -120.5t28 -149.5q0 -102 -36 -172t-97.5 -113t-143.5 -61.5t-174 -18.5h-184z" />
<glyph unicode="&#xd9;" horiz-adv-x="2643" d="M27 717v770h460l199 -211v-764q0 -23 1 -43t5 -39q86 -27 195 -27h225q80 0 152.5 15.5t128 52.5t88 96.5t32.5 149.5v567h-356l-823 641h622l570 -438h446l199 -211v-764q0 -207 -63.5 -352.5t-176 -236.5t-270.5 -133t-344 -42h-225q-209 0 -390.5 52.5t-295.5 166.5 q-117 100 -191 189.5t-116 177.5t-57 181t-15 202zM78 717q0 -195 59.5 -331t167 -222t256 -126t326.5 -40h225q178 0 326.5 40t256 126t167 222t59.5 331v719h-356v-719q0 -104 -37 -174t-98.5 -112t-143.5 -60.5t-174 -18.5h-225q-92 0 -174 18.5t-143.5 61.5t-97.5 112.5 t-36 172.5v719h-358v-719zM190 717v604h132v-604q0 -133 43 -224.5t119.5 -147.5t179 -81.5t223.5 -25.5h225q119 0 222.5 25.5t180 81.5t120.5 147.5t44 224.5v604h129v-604q0 -166 -53 -280.5t-146 -187.5t-220 -104.5t-277 -31.5h-225q-150 0 -278 31.5t-221 104.5 t-145.5 187.5t-52.5 280.5zM516 1874l453 -340h415l-442 340h-426zM743 1800h144l258 -192h-141q-66 47 -130.5 96t-130.5 96z" />
<glyph unicode="&#xda;" horiz-adv-x="2643" d="M27 717v770h417l574 438h594l186 -211l-571 -430h-549l8 -8v-764q0 -23 1 -43t5 -39q86 -27 195 -27h225q80 0 152.5 15.5t128 52.5t88 96.5t32.5 149.5v770h459l199 -211v-764q0 -207 -63.5 -352.5t-176 -236.5t-270.5 -133t-344 -42h-225q-104 0 -201.5 9.5t-185 33 t-161 61t-130.5 95.5q-117 100 -192 192t-118 184.5t-60 188.5t-17 205zM78 717q0 -195 59.5 -331t167 -222t256 -126t326.5 -40h225q178 0 326.5 40t256 126t167 222t59.5 331v719h-356v-719q0 -104 -37 -174t-98.5 -112t-143.5 -60.5t-174 -18.5h-225q-92 0 -174 18.5 t-143.5 61.5t-97.5 112.5t-36 172.5v719h-358v-719zM190 717v604h132v-604q0 -133 43 -224.5t119.5 -147.5t179 -81.5t223.5 -25.5h225q119 0 222.5 25.5t180 81.5t120.5 147.5t44 224.5v604h129v-604q0 -166 -53 -280.5t-146 -187.5t-220 -104.5t-277 -31.5h-225 q-150 0 -278 31.5t-221 104.5t-145.5 187.5t-52.5 280.5zM590 1534h416l452 340h-426zM829 1608l258 192h144q-66 -47 -130.5 -96t-129.5 -96h-142z" />
<glyph unicode="&#xdb;" horiz-adv-x="2643" d="M27 717v770h120l756 508h180l752 -508h137v-12l199 -199v-764q0 -207 -63.5 -352.5t-176 -236.5t-270.5 -133t-344 -42h-225q-209 0 -378 51t-284 166l-145 144q-123 92 -190.5 241.5t-67.5 366.5zM78 717q0 -195 59.5 -331t167 -222t256 -126t326.5 -40h225 q178 0 326.5 40t256 126t167 222t59.5 331v719h-356v-719q0 -104 -37 -174t-98.5 -112t-143.5 -60.5t-174 -18.5h-225q-92 0 -174 18.5t-143.5 61.5t-97.5 112.5t-36 172.5v719h-358v-719zM190 717v604h132v-604q0 -133 43 -224.5t119.5 -147.5t179 -81.5t223.5 -25.5h225 q119 0 222.5 25.5t180 81.5t120.5 147.5t44 224.5v604h129v-604q0 -166 -53 -280.5t-146 -187.5t-220 -104.5t-277 -31.5h-225q-150 0 -278 31.5t-221 104.5t-145.5 187.5t-52.5 280.5zM313 1538h467l213 143l211 -143h467l-602 406h-151zM479 274l15 -28q8 -4 15 -8.5 t17 -8.5zM608 1610l340 235h90q86 -59 170 -117.5t170 -117.5h-114l-271 172l-272 -172h-113zM674 1288l12 -12v-764q0 -23 1 -43t5 -39q86 -27 195 -27h225q80 0 152.5 15.5t128 52.5t88 96.5t32.5 149.5v571h-116l-199 135l-201 -135h-323z" />
<glyph unicode="&#xdc;" horiz-adv-x="2643" d="M27 717v770h460l199 -211v-764q0 -23 1 -43t5 -39q86 -27 195 -27h225q80 0 152.5 15.5t128 52.5t88 96.5t32.5 149.5v571h-274l-49 49v-49h-447l-211 199v444h459l37 -49v49h461l199 -211v-233h284l199 -211v-764q0 -207 -63.5 -352.5t-176 -236.5t-270.5 -133t-344 -42 h-225q-104 0 -202.5 11.5t-188 36t-164 63.5t-131.5 96q-117 100 -191 191.5t-116 181.5t-57 185t-15 204zM78 717q0 -195 59.5 -331t167 -222t256 -126t326.5 -40h225q178 0 326.5 40t256 126t167 222t59.5 331v719h-356v-719q0 -104 -37 -174t-98.5 -112t-143.5 -60.5 t-174 -18.5h-225q-92 0 -174 18.5t-143.5 61.5t-97.5 112.5t-36 172.5v719h-358v-719zM190 717v604h132v-604q0 -133 43 -224.5t119.5 -147.5t179 -81.5t223.5 -25.5h225q119 0 222.5 25.5t180 81.5t120.5 147.5t44 224.5v604h129v-604q0 -166 -53 -280.5t-146 -187.5 t-220 -104.5t-277 -31.5h-225q-150 0 -278 31.5t-221 104.5t-145.5 187.5t-52.5 280.5zM584 1538h356v342h-356v-342zM698 1651v116h129v-116h-129zM1079 1538h359v342h-359v-342zM1194 1651v116h129v-116h-129z" />
<glyph unicode="&#xdd;" horiz-adv-x="2299" d="M-195 1487h601l573 438h594l186 -211l-571 -430h-535l324 -321l520 524h643l191 -211l-924 -924v-604h-444l-211 199v604q-111 109 -231 227.5t-242.5 240.5t-243.5 240.5t-230 227.5zM-70 1436l873 -865v-573h354v577l858 861h-495l-541 -545l-549 545h-500zM207 1321 h180l594 -584l584 584h178l-701 -698v-510h-127v508zM551 1534h416l452 340h-426zM791 1608l258 192h143q-66 -47 -130.5 -96t-129.5 -96h-141z" />
<glyph unicode="&#xde;" horiz-adv-x="2488" d="M10 -53v1540h453l166 -178h522q88 0 171 -11.5t167 -48.5t172 -105.5t188 -182.5q70 -70 106 -182.5t36 -254.5q0 -156 -46.5 -265t-130 -178t-200.5 -100.5t-258 -31.5h-694v-201h-441zM61 -2h351v201h739q131 0 239.5 29.5t186.5 93t121 164t43 243.5t-43 243.5 t-121 164t-186.5 92t-239.5 28.5h-739v179h-351v-1438zM172 113v1208h127v-176h852q102 0 190.5 -22.5t153 -72t100 -128t35.5 -193.5t-35.5 -193.5t-100 -128t-153 -72t-190.5 -22.5h-852v-200h-127zM299 440h852q72 0 134.5 15.5t109.5 49.5t74.5 89t27.5 135t-27.5 134.5 t-74.5 88t-109.5 49t-134.5 15.5h-852v-576zM412 553v348h739q43 0 85 -7t74.5 -26.5t53 -53.5t20.5 -85t-20.5 -85t-53 -54.5t-74.5 -28.5t-85 -8h-739zM662 604h489q45 0 86 9.5t68 37.5h-643v-47z" />
<glyph unicode="&#xdf;" horiz-adv-x="2146" d="M29 -53v909q0 145 74.5 255t188.5 182.5t249 109.5t258 37q84 0 185 -10.5t213 -48.5t228.5 -115.5t231.5 -212.5q53 -53 86 -137.5t33 -176.5q0 -59 -13.5 -107t-48.5 -93l62 -60q49 -49 77.5 -112.5t28.5 -141.5q0 -102 -39 -179t-103.5 -132t-147.5 -91t-173 -57.5 t-180 -29.5t-166 -8q-100 0 -202.5 22.5t-204.5 63.5v-66h-426zM80 -2h336v84q106 -49 221 -77t231 -28q72 0 157 7.5t170 27t164 52t139.5 83t97 120t36.5 163.5q0 102 -54 176t-140 125q88 86 88 213q0 133 -75 219t-185.5 136.5t-237.5 70t-229 19.5q-115 0 -242 -34 t-232.5 -100.5t-175 -166t-69.5 -232.5v-858zM195 111v745q0 117 64.5 197t160.5 129t207.5 70.5t206.5 21.5q74 0 173 -14.5t189 -52.5t152.5 -101.5t62.5 -161.5q0 -37 -21.5 -71.5t-52 -65.5t-65.5 -56.5t-62 -43.5q39 -16 92.5 -42t100.5 -62t81 -79t34 -94 q0 -74 -33 -127t-87.5 -91t-123 -61.5t-141 -36t-142 -17.5t-123.5 -5q-195 0 -368 74l78 78q145 -47 294 -47q55 0 145.5 8t176.5 32.5t148.5 70.5t62.5 122q0 43 -28.5 70.5t-71.5 46t-92.5 33t-92.5 31t-71.5 38t-28.5 56.5q0 23 20.5 42t51 35.5t67.5 32.5t67.5 34.5 t51 41t20.5 53.5q0 72 -57 116t-136 67.5t-161 31.5t-133 8q-68 0 -155 -16t-165.5 -53t-132 -96.5t-53.5 -145.5v-745h-110zM416 242v614q0 57 45 96t107.5 60.5t128 31t108.5 9.5q25 0 87 -2t127.5 -13.5t116 -33t50.5 -60.5l-92 -39l2 2q-35 -10 -69 -28.5t-60.5 -44 t-43 -58.5t-16.5 -71q0 -47 20.5 -83t53.5 -63t73 -44t81 -28h-5q41 -12 82 -26.5t82 -30.5q0 -27 -26.5 -46t-66.5 -32.5t-89 -21.5t-96 -12.5t-86 -5.5t-58 -1q-84 0 -165.5 16.5t-157.5 53.5zM666 393q53 -16 105 -23.5t101 -7.5q29 0 94.5 1.5t131.5 9.5 q-74 68 -120 115t-73.5 83.5t-38 67.5t-10.5 66q0 45 16 83q-39 -6 -75.5 -17t-66.5 -27.5t-47 -39t-17 -53.5v-258z" />
<glyph unicode="&#xe0;" d="M-78 -53l1098 1540h61l-551 438h621l575 -442l189 -199h-432l1073 -1536h-545l-207 199l-84 119h-809q-25 -37 -54.5 -78t-59 -83t-58 -82t-53.5 -75h-547zM23 -2h434l225 317h926l223 -317h434l-1003 1438h-215zM238 113q217 305 433 604t431 604h98l846 -1208h-154 l-221 317h-1046q-57 -78 -111.5 -159t-112.5 -158h-163zM711 1874l452 -340h416l-442 340h-426zM713 557h874l-432 612zM932 668l219 307l215 -307h-434zM938 1800h143l258 -192h-141q-66 47 -130 96t-130 96z" />
<glyph unicode="&#xe1;" d="M-78 -53l952 1337h-90l-223 199l578 442h594l186 -211l-496 -373l68 -65l1065 -1528h-545l-207 199l-84 119h-809q-25 -37 -54.5 -78t-59 -83t-58 -82t-53.5 -75h-547zM23 -2h434l225 317h926l223 -317h434l-1003 1438h-215zM238 113q217 305 433 604t431 604h98 l846 -1208h-154l-221 317h-1046q-57 -78 -111.5 -159t-112.5 -158h-163zM711 1534h415l453 340h-426zM713 557h874l-432 612zM932 668l219 307l215 -307h-434zM950 1608l258 192h144q-66 -47 -130.5 -96t-129.5 -96h-142z" />
<glyph unicode="&#xe2;" d="M-78 -53l957 1341h-334l-226 199l756 508h180l752 -508l186 -199h-624h-86l1073 -1540h-545l-207 199l-84 119h-809q-25 -37 -54.5 -78t-59 -83t-58 -82t-53.5 -75h-547zM23 -2h434l225 317h926l223 -317h434l-1003 1438h-215zM238 113q217 305 433 604t431 604h98 l846 -1208h-154l-221 317h-1046q-57 -78 -111.5 -159t-112.5 -158h-163zM485 1538h467l213 143l211 -143h467l-602 406h-151zM713 557h874l-432 612zM780 1610l340 235h90q86 -59 170 -117.5t170 -117.5h-114l-271 172l-272 -172h-113zM932 668l219 307l215 -307h-434z" />
<glyph unicode="&#xe3;" d="M-78 -53l967 1358h-217l-215 198q37 74 96 162t131 165t153 129t162 52q76 0 138.5 -32.5t115.5 -67.5q29 -18 46.5 -30.5t33.5 -12.5q10 2 20.5 16t18.5 31q8 20 19 43h491l195 -211q-39 -72 -98.5 -161t-134.5 -164.5t-163 -123t-182 -34.5l1057 -1516h-545l-207 199 l-84 119h-809q-25 -37 -54.5 -78t-59 -83t-58 -82t-53.5 -75h-547zM23 -2h434l225 317h926l223 -317h434l-1003 1438h-215zM238 113q217 305 433 604t431 604h98l846 -1208h-154l-221 317h-1046q-57 -78 -111.5 -159t-112.5 -158h-163zM541 1554h395q10 23 31.5 52.5 t50.5 29.5q16 0 40.5 -19.5t62.5 -43t91.5 -43t126.5 -19.5q72 0 140.5 40t129 99.5t109.5 128t80 128.5h-360h-4q-4 -10 -12.5 -25.5t-20.5 -31t-26.5 -27t-31.5 -11.5q-31 0 -66.5 23t-78.5 50.5t-92 51t-107 23.5q-72 0 -141.5 -42t-129.5 -103.5t-108.5 -132 t-78.5 -128.5zM713 557h874l-432 612zM725 1667q23 25 55.5 55.5t69.5 58t76 47t73 19.5q70 0 115 -23.5t80 -51t68.5 -50t80.5 -22.5q43 0 75 30.5t55 63.5h139q-23 -25 -54.5 -57.5t-68.5 -60t-76 -47t-74 -19.5q-66 0 -110.5 23.5t-82.5 53t-73 53t-78 23.5 q-45 0 -75.5 -31.5t-53.5 -64.5h-141zM932 668l219 307l215 -307h-434z" />
<glyph unicode="&#xe4;" d="M-78 -53l963 1351l-201 189v444h459l37 -49v49h460l199 -211v-432h-360l12 -12l1065 -1528h-545l-207 199l-84 119h-809q-25 -37 -54.5 -78t-59 -83t-58 -82t-53.5 -75h-547zM23 -2h434l225 317h926l223 -317h434l-1003 1438h-215zM238 113q217 305 433 604t431 604h98 l846 -1208h-154l-221 317h-1046q-57 -78 -111.5 -159t-112.5 -158h-163zM713 557h874l-432 612zM735 1538h357v342h-357v-342zM850 1651v116h129v-116h-129zM932 668l219 307l215 -307h-434zM1231 1538h358v342h-358v-342zM1346 1651v116h129v-116h-129z" />
<glyph unicode="&#xe5;" d="M-78 -53l1059 1485l-43 45q-59 35 -91 100.5t-32 167.5q0 168 90 240.5t244 72.5q49 0 92 -4t92 -28.5t109.5 -77t144.5 -146.5q37 -37 63.5 -111.5t26.5 -150.5q0 -121 -45 -188.5t-129 -96.5l1053 -1507h-545l-207 199l-84 119h-809q-25 -37 -54.5 -78t-59 -83t-58 -82 t-53.5 -75h-547zM23 -2h434l225 317h926l223 -317h434l-1003 1438h-215zM238 113q217 305 433 604t431 604h98l846 -1208h-154l-221 317h-1046q-57 -78 -111.5 -159t-112.5 -158h-163zM713 557h874l-432 612zM866 1745q0 -141 73 -200.5t204 -59.5t207.5 57t76.5 203 q0 137 -74.5 199.5t-203.5 62.5t-206 -60.5t-77 -201.5zM932 668l219 307l215 -307h-434zM981 1745q0 78 44 114.5t118 36.5q76 0 123 -34.5t47 -116.5t-44 -116t-120 -34t-122 33t-46 117zM1049 1743q0 -92 94 -92q47 0 72.5 20.5t25.5 71.5t-25.5 71.5t-72.5 20.5 q-94 0 -94 -92z" />
<glyph unicode="&#xe6;" horiz-adv-x="2959" d="M-143 -53l1097 1540h1438l199 -211v-445h-314l101 -100v-328h14l199 -210v-445h-1506l-211 199v119h-36l-220 -318h-544zM-43 -2h432l221 317h316v-317h1415v354h-1063v191h850v348h-850v190h1063v355h-1360zM174 113q215 305 430 604t430 604h1192v-125h-1061v-418h850 v-123h-850v-417h1061v-125h-1188v317h-479q-57 -80 -112.5 -160t-114.5 -157h-158zM645 557h393v549zM862 668l64 92v-92h-64z" />
<glyph unicode="&#xe7;" horiz-adv-x="2449" d="M20 717q0 209 63.5 355.5t178.5 238.5t273.5 134t347.5 42h223q117 0 226.5 -11.5t219 -54.5t223 -127t240.5 -229q43 -43 84 -111.5t78 -132.5l-399 -235l-156 155q-72 47 -149.5 68.5t-161.5 21.5h-224q-82 0 -155.5 -16t-130 -53t-89 -98.5t-32.5 -151.5q0 -49 8 -82 q43 -14 92 -20.5t103 -6.5h223q135 0 255 57.5t212 190.5l409 -241l195 -207q-117 -199 -268.5 -303.5t-333.5 -135.5l4 -4q76 -76 76 -215q0 -121 -58.5 -186.5t-146.5 -95t-189.5 -34.5t-187.5 -5h-80l-211 198v359q-55 12 -110.5 31.5t-106.5 44t-97 54.5t-79 64 q-115 98 -187.5 185.5t-112.5 174.5t-54.5 180t-14.5 202zM72 717q0 -184 54 -317.5t154.5 -221.5t241 -131t312.5 -47v-526h114.5t127 6t122.5 21.5t105.5 46t74 79.5t27.5 123q0 104 -54.5 170t-158.5 80q231 4 414.5 94t304.5 297l-326 193q-86 -123 -209 -177.5 t-270 -54.5h-223q-92 0 -174 18.5t-143.5 60.5t-98.5 111.5t-37 174.5q0 102 37 171.5t99.5 112.5t144.5 61.5t172 18.5h223q147 0 270 -54t209 -177l326 192q-70 119 -156 196t-187.5 121t-217 60.5t-244.5 16.5h-223q-178 0 -326.5 -40t-256 -126t-168 -222.5 t-60.5 -330.5zM186 717q0 166 52.5 280.5t145.5 187t221 104.5t278 32h223q90 0 181 -8t175 -33t158 -73t131 -128q-35 -18 -66.5 -38.5t-64.5 -43.5q-98 111 -234.5 155t-279.5 44h-223q-121 0 -224.5 -25.5t-179.5 -82t-120 -148.5t-44 -223q0 -133 44 -224.5t120 -148.5 t179.5 -81.5t224.5 -24.5h223q143 0 279.5 44t234.5 154l131 -82q-63 -88 -145 -137t-175.5 -71.5t-192.5 -27.5t-198 -5v-226l58 2q37 0 73.5 -5t67.5 -19.5t50.5 -42t19.5 -72.5q0 -70 -43 -105.5t-103.5 -52t-127 -18.5t-113.5 -2v82h71.5t94 7t82 25.5t34.5 53.5 q0 33 -33.5 47t-77.5 17t-89.5 1t-67.5 -2v308q-154 6 -291 31.5t-238.5 92t-161 182t-59.5 300.5z" />
<glyph unicode="&#xe8;" horiz-adv-x="2254" d="M2 -53v1540h786l-557 438h623l569 -438h291l199 -211v-445h-314l101 -100v-328h16l199 -210v-445h-1702zM53 -2h1612v354h-1257v191h1042v348h-1042v190h1255v355h-1610v-1438zM168 113v1208h1380v-125h-1253v-418h1042v-123h-1042v-417h1255v-125h-1382zM414 1874 l452 -340h416l-442 340h-426zM641 1800h143l258 -192h-141q-66 47 -130 96t-130 96z" />
<glyph unicode="&#xe9;" horiz-adv-x="2254" d="M2 -53v1540h301l574 438h593l187 -211l-303 -227h360l199 -211v-445h-314l101 -100v-328h16l199 -210v-445h-1702zM53 -2h1612v354h-1257v191h1042v348h-1042v190h1255v355h-1610v-1438zM168 113v1208h1380v-125h-1253v-418h1042v-123h-1042v-417h1255v-125h-1382z M449 1534h415l453 340h-426zM688 1608l258 192h144q-66 -47 -130.5 -96t-130.5 -96h-141z" />
<glyph unicode="&#xea;" horiz-adv-x="2254" d="M2 -53v1540l782 508h181l751 -508l197 -211v-445h-314l101 -100v-328h16l199 -210v-445h-1702zM53 -2h1612v354h-1257v191h1042v348h-1042v190h1255v355h-1610v-1438zM168 113v1208h1380v-125h-1253v-418h1042v-123h-1042v-417h1255v-125h-1382zM195 1538h467l212 143 l211 -143h467l-602 406h-151zM489 1610l340 235h91q86 -59 170 -117.5t170 -117.5h-115l-271 172l-272 -172h-113z" />
<glyph unicode="&#xeb;" horiz-adv-x="2254" d="M2 -53v1540h401v444h459l37 -49v49h461l199 -211v-233h155l199 -211v-445h-314l101 -100v-328h16l199 -210v-445h-1702zM53 -2h1612v354h-1257v191h1042v348h-1042v190h1255v355h-1610v-1438zM168 113v1208h1380v-125h-1253v-418h1042v-123h-1042v-417h1255v-125h-1382z M455 1538h356v342h-356v-342zM569 1651v116h129v-116h-129zM950 1538h359v342h-359v-342zM1065 1651v116h129v-116h-129z" />
<glyph unicode="&#xec;" horiz-adv-x="937" d="M-381 1925h594l575 -442l189 -199h-348l8 -8v-1528h-438l-211 199v1540h176zM-227 1874l452 -340h416l-442 340h-426zM0 1800h143l258 -192h-141q-66 47 -130 96t-130 96zM39 -2h348v1438h-348v-1438zM152 113v1208h122v-1208h-122z" />
<glyph unicode="&#xed;" horiz-adv-x="937" d="M-381 1483l578 442h594l186 -211l-445 -334l105 -104v-1528h-438l-211 199v1337h-146zM-231 1534h415l453 340h-426zM8 1608l258 192h144q-66 -47 -130.5 -96t-129.5 -96h-142zM39 -2h348v1438h-348v-1438zM152 113v1208h122v-1208h-122z" />
<glyph unicode="&#xee;" horiz-adv-x="937" d="M-631 1487l756 508h180l752 -508l186 -199h-606v-12v-1528h-438l-211 199v1341h-394zM-465 1538h467l213 143l211 -143h467l-602 406h-152zM-170 1610l340 235h90q86 -59 170 -117.5t170 -117.5h-115l-270 172l-272 -172h-113zM39 -2h348v1438h-348v-1438zM152 113v1208 h122v-1208h-122z" />
<glyph unicode="&#xef;" horiz-adv-x="937" d="M-270 1487v444h458l37 -49v49h461l199 -211v-432h-248v-12v-1528h-438l-211 199v1341h-47zM-219 1538h356v342h-356v-342zM-104 1651v116h129v-116h-129zM39 -2h348v1438h-348v-1438zM152 113v1208h122v-1208h-122zM276 1538h359v342h-359v-342zM391 1651v116h129v-116 h-129z" />
<glyph unicode="&#xf0;" horiz-adv-x="2621" d="M-74 492v450h260v545h1020q117 0 227.5 -15.5t218 -58.5t214 -123t217.5 -209q92 -92 137 -237.5t45 -331.5q0 -207 -63.5 -352.5t-176 -236.5t-270.5 -133t-344 -42h-1014l-211 199v346h-49zM-23 543h261v-545h968q178 0 326.5 40t256 126t167 222t59.5 331t-59.5 331 t-167 222t-256 126t-326.5 40h-968v-545h-261v-348zM90 655v123h260v543h856q150 0 278 -32t221 -104.5t145.5 -187t52.5 -280.5t-52.5 -280.5t-145.5 -187.5t-221 -104.5t-278 -31.5h-856v542h-260zM473 238h733q119 0 223.5 24.5t180.5 81.5t120 148.5t44 224.5 q0 131 -44 223t-120 148.5t-180.5 82t-223.5 25.5h-733v-418h629v-123h-629v-417zM588 352v191h626v348h-626v190h618q90 0 172 -18.5t144.5 -61.5t99.5 -112.5t37 -171.5q0 -104 -37 -174t-98.5 -112t-143.5 -60.5t-174 -18.5h-618zM1364 831l100 -100v-274q66 35 105 98 t39 162q0 47 -13 90q-86 25 -184 24h-47z" />
<glyph unicode="&#xf1;" horiz-adv-x="2160" d="M-2 -53v1540h174l-33 16q37 74 96.5 162t131 165t152.5 129t163 52q76 0 138.5 -32.5t115.5 -67.5q29 -18 44 -26.5t32 -8.5q16 -2 27.5 10t19.5 29q8 18 14 43h492l194 -211q-33 -59 -77 -128t-99 -132h74l198 -211v-1528h-319l-887 813v-813h-440zM49 -2h350v872 l951 -872h256v1438h-351v-871l-948 871h-258v-1438zM164 113v1208h104l1100 -1014v1014h123v-1208h-102l-1104 1013v-1013h-121zM223 1554h395q10 23 32 52.5t50 29.5q16 0 41 -19.5t63 -43t91 -43t127 -19.5q72 0 140.5 40t129 99.5t109.5 128t80 128.5h-375 q-4 -10 -13.5 -25.5t-19.5 -31t-22.5 -27t-24.5 -11.5q-31 0 -66.5 23t-78.5 50.5t-92.5 51t-106.5 23.5q-72 0 -141.5 -42t-130 -103.5t-108.5 -132t-79 -128.5zM408 1667q23 25 55.5 55.5t69 58t75.5 47t74 19.5q70 0 115 -23.5t79.5 -51t68.5 -50t81 -22.5q43 0 75 30.5 t54 63.5h139q-23 -25 -54.5 -57.5t-68 -60t-75.5 -47t-74 -19.5q-66 0 -111 23.5t-82.5 53t-72.5 53t-78 23.5q-45 0 -76 -31.5t-53 -64.5h-141zM524 1305l680 -623v580q-102 4 -165.5 38.5t-102.5 63.5q-8 4 -13 8l-10 8q-6 4 -8 6q-12 0 -27.5 -29.5t-25.5 -51.5h-328z " />
<glyph unicode="&#xf2;" horiz-adv-x="2465" d="M33 717q0 209 63.5 355.5t178 238.5t273.5 134t347 42h23l-558 438h627l576 -442q70 -68 119 -111t94 -83t94 -88t119 -122q92 -92 140 -236.5t48 -330.5q0 -207 -62.5 -352.5t-176 -236.5t-270.5 -133t-343 -42h-225q-209 0 -382 48t-290 163q-117 102 -192.5 193.5 t-120.5 181.5t-63.5 183t-18.5 200zM84 717q0 -195 60.5 -331t168 -222t256 -126t326.5 -40h225q178 0 325.5 40t255 126t167 222t59.5 331t-59.5 331t-167 222t-255 126t-325.5 40h-225q-178 0 -326.5 -40t-256 -126t-168 -222t-60.5 -331zM199 717q0 166 52 280.5t145 187 t221 104.5t278 32h225q150 0 277 -33t220 -104.5t145.5 -186t52.5 -280.5t-52.5 -280.5t-145.5 -186.5t-220 -104.5t-277 -32.5h-225q-150 0 -278 31.5t-221 104.5t-145 187.5t-52 280.5zM328 717q0 -133 44 -224.5t119.5 -148.5t179 -81.5t224.5 -24.5h225 q119 0 222.5 25.5t180 81.5t120 147.5t43.5 224.5q0 131 -44.5 223t-120 148.5t-179 82t-222.5 25.5h-225q-121 0 -224.5 -25.5t-179 -82t-119.5 -148.5t-44 -223zM442 717q0 102 37 171.5t99.5 112.5t144.5 61.5t172 18.5h225q90 0 172 -18.5t143.5 -61.5t98.5 -112.5 t37 -171.5t-36 -172t-97.5 -113t-143.5 -61.5t-174 -18.5h-225q-92 0 -174 18.5t-143.5 60.5t-98.5 111.5t-37 174.5zM547 1874l452 -340h416l-442 340h-426zM692 512q0 -49 8 -82q43 -14 92.5 -20.5t102.5 -6.5h225q80 0 153 15.5t128 52.5t87 97.5t32 148.5q0 49 -13 90 q-84 25 -182 24h-225q-82 0 -156 -16t-130 -53t-89 -98.5t-33 -151.5zM774 1800h144l258 -192h-142q-66 47 -130 96t-130 96z" />
<glyph unicode="&#xf3;" horiz-adv-x="2465" d="M33 717q0 143 30.5 258t89 202t141.5 148t187 98l-84 60l578 442h594l186 -211l-342 -256q68 -16 132.5 -36.5t132 -60.5t143 -105.5t166.5 -170.5q92 -92 141 -239.5t49 -333.5q0 -207 -62.5 -352.5t-176 -236.5t-270.5 -133t-343 -42h-225q-104 0 -203.5 11.5t-189 36 t-165 63.5t-132.5 96q-117 102 -190 193.5t-115 182.5t-57 185t-15 201zM84 717q0 -195 60.5 -331t168 -222t256 -126t326.5 -40h225q178 0 325.5 40t255 126t167 222t59.5 331t-59.5 331t-167 222t-255 126t-325.5 40h-225q-178 0 -326.5 -40t-256 -126t-168 -222 t-60.5 -331zM199 717q0 166 52 280.5t145 187t221 104.5t278 32h225q150 0 277 -33t220 -104.5t145.5 -186t52.5 -280.5t-52.5 -280.5t-145.5 -186.5t-220 -104.5t-277 -32.5h-225q-150 0 -278 31.5t-221 104.5t-145 187.5t-52 280.5zM328 717q0 -133 44 -224.5 t119.5 -148.5t179 -81.5t224.5 -24.5h225q119 0 222.5 25.5t180 81.5t120 147.5t43.5 224.5q0 131 -44.5 223t-120 148.5t-179 82t-222.5 25.5h-225q-121 0 -224.5 -25.5t-179 -82t-119.5 -148.5t-44 -223zM442 717q0 102 37 171.5t99.5 112.5t144.5 61.5t172 18.5h225 q90 0 172 -18.5t143.5 -61.5t98.5 -112.5t37 -171.5t-36 -172t-97.5 -113t-143.5 -61.5t-174 -18.5h-225q-92 0 -174 18.5t-143.5 60.5t-98.5 111.5t-37 174.5zM547 1534h416l452 340h-426zM692 512q0 -49 8 -82q43 -14 92.5 -20.5t102.5 -6.5h225q80 0 153 15.5t128 52.5 t87 97.5t32 148.5q0 49 -13 90q-84 25 -182 24h-225q-82 0 -156 -16t-130 -53t-89 -98.5t-33 -151.5zM786 1608l258 192h144q-66 -47 -130.5 -96t-129.5 -96h-142z" />
<glyph unicode="&#xf4;" horiz-adv-x="2465" d="M33 717q0 229 76.5 383.5t214.5 245.5l-164 141l755 508h181l751 -508l187 -199h-271q10 -10 26.5 -23.5t44.5 -39t70 -66.5t103 -106q92 -92 131 -223.5t39 -317.5q0 -207 -62.5 -352.5t-176 -236.5t-270.5 -133t-343 -42h-225q-209 0 -389.5 48t-296.5 163 q-117 102 -190.5 193.5t-115.5 181.5t-58.5 183t-16.5 200zM84 717q0 -195 60.5 -331t168 -222t256 -126t326.5 -40h225q178 0 325.5 40t255 126t167 222t59.5 331t-59.5 331t-167 222t-255 126t-325.5 40h-225q-178 0 -326.5 -40t-256 -126t-168 -222t-60.5 -331zM199 717 q0 166 52 280.5t145 187t221 104.5t278 32h225q150 0 277 -33t220 -104.5t145.5 -186t52.5 -280.5t-52.5 -280.5t-145.5 -186.5t-220 -104.5t-277 -32.5h-225q-150 0 -278 31.5t-221 104.5t-145 187.5t-52 280.5zM326 1538h467l213 143l211 -143h466l-602 406h-151zM328 717 q0 -133 44 -224.5t119.5 -148.5t179 -81.5t224.5 -24.5h225q119 0 222.5 25.5t180 81.5t120 147.5t43.5 224.5q0 131 -44.5 223t-120 148.5t-179 82t-222.5 25.5h-225q-121 0 -224.5 -25.5t-179 -82t-119.5 -148.5t-44 -223zM442 717q0 102 37 171.5t99.5 112.5t144.5 61.5 t172 18.5h225q90 0 172 -18.5t143.5 -61.5t98.5 -112.5t37 -171.5t-36 -172t-97.5 -113t-143.5 -61.5t-174 -18.5h-225q-92 0 -174 18.5t-143.5 60.5t-98.5 111.5t-37 174.5zM621 1610l340 235h90q86 -59 170 -117.5t170 -117.5h-115l-270 172l-273 -172h-112zM692 512 q0 -49 8 -82q43 -14 92.5 -20.5t102.5 -6.5h225q80 0 153 15.5t128 52.5t87 97.5t32 148.5q0 49 -13 90q-84 25 -182 24h-225q-82 0 -156 -16t-130 -53t-89 -98.5t-33 -151.5z" />
<glyph unicode="&#xf5;" horiz-adv-x="2465" d="M33 717q0 260 96 421.5t266 247.5l-131 117q37 74 96.5 162t131 165t152.5 129t163 52q76 0 138.5 -32.5t115.5 -67.5q29 -18 51.5 -32.5t38.5 -14.5l47 94h492l194 -211q-23 -41 -51.5 -88t-63 -94t-73.5 -93.5t-82 -85.5q33 -16 68.5 -35.5t78.5 -53t99.5 -87 t134.5 -137.5q92 -92 137 -233.5t45 -327.5q0 -207 -62.5 -352.5t-176 -236.5t-270.5 -133t-343 -42h-225q-104 0 -201.5 9.5t-185.5 32t-163 60t-132 95.5q-117 102 -191.5 195t-117.5 185.5t-59.5 188.5t-16.5 203zM84 717q0 -195 60.5 -331t168 -222t256 -126t326.5 -40 h225q178 0 325.5 40t255 126t167 222t59.5 331t-59.5 331t-167 222t-255 126t-325.5 40h-225q-178 0 -326.5 -40t-256 -126t-168 -222t-60.5 -331zM199 717q0 166 52 280.5t145 187t221 104.5t278 32h225q150 0 277 -33t220 -104.5t145.5 -186t52.5 -280.5t-52.5 -280.5 t-145.5 -186.5t-220 -104.5t-277 -32.5h-225q-150 0 -278 31.5t-221 104.5t-145 187.5t-52 280.5zM328 717q0 -133 44 -224.5t119.5 -148.5t179 -81.5t224.5 -24.5h225q119 0 222.5 25.5t180 81.5t120 147.5t43.5 224.5q0 131 -44.5 223t-120 148.5t-179 82t-222.5 25.5 h-225q-121 0 -224.5 -25.5t-179 -82t-119.5 -148.5t-44 -223zM348 1554h395q10 23 32 52.5t50 29.5q16 0 41 -19.5t63 -43t91 -43t127 -19.5q72 0 140.5 40t129 99.5t109.5 128t80 128.5h-375q-4 -10 -13.5 -25.5t-19.5 -31t-22.5 -27t-24.5 -11.5q-31 0 -66.5 23 t-78.5 50.5t-92.5 51t-106.5 23.5q-72 0 -141.5 -42t-130 -103.5t-108.5 -132t-79 -128.5zM442 717q0 102 37 171.5t99.5 112.5t144.5 61.5t172 18.5h225q90 0 172 -18.5t143.5 -61.5t98.5 -112.5t37 -171.5t-36 -172t-97.5 -113t-143.5 -61.5t-174 -18.5h-225 q-92 0 -174 18.5t-143.5 60.5t-98.5 111.5t-37 174.5zM532 1667q23 25 56 55.5t69.5 58t75.5 47t74 19.5q70 0 115 -23.5t79.5 -51t68.5 -50t81 -22.5q43 0 74.5 30.5t54.5 63.5h139q-23 -25 -54.5 -57.5t-68 -60t-75.5 -47t-74 -19.5q-66 0 -111 23.5t-83 53t-72.5 53 t-77.5 23.5q-45 0 -76 -31.5t-53 -64.5h-142zM692 512q0 -49 8 -82q43 -14 92.5 -20.5t102.5 -6.5h225q80 0 153 15.5t128 52.5t87 97.5t32 148.5q0 49 -13 90q-84 25 -182 24h-225q-82 0 -156 -16t-130 -53t-89 -98.5t-33 -151.5z" />
<glyph unicode="&#xf6;" horiz-adv-x="2459" d="M33 717q0 156 35.5 277.5t103.5 210.5t163 148.5t214 92.5l-53 41v444h458l37 -49v49h461l199 -211v-352q27 -16 55.5 -33.5t66 -48.5t89 -80t125.5 -129q92 -92 141 -235.5t49 -329.5q0 -207 -62.5 -352.5t-176 -236.5t-270.5 -133t-343 -42h-225q-104 0 -204.5 12.5 t-191 38t-168 65.5t-135.5 97q-117 102 -188.5 193.5t-111.5 180.5t-54 182t-14 200zM84 717q0 -195 60.5 -331t168 -222t256 -126t326.5 -40h225q178 0 325.5 40t255 126t167 222t59.5 331t-59.5 331t-167 222t-255 126t-325.5 40h-225q-178 0 -326.5 -40t-256 -126 t-168 -222t-60.5 -331zM199 717q0 166 52 280.5t145 187t221 104.5t278 32h225q150 0 277 -33t220 -104.5t145.5 -186t52.5 -280.5t-52.5 -280.5t-145.5 -186.5t-220 -104.5t-277 -32.5h-225q-150 0 -278 31.5t-221 104.5t-145 187.5t-52 280.5zM328 717q0 -133 44 -224.5 t119.5 -148.5t179 -81.5t224.5 -24.5h225q119 0 222.5 25.5t180 81.5t120 147.5t43.5 224.5q0 131 -44.5 223t-120 148.5t-179 82t-222.5 25.5h-225q-121 0 -224.5 -25.5t-179 -82t-119.5 -148.5t-44 -223zM442 717q0 102 37 171.5t99.5 112.5t144.5 61.5t172 18.5h225 q90 0 172 -18.5t143.5 -61.5t98.5 -112.5t37 -171.5t-36 -172t-97.5 -113t-143.5 -61.5t-174 -18.5h-225q-92 0 -174 18.5t-143.5 60.5t-98.5 111.5t-37 174.5zM547 1538h356v342h-356v-342zM662 1651v116h129v-116h-129zM692 512q0 -49 8 -82q43 -14 92.5 -20.5t102.5 -6.5 h225q80 0 153 15.5t128 52.5t87 97.5t32 148.5q0 49 -13 90q-84 25 -182 24h-225q-82 0 -156 -16t-130 -53t-89 -98.5t-33 -151.5zM1042 1538h359v342h-359v-342zM1157 1651v116h129v-116h-129z" />
<glyph unicode="&#xf8;" horiz-adv-x="2480" d="M33 717q0 209 63.5 355.5t178 238.5t273.5 134t347 42h225q53 0 106.5 -4t102.5 -10l8 14h592l193 -211l-162 -199l16 -16q109 -111 155 -255t46 -294q0 -207 -62.5 -352.5t-176 -236.5t-270.5 -133t-343 -42h-225q-53 0 -108.5 4t-106.5 10l-11 -14h-575l-217 199 l166 205q-117 111 -166 260t-49 305zM84 717q0 -80 12.5 -159t40 -151.5t72.5 -136t110 -114.5l-129 -158h457l15 18q117 -18 233 -18h225q178 0 325.5 40t255 126t167 222t59.5 331q0 80 -12 158.5t-40 151.5t-73 136.5t-110 114.5l129 158h-457l-14 -19q-115 18 -230 19 h-225q-178 0 -326.5 -40t-256 -126t-168 -222.5t-60.5 -330.5zM199 717q0 166 52 280.5t145 187t221 104.5t278 32h225q152 0 279 -34t219 -106.5t144.5 -187t52.5 -276.5q0 -166 -52.5 -280.5t-145.5 -186.5t-220 -104.5t-277 -32.5h-225q-152 0 -279 32.5t-220 105.5 t-145 187.5t-52 278.5zM328 717q0 -80 13 -141.5t44 -112.5t79 -92t116 -78q180 223 361 443t362 444q-47 4 -91.5 10t-91.5 6h-225q-121 0 -224.5 -25.5t-179 -82t-119.5 -148.5t-44 -223zM442 717q0 102 37 171.5t99.5 112.5t144.5 61.5t172 18.5h178l-518 -635 q-61 49 -87 121t-26 150zM709 254q33 -4 67.5 -10t67.5 -6h276q119 0 222.5 25.5t180 81.5t120 147.5t43.5 224.5q0 156 -59.5 254t-194.5 170zM936 352l518 635q61 -49 89 -120.5t28 -149.5q0 -102 -36 -172t-97.5 -113t-143.5 -61.5t-174 -18.5h-184z" />
<glyph unicode="&#xf9;" horiz-adv-x="2643" d="M27 717v770h460l199 -211v-764q0 -23 1 -43t5 -39q86 -27 195 -27h225q80 0 152.5 15.5t128 52.5t88 96.5t32.5 149.5v567h-356l-823 641h622l570 -438h446l199 -211v-764q0 -207 -63.5 -352.5t-176 -236.5t-270.5 -133t-344 -42h-225q-209 0 -390.5 52.5t-295.5 166.5 q-117 100 -191 189.5t-116 177.5t-57 181t-15 202zM78 717q0 -195 59.5 -331t167 -222t256 -126t326.5 -40h225q178 0 326.5 40t256 126t167 222t59.5 331v719h-356v-719q0 -104 -37 -174t-98.5 -112t-143.5 -60.5t-174 -18.5h-225q-92 0 -174 18.5t-143.5 61.5t-97.5 112.5 t-36 172.5v719h-358v-719zM190 717v604h132v-604q0 -133 43 -224.5t119.5 -147.5t179 -81.5t223.5 -25.5h225q119 0 222.5 25.5t180 81.5t120.5 147.5t44 224.5v604h129v-604q0 -166 -53 -280.5t-146 -187.5t-220 -104.5t-277 -31.5h-225q-150 0 -278 31.5t-221 104.5 t-145.5 187.5t-52.5 280.5zM516 1874l453 -340h415l-442 340h-426zM743 1800h144l258 -192h-141q-66 47 -130.5 96t-130.5 96z" />
<glyph unicode="&#xfa;" horiz-adv-x="2643" d="M27 717v770h417l574 438h594l186 -211l-571 -430h-549l8 -8v-764q0 -23 1 -43t5 -39q86 -27 195 -27h225q80 0 152.5 15.5t128 52.5t88 96.5t32.5 149.5v770h459l199 -211v-764q0 -207 -63.5 -352.5t-176 -236.5t-270.5 -133t-344 -42h-225q-104 0 -201.5 9.5t-185 33 t-161 61t-130.5 95.5q-117 100 -192 192t-118 184.5t-60 188.5t-17 205zM78 717q0 -195 59.5 -331t167 -222t256 -126t326.5 -40h225q178 0 326.5 40t256 126t167 222t59.5 331v719h-356v-719q0 -104 -37 -174t-98.5 -112t-143.5 -60.5t-174 -18.5h-225q-92 0 -174 18.5 t-143.5 61.5t-97.5 112.5t-36 172.5v719h-358v-719zM190 717v604h132v-604q0 -133 43 -224.5t119.5 -147.5t179 -81.5t223.5 -25.5h225q119 0 222.5 25.5t180 81.5t120.5 147.5t44 224.5v604h129v-604q0 -166 -53 -280.5t-146 -187.5t-220 -104.5t-277 -31.5h-225 q-150 0 -278 31.5t-221 104.5t-145.5 187.5t-52.5 280.5zM590 1534h416l452 340h-426zM829 1608l258 192h144q-66 -47 -130.5 -96t-129.5 -96h-142z" />
<glyph unicode="&#xfb;" horiz-adv-x="2643" d="M27 717v770h120l756 508h180l752 -508h137v-12l199 -199v-764q0 -207 -63.5 -352.5t-176 -236.5t-270.5 -133t-344 -42h-225q-209 0 -378 51t-284 166l-145 144q-123 92 -190.5 241.5t-67.5 366.5zM78 717q0 -195 59.5 -331t167 -222t256 -126t326.5 -40h225 q178 0 326.5 40t256 126t167 222t59.5 331v719h-356v-719q0 -104 -37 -174t-98.5 -112t-143.5 -60.5t-174 -18.5h-225q-92 0 -174 18.5t-143.5 61.5t-97.5 112.5t-36 172.5v719h-358v-719zM190 717v604h132v-604q0 -133 43 -224.5t119.5 -147.5t179 -81.5t223.5 -25.5h225 q119 0 222.5 25.5t180 81.5t120.5 147.5t44 224.5v604h129v-604q0 -166 -53 -280.5t-146 -187.5t-220 -104.5t-277 -31.5h-225q-150 0 -278 31.5t-221 104.5t-145.5 187.5t-52.5 280.5zM313 1538h467l213 143l211 -143h467l-602 406h-151zM479 274l15 -28q8 -4 15 -8.5 t17 -8.5zM608 1610l340 235h90q86 -59 170 -117.5t170 -117.5h-114l-271 172l-272 -172h-113zM674 1288l12 -12v-764q0 -23 1 -43t5 -39q86 -27 195 -27h225q80 0 152.5 15.5t128 52.5t88 96.5t32.5 149.5v571h-116l-199 135l-201 -135h-323z" />
<glyph unicode="&#xfc;" horiz-adv-x="2643" d="M27 717v770h460l199 -211v-764q0 -23 1 -43t5 -39q86 -27 195 -27h225q80 0 152.5 15.5t128 52.5t88 96.5t32.5 149.5v571h-274l-49 49v-49h-447l-211 199v444h459l37 -49v49h461l199 -211v-233h284l199 -211v-764q0 -207 -63.5 -352.5t-176 -236.5t-270.5 -133t-344 -42 h-225q-104 0 -202.5 11.5t-188 36t-164 63.5t-131.5 96q-117 100 -191 191.5t-116 181.5t-57 185t-15 204zM78 717q0 -195 59.5 -331t167 -222t256 -126t326.5 -40h225q178 0 326.5 40t256 126t167 222t59.5 331v719h-356v-719q0 -104 -37 -174t-98.5 -112t-143.5 -60.5 t-174 -18.5h-225q-92 0 -174 18.5t-143.5 61.5t-97.5 112.5t-36 172.5v719h-358v-719zM190 717v604h132v-604q0 -133 43 -224.5t119.5 -147.5t179 -81.5t223.5 -25.5h225q119 0 222.5 25.5t180 81.5t120.5 147.5t44 224.5v604h129v-604q0 -166 -53 -280.5t-146 -187.5 t-220 -104.5t-277 -31.5h-225q-150 0 -278 31.5t-221 104.5t-145.5 187.5t-52.5 280.5zM584 1538h356v342h-356v-342zM698 1651v116h129v-116h-129zM1079 1538h359v342h-359v-342zM1194 1651v116h129v-116h-129z" />
<glyph unicode="&#xfd;" horiz-adv-x="2299" d="M-195 1487h601l573 438h594l186 -211l-571 -430h-535l324 -321l520 524h643l191 -211l-924 -924v-604h-444l-211 199v604q-111 109 -231 227.5t-242.5 240.5t-243.5 240.5t-230 227.5zM-70 1436l873 -865v-573h354v577l858 861h-495l-541 -545l-549 545h-500zM207 1321 h180l594 -584l584 584h178l-701 -698v-510h-127v508zM551 1534h416l452 340h-426zM791 1608l258 192h143q-66 -47 -130.5 -96t-129.5 -96h-141z" />
<glyph unicode="&#xfe;" horiz-adv-x="2488" d="M10 -53v1540h453l166 -178h522q88 0 171 -11.5t167 -48.5t172 -105.5t188 -182.5q70 -70 106 -182.5t36 -254.5q0 -156 -46.5 -265t-130 -178t-200.5 -100.5t-258 -31.5h-694v-201h-441zM61 -2h351v201h739q131 0 239.5 29.5t186.5 93t121 164t43 243.5t-43 243.5 t-121 164t-186.5 92t-239.5 28.5h-739v179h-351v-1438zM172 113v1208h127v-176h852q102 0 190.5 -22.5t153 -72t100 -128t35.5 -193.5t-35.5 -193.5t-100 -128t-153 -72t-190.5 -22.5h-852v-200h-127zM299 440h852q72 0 134.5 15.5t109.5 49.5t74.5 89t27.5 135t-27.5 134.5 t-74.5 88t-109.5 49t-134.5 15.5h-852v-576zM412 553v348h739q43 0 85 -7t74.5 -26.5t53 -53.5t20.5 -85t-20.5 -85t-53 -54.5t-74.5 -28.5t-85 -8h-739zM662 604h489q45 0 86 9.5t68 37.5h-643v-47z" />
<glyph unicode="&#xff;" horiz-adv-x="2299" d="M-195 1487h646l526 -524l323 325h-86l-49 49v-49h-446l-211 199v444h459l37 -49v49h460l199 -211v-233h477l191 -211l-924 -924v-604h-444l-211 199v604q-111 109 -231 227.5t-242.5 240.5t-243.5 240.5t-230 227.5zM-70 1436l873 -865v-573h354v577l858 861h-495 l-541 -545l-549 545h-500zM207 1321h180l594 -584l584 584h178l-701 -698v-510h-127v508zM559 1538h356v342h-356v-342zM674 1651v116h129v-116h-129zM1055 1538h358v342h-358v-342zM1169 1651v116h129v-116h-129z" />
<glyph unicode="&#x152;" horiz-adv-x="3289" d="M88 717q0 209 63.5 355.5t177 238.5t272.5 134t347 42h1680l198 -211v-445h-311l100 -100v-328h15l198 -210v-445h-1675q-104 0 -202.5 9.5t-187.5 32t-164 59.5t-132 94q-115 100 -188.5 193t-115.5 186.5t-58.5 189.5t-16.5 205zM139 717q0 -195 59.5 -331t167 -222 t256 -126t326.5 -40h1630v354h-1067v191h854v348h-854v190h1065v355h-1628q-178 0 -326.5 -40t-256 -126t-167 -222.5t-59.5 -330.5zM252 717q0 166 53 280.5t146.5 187t220.5 104.5t276 32h1516v-125h-1063v-418h850v-123h-850v-417h1065v-125h-1518q-150 0 -276.5 31.5 t-220 104.5t-146.5 187.5t-53 280.5zM383 717q0 -133 43 -224.5t120 -148.5t179 -81.5t223 -24.5h328v958h-328q-121 0 -223 -25.5t-179 -82t-120 -148.5t-43 -223zM496 717q0 102 36.5 171.5t99 112.5t144.5 61.5t172 18.5h213v-729h-213q-92 0 -174 18.5t-143.5 60.5 t-98 112t-36.5 174zM745 512q0 -49 9 -82q43 -14 92 -20.5t102 -6.5h162v426q-76 -4 -142.5 -22.5t-115.5 -56t-78 -96t-29 -142.5z" />
<glyph unicode="&#x153;" horiz-adv-x="3426" d="M88 717q0 209 63.5 355.5t177 238.5t272.5 134t347 42h1680l198 -211v-445h-311l100 -100v-328h15l198 -210v-445h-1675q-104 0 -202.5 9.5t-187.5 32t-164 59.5t-132 94q-115 100 -188.5 193t-115.5 186.5t-58.5 189.5t-16.5 205zM139 717q0 -195 59.5 -331t167 -222 t256 -126t326.5 -40h1630v354h-1067v191h854v348h-854v190h1065v355h-1628q-178 0 -326.5 -40t-256 -126t-167 -222.5t-59.5 -330.5zM252 717q0 166 53 280.5t146.5 187t220.5 104.5t276 32h1516v-125h-1063v-418h850v-123h-850v-417h1065v-125h-1518q-150 0 -276.5 31.5 t-220 104.5t-146.5 187.5t-53 280.5zM383 717q0 -133 43 -224.5t120 -148.5t179 -81.5t223 -24.5h328v958h-328q-121 0 -223 -25.5t-179 -82t-120 -148.5t-43 -223zM496 717q0 102 36.5 171.5t99 112.5t144.5 61.5t172 18.5h213v-729h-213q-92 0 -174 18.5t-143.5 60.5 t-98 112t-36.5 174zM745 512q0 -49 9 -82q43 -14 92 -20.5t102 -6.5h162v426q-76 -4 -142.5 -22.5t-115.5 -56t-78 -96t-29 -142.5z" />
<glyph unicode="&#x178;" horiz-adv-x="2299" d="M-195 1487h646l526 -524l323 325h-86l-49 49v-49h-446l-211 199v444h459l37 -49v49h460l199 -211v-233h477l191 -211l-924 -924v-604h-444l-211 199v604q-111 109 -231 227.5t-242.5 240.5t-243.5 240.5t-230 227.5zM-70 1436l873 -865v-573h354v577l858 861h-495 l-541 -545l-549 545h-500zM207 1321h180l594 -584l584 584h178l-701 -698v-510h-127v508zM559 1538h356v342h-356v-342zM674 1651v116h129v-116h-129zM1055 1538h358v342h-358v-342zM1169 1651v116h129v-116h-129z" />
<glyph unicode="&#x2c6;" horiz-adv-x="1372" d="M-299 1487l756 508h180l752 -508l186 -199h-625l-198 135l-201 -135h-625zM-133 1538h467l213 143l211 -143h467l-602 406h-152zM162 1610l340 235h90q86 -59 170 -117.5t170 -117.5h-115l-270 172l-273 -172h-112z" />
<glyph unicode="&#x2dc;" horiz-adv-x="1431" d="M-166 1503q37 74 96.5 162t131 165t152.5 129t163 52q76 0 138.5 -32.5t115.5 -67.5q14 -10 32.5 -20.5t37 -10.5t37 16.5t30.5 61.5h492l194 -211q-37 -72 -95.5 -157t-129 -157.5t-149.5 -121.5t-158 -49q-55 0 -100.5 10t-81 25.5t-62.5 33t-47 33.5q-8 4 -13.5 8 t-9.5 8q-6 4 -8 6q-12 0 -27.5 -29.5t-25.5 -51.5h-498zM-82 1554h395q10 23 32 52.5t50 29.5q16 0 41 -19.5t63 -43t91 -43t127 -19.5q72 0 140.5 40t129 99.5t109.5 128t80 128.5h-351h-8q-4 -10 -15 -25.5t-25.5 -31t-29 -27t-26.5 -11.5q-31 0 -67 23t-79 50.5t-92 51 t-106 23.5q-72 0 -141.5 -42t-130 -103.5t-108.5 -132t-79 -128.5zM102 1667q23 25 55.5 55.5t69.5 58t76 47t74 19.5q70 0 115 -23.5t79.5 -51t68.5 -50t81 -22.5q43 0 74.5 30.5t54.5 63.5h139q-23 -25 -54.5 -57.5t-68.5 -60t-75.5 -47t-73.5 -19.5q-66 0 -111 23.5 t-83 53t-72.5 53t-77.5 23.5q-45 0 -76 -31.5t-53 -64.5h-142z" />
<glyph unicode="&#x2000;" horiz-adv-x="1029" />
<glyph unicode="&#x2001;" horiz-adv-x="2058" />
<glyph unicode="&#x2002;" horiz-adv-x="1029" />
<glyph unicode="&#x2003;" horiz-adv-x="2058" />
<glyph unicode="&#x2004;" horiz-adv-x="686" />
<glyph unicode="&#x2005;" horiz-adv-x="514" />
<glyph unicode="&#x2006;" horiz-adv-x="343" />
<glyph unicode="&#x2007;" horiz-adv-x="343" />
<glyph unicode="&#x2008;" horiz-adv-x="257" />
<glyph unicode="&#x2009;" horiz-adv-x="411" />
<glyph unicode="&#x200a;" horiz-adv-x="114" />
<glyph unicode="&#x2010;" horiz-adv-x="1804" d="M-31 492v450h1344l198 -211v-438h-1331zM20 543h1242v348h-1242v-348zM135 655v123h1012v-123h-1012z" />
<glyph unicode="&#x2011;" horiz-adv-x="1804" d="M-31 492v450h1344l198 -211v-438h-1331zM20 543h1242v348h-1242v-348zM135 655v123h1012v-123h-1012z" />
<glyph unicode="&#x2012;" horiz-adv-x="1804" d="M-31 492v450h1344l198 -211v-438h-1331zM20 543h1242v348h-1242v-348zM135 655v123h1012v-123h-1012z" />
<glyph unicode="&#x2013;" horiz-adv-x="1835" d="M-31 492v450h1344l198 -211v-438h-1331zM20 543h1242v348h-1242v-348zM135 655v123h1012v-123h-1012z" />
<glyph unicode="&#x2014;" horiz-adv-x="2312" d="M4 492v450h1729l198 -211v-438h-1716zM55 543h1626v348h-1626v-348zM170 655v123h1397v-123h-1397z" />
<glyph unicode="&#x2018;" horiz-adv-x="798" d="M16 938v383l181 209h391l194 -211l-108 -262v-318h-447zM68 989h356v279l88 211h-293l-151 -176v-314zM180 1104v153l90 107h70l-29 -72v-188h-131z" />
<glyph unicode="&#x2019;" horiz-adv-x="792" d="M-59 938l112 268v324h459l199 -211v-375l-179 -205h-376zM16 989h291l154 176v314h-357v-279zM188 1104l29 72v188h131v-154l-90 -106h-70z" />
<glyph unicode="&#x201a;" horiz-adv-x="724" d="M-68 -4v323h459l199 -210v-326q0 -4 -11.5 -43t-26.5 -86t-28.5 -88t-15.5 -49h-297l-211 198q0 4 -4 20.5t-9 39t-10.5 47t-11.5 43.5l-12 46t-10 42q-6 23 -11 43zM-16 -2q0 -2 8 -36t19.5 -75t20.5 -76.5t11 -43.5h227l13.5 40.5t23.5 73.5t22.5 72t10.5 35v280h-356 v-270zM96 8v150h131v-146q0 -4 -5 -22.5t-12 -41t-14.5 -43t-9.5 -28.5h-55q-2 10 -8 28.5t-12.5 39t-10.5 38t-4 25.5z" />
<glyph unicode="&#x201c;" horiz-adv-x="1372" d="M49 938v383l180 209h392l71 -90l78 90h391l195 -211l-109 -262v-318h-446l-94 95v-95h-447zM100 989h357v279l88 211h-293l-152 -176v-314zM213 1104v153l90 107h68l-27 -72v-188h-131zM641 989h356v279l88 211h-292l-152 -176v-314zM754 1104v153l90 107h71l-30 -72 v-188h-131z" />
<glyph unicode="&#x201d;" horiz-adv-x="1458" d="M-37 938l113 268v324h459l81 -94v94h459l199 -211v-375l-176 -205h-379l-88 86l-74 -86h-379zM39 989h293l151 176v314h-356v-279zM209 1104l31 72v188h131v-154l-90 -106h-72zM580 989h292l152 176v314h-356v-279zM754 1104l26 72v188h131v-154l-90 -106h-67z" />
<glyph unicode="&#x201e;" horiz-adv-x="1255" d="M-51 -4v323h917l199 -210v-326q0 -4 -11.5 -43t-26.5 -86t-28.5 -88t-15.5 -49h-297l-123 123q-12 -43 -23.5 -79t-15.5 -44h-297l-211 198q0 4 -4 20.5t-9 39t-10 47t-11 43.5q-6 23 -12.5 46t-10.5 42q-6 23 -10 43zM0 -2q0 -2 8 -36t19.5 -75t20.5 -76.5t11 -43.5h228 q2 6 13 40.5t23.5 73.5t22.5 72t10 35v280h-356v-270zM113 8v150h131v-146q0 -4 -5.5 -21.5t-12.5 -40t-14 -44t-9 -29.5h-56q-2 8 -8 27.5t-12 41t-10 39t-4 23.5zM459 -2q0 -2 8 -36t19.5 -75t20.5 -76.5t11 -43.5h227l13.5 40.5t24 73.5t22.5 72t10 35v280h-356v-270z M571 8v150h131v-146q0 -4 -5 -22.5t-12 -42t-14 -44t-9 -26.5h-56q-2 8 -7 28.5t-11 42t-11.5 40t-5.5 20.5z" />
<glyph unicode="&#x2022;" horiz-adv-x="806" d="M-51 719q0 135 72.5 198.5t201.5 63.5q82 0 141.5 -27.5t98.5 -70.5l166 -181q66 -66 65 -188q0 -129 -69.5 -194.5t-196.5 -65.5q-66 0 -118 14t-87 49q-90 76 -143 133.5t-83 102.5t-39 84t-9 82zM0 719q0 -109 59.5 -162t163.5 -53t162.5 54t58.5 161q0 106 -58 158.5 t-163 52.5q-104 0 -163.5 -51.5t-59.5 -159.5zM113 719q0 51 31.5 74.5t78.5 23.5t78 -24.5t31 -73.5q0 -51 -32 -76t-79 -25t-77.5 25t-30.5 76z" />
<glyph unicode="&#x2026;" horiz-adv-x="1710" d="M-31 -96v444h1368l199 -211v-432h-1356zM20 -45h353v342h-353v-342zM133 68v116h127v-116h-127zM477 -45h352v342h-352v-342zM590 68v116h127v-116h-127zM934 -45h352v342h-352v-342zM1044 68v116h130v-116h-130z" />
<glyph unicode="&#x202f;" horiz-adv-x="411" />
<glyph unicode="&#x2039;" horiz-adv-x="1144" d="M-96 717l493 606h582l192 -211l-489 -596q152 -182 275.5 -337.5t209.5 -266.5h-563l-207 199zM-31 717l453 -555h450q-111 141 -224 279.5t-228 277.5l452 553h-450zM113 717l360 444h164l-365 -442l367 -447h-166z" />
<glyph unicode="&#x203a;" horiz-adv-x="1144" d="M-201 111l496 602l-494 610h580l203 -211l493 -600l-493 -600h-568zM-92 162h450l455 555l-455 555h-450l454 -559zM143 272l365 443l-365 446h162l365 -444l-365 -445h-162z" />
<glyph unicode="&#x205f;" horiz-adv-x="514" />
<glyph unicode="&#x20ac;" horiz-adv-x="2109" d="M-61 313v807h247q57 111 142.5 181.5t186.5 111.5t214 57.5t227 16.5q121 0 238 -17.5t256 -76.5l199 -209v-1374q-92 -25 -186.5 -43.5t-178.5 -18.5q-104 0 -211.5 6t-208 29.5t-192.5 68t-166 117.5q-53 51 -83 80t-44 43l-17.5 17.5l-5.5 5.5h-206zM-10 365h229 q61 -131 156.5 -205t209 -110t240.5 -44t254 -8q78 0 160 15.5t160 35.5v1311q-111 47 -217.5 61.5t-225.5 14.5q-111 0 -221 -16.5t-207.5 -57.5t-177.5 -111.5t-131 -181.5h-229v-330h184v4v-4l2 -14v-31h-186v-329zM104 475v107h175q-10 35 -16.5 68.5t-6.5 68.5t6 67.5 t17 65.5h-175v106h189q45 106 114.5 176t155.5 112t186.5 58.5t206.5 16.5h123q63 0 125 -12.5t121 -30.5v-104q-59 16 -122.5 28t-123.5 12h-123q-68 0 -140.5 -14t-137 -45t-115.5 -79t-78 -118h793v-106h-823q-16 -35 -22.5 -73t-6.5 -77q0 -63 18 -120h834v-107h-815 q31 -66 86 -114t123.5 -79.5t142.5 -47t141 -15.5h123q119 0 244 29v-109q-59 -10 -121.5 -18t-122.5 -8h-123q-106 0 -206.5 16t-186.5 58t-155.5 112t-114.5 176h-189zM174 739h2v-2q-2 0 -2 2z" />
<glyph unicode="&#x2122;" horiz-adv-x="2461" d="M14 1059v452h1028l25 -36v36h360l175 -188l116 188h363l198 -211v-892h-1001l-211 198v254h-113v-442h-444l-211 198v244h-74zM66 1110h284v-442h355v442h286v350h-925v-350zM180 1223v125h697v-125h-287v-441h-125v441h-285zM1118 657h912v803h-281l-178 -291l-174 291 h-279v-803zM1231 772v576h100l240 -404l241 404h103v-576h-127v318l-197 -318h-37l-198 320v-320h-125z" />
<glyph unicode="&#x25fc;" horiz-adv-x="1484" d="M0 0v1485h1485v-1485h-1485z" />
<glyph unicode="&#xfb01;" horiz-adv-x="2420" d="M2 -53v1540h1952l198 -211v-1528h-438l-211 199v346h-846v-545h-444zM53 -2h355v545h1042v348h-1042v190h1146v-1083h349v1438h-1850v-1438zM168 113v1208h1622v-1208h-123v1083h-1372v-418h1042v-123h-1042v-542h-127z" />
<glyph unicode="&#xfb02;" horiz-adv-x="2428" d="M2 -53v1540h1952l198 -211v-1528h-438l-211 199v346h-846v-545h-444zM53 -2h355v545h1042v348h-1042v190h1146v-1083h349v1438h-1850v-1438zM168 113v1208h1622v-1208h-123v1083h-1372v-418h1042v-123h-1042v-542h-127z" />
</font>
</defs>
</svg>
